<svg width="482px" height="339px" viewBox="0 0 482 339" version="1.1" xmlns="http://www.w3.org/2000/svg" xmlns:xlink="http://www.w3.org/1999/xlink"> <title>pools</title> <g id="composables" stroke="none" stroke-width="1" fill="none" fill-rule="evenodd"> <g id="pools"> <path d="M228.136766,70.7857445 L228.5,71 L230.5,71 C237.666667,73.1666667 242.333333,72.8333333 244.5,70 C245.166667,70.8333333 246.020833,71.4791667 247.0625,71.9375 L247.151745,71.9746787 L246.987603,71.9669421 C245.238292,71.8980716 243.075758,72.2424242 240.5,73 L238.5,73 L230.5,74 C229.666667,72.5 227.666667,72.1666667 224.5,73 C221.666667,76.5 215.666667,76.8333333 206.5,74 L176.5,74 C171.333333,72.5 168,72.8333333 166.5,75 C163.833333,71.6666667 158.166667,71.3333333 149.5,74 L147,75.5 L146.5,77 L145,77.5 L144,90.5 L145,92.5 C141.491176,95.0735294 142.905459,100.787197 143.938516,104.292382 L144,104.5 L144,106.5 C145.666667,118.166667 146,131.166667 145,145.5 C142.958667,154.875333 144.125333,161.042 148.5,164 C155.055333,167.778 165.055333,168.111333 178.5,165 C184.666667,163.166667 188.666667,163.5 190.5,166 C191.5,164.333333 193.833333,164 197.5,165 L331.5,165 C336.50527,166.043175 343.630599,166.47619 345.89429,160.780409 L346,160.5 L347,149.5 L346,144.5 L346,142.5 C348.632143,138.265714 348.269388,133.640102 347.665015,129.018571 L347.506013,127.830517 C347.470266,127.566635 347.434501,127.302878 347.399232,127.039318 L347.295423,126.249306 C347.177245,125.32849 347.071429,124.411 347,123.5 C345.903375,109.502531 347.103202,94.7927588 348.831186,80.8471409 L349,79.5 L345.5,73 L342,71.5 L344.5,71 C350.855333,74.3113333 353.022,81.8113333 351,93.5 C352.708667,113.792 353.042,135.458667 352,158.5 C351.083333,163.916667 348.583333,167.75 344.5,170 C339.833333,172 333.5,172.333333 325.5,171 L156.5,171 C150.683,171.84 144.225,171.372 141.37,165.505 C137.922936,158.421 138.64944,149.52657 139.916628,141.989585 L140,141.5 L140,79.5 L145.5,72 L150.5,70 L207.5,70 C213.939216,68.5607843 222.042215,67.3099577 228.136766,70.7857445 Z M152.102224,157.215 L157,161.5 L156.690429,161.375518 C154.555896,160.478036 153.100141,159.036158 152.141778,157.289481 L152.102224,157.215 Z M172.5,160 L184,160.5 L172.5,161 L172.5,160 Z M156.5,79 C183.904,79.596 210.237333,81.2626667 235.5,84 C247.361333,85.8053333 260.361333,86.472 274.5,86 C275.333333,87.5 277.333333,87.8333333 280.5,87 L303,88.5 C307.927,87.771 318.89,86.35 322.547,91.078 C325.844717,95.3432174 325.161338,101.202787 324.073109,106.170189 L324,106.5 L324,147.5 C321.751872,151.382596 316.747868,151.569615 312.758686,151.035805 L312.5,151 L282.5,153 L188.5,160 L188.5,159 L224.5,156 L321,147.5 L321,107.5 C323.166667,99.3333333 322.333333,94.1666667 318.5,92 C302.682667,92.484 288.349333,91.484 275.5,89 L273.5,89 C233.554667,87.9453333 194.888,85.612 157.5,82 C152.5,83.3333333 150.666667,87.8333333 152,95.5 C154,104.5 153.666667,111.166667 151,115.5 L151,144.5 C150.32503,148.538091 150.142024,153.403053 152.008233,157.037909 L152.102224,157.215 L149,154.5 L149,103.5 C147.204,94.943 146.425,82.644 156.5,79 Z M305.5,72 L307.5,71 L310.5,72 L312.5,71 L315.5,72 L329,72.5 L324.5,74 C323.386788,71.9956364 320.522714,72.4821598 318.670588,72.9557183 L318.5,73 L300.5,73 L297.5,74 C295.41337,70.9859783 290.639499,72.0994731 287.693633,72.9441357 L287.5,73 L283.5,74 C281.549,71.181 276.171,71.737 273.5,73 C270.301613,74.5116129 268.578252,75.0951301 264.87686,74.1043496 L264.5,74 L260.5,73 L258.5,73 C257.388889,72.6969697 256.400214,72.5163759 255.533976,72.4582185 L255.455745,72.4536787 L255.5625,72.4375 C257.354167,72.1458333 259.333333,71.6666667 261.5,71 C278.666667,68.8333333 293.333333,69.1666667 305.5,72 Z M249.985745,72.6836787 L250.154337,72.7028061 C251.030612,72.7908163 251.984375,72.8013393 253.015625,72.734375 L253.069745,72.7296787 L252.944444,72.7777778 C252.314815,73.037037 251.833333,73.4444444 251.5,74 C251.121212,73.469697 250.639118,73.0426997 250.053719,72.7190083 L249.985745,72.6836787 Z M253.119835,72.7107438 C253.716713,72.4995409 254.436027,72.4107744 255.277778,72.4444444 L255.455745,72.4536787 L255.181441,72.4971301 C254.551127,72.5917304 253.944728,72.662415 253.362245,72.7091837 L253.069745,72.7296787 Z M247.151745,71.9746787 L247.246901,71.9803719 C248.271694,72.0464876 249.147727,72.2613636 249.875,72.625 L249.985745,72.6836787 L249.865115,72.6705995 C248.910608,72.5536777 248.051764,72.3410927 247.288584,72.0328444 L247.151745,71.9746787 Z" id="piscine" fill="#6ec3e6"></path> <path d="M296.5,178 L308,187.5 L305.5,191 L299,185.5 C303.543333,205.623333 312.376667,221.456667 325.5,233 C338.198,245.635333 356.531333,252.635333 380.5,254 L382.5,254 L390,254.5 C381.281,260.85 368.469,258.114 358.886,255.739 C331.105,248.854 311.737,230.913 302.54,204.022 C301.58,201.217 300.738,198.371 300,195.5 L300,195.5 L300,193.5 L297.5,185 L292.5,192 L292,189.5 L296.5,178 Z M280.5,187 L286,200.5 C285.067,202.599 283.464,204.061 282,201.5 L282,201.5 L278.5,193 L270.5,197 L278.5,188 L280.5,187 Z M275.5,203 L276,206.5 L273,213.5 C274.666667,214.5 274.333333,215.5 272,216.5 C263.305333,255.805333 245.805333,286.305333 219.5,308 C206.246667,321.413333 186.58,328.413333 160.5,329 L150,326.5 C175.80435,325.7773 203.115114,319.350418 221.44724,300.087656 L222,299.5 L223.5,297 L225,296.5 L225.5,295 L228,293.5 C251.048,267.76 266.368,236.147 275.5,203 Z M177.5,11 C218.914667,14.9186667 251.081333,28.0853333 274,50.5 L272.5,51 C266.953895,44.2397105 259.688955,39.1375796 251.653217,35.7693025 L251,35.5 L250.5,34 C226.533333,18.9666667 193.866667,12.6333333 152.5,15 C115.760667,21.2606667 87.594,36.094 68,59.5 C53.75,73.25 47.0833333,94.5833333 48,123.5 C54.25,160.916667 66.9166667,191.916667 86,216.5 L80,211.5 C57.8406667,187.992667 45.5073333,154.659333 43,111.5 C44.966,85.1326667 53.466,65.2993333 68.5,52 L71,50.5 L71.5,49 L73,48.5 L74.5,46 C97.165,23.813 128.512,14.015 159.5,11 L161.5,12 C164,8.83333333 169.333333,8.5 177.5,11 Z M430.546716,56.9142843 L431,57.5 L428.5,58 C413.288,42.432 390.644,39.481 369.875,39.75 C350.808021,39.9953617 329.993819,51.0412062 316.434858,64.078754 L316,64.5 L320.5,65 L323.5,64 L324,67.5 C320.110725,70.62 314.582573,70.6305056 309.861524,70.0460864 L309.5,70 L309,67.5 L313.5,56 L315,56.5 L315.5,63 L324,56.5 L325.5,54 C337.169,44.078 351.618,38.131 366.5,35 C389.4779,33.89912 415.477448,37.7408843 430.546716,56.9142843 Z M284.5,51 L287,51.5 L288,55.5 C289.076,61.2426667 288.242667,65.076 285.5,67 C280.166667,65.3333333 276,62.5 273,58.5 L276.5,58 L280.5,60 L280.5,58 L281.5,61 L283,60.5 C282.413,57.454 282.014,53.376 284.5,51 Z" id="arrows" fill="#cf0b7c"></path> <path d="M427.5,204 C437.361333,210.472 445.861333,218.305333 453,227.5 C454.055333,236.888667 453.722,244.888667 452,251.5 L452,253.5 L453,255.5 L452,258.5 L453,263.5 C453.621,269.154 452.874,275.92 447,278.5 L431,294.5 L358.5,296 L330.5,296 C327.574,296.849 322.633,298.081 320.5,295 L317.5,296 C313.807,295.91 310.105,294.581 308.5,291 L295,277.5 L287.5,268 L285,266.5 L283,263.5 L286,264.5 L299.5,279 L301,279.5 L304.5,284 L307,285.5 L313.5,293 L326.5,292 C328.633,295.081 333.574,293.849 336.5,293 L338.5,293 L344.5,292 L346.5,292 L358.5,293 C360.386,290.17 364.848,291.242 367.5,292 L389.5,291 L412.5,291 C416.666667,289.833333 419.333333,290.166667 420.5,292 C424.708667,292.542 427.542,291.708667 429,289.5 L429.5,288 L431,287.5 L431.5,286 L433,285.5 L433.5,284 L435,283.5 L435.5,282 L447,271.5 C444.944667,255.111333 445.278,241.111333 448,229.5 C437.823333,221.732667 430.99,213.232667 427.5,204 Z M429.5,218 C446.53988,224.38946 445.172502,245.405932 442.093801,260.057969 L442,260.5 L442,262.5 L441,264.5 L442,266.5 L442,268.5 C442.254919,271.047243 441.459027,273.499819 438.731762,273.965807 L438.5,274 L426.5,286 L344.5,286 C330.66475,288.54232 311.806487,288.914699 305.196535,273.957941 L305,273.5 L301,268.5 L309.5,276 L311,276.5 L311.5,278 L313,278.5 L313.5,280 C315.587583,283.758042 320.539964,283.666632 324.264003,283.04065 L324.5,283 L425.5,283 L431,278.5 L431.5,277 L439,270.5 L439,241.5 C440.666667,232.166667 438.5,226.666667 432.5,225 C435.294667,244.794667 431.628,258.128 421.5,265 C413.820667,269.654 403.154,271.320667 389.5,270 L387.5,269 L382.5,270 C381.617828,268.921812 380.529192,268.172383 379.309864,267.676451 L379.108,267.598 L381.5,267 C382.613212,269.004364 385.477286,268.51784 387.329412,268.044282 L387.5,268 L402.5,268 C411.897,267.742 420.043,264.934 426,257.5 C429.409756,253.245366 429.761333,248.189304 429.054932,242.897331 L429,242.5 L429.5,218 Z M312,268.5 L331.567,268.69 L331.455503,268.724734 C326.625926,270.145157 320.340224,270.109455 312.598397,268.617628 L312,268.5 Z M338.117,268.754 L343.09,268.802 L342.946281,268.826446 C341.108127,269.119146 339.568526,269.113292 338.327479,268.808884 L338.117,268.754 Z M366.949,268 L366.853056,268.02546 C365.734832,268.319675 364.685789,268.633734 363.751829,268.922043 L363.5,269 L343.09,268.802 L343.27376,268.771694 C344.265496,268.59814 345.340909,268.340909 346.5,268 L366.949,268 Z M335.5,267 C336.106061,267.848485 336.976584,268.432507 338.11157,268.752066 L338.117,268.754 L331.567,268.69 L331.824137,268.612598 C333.165264,268.190905 334.390551,267.653372 335.5,267 Z M367.159707,267.945746 C370.962036,266.969517 375.49985,266.264702 379.026196,267.56647 L379.108,267.598 L377.5,268 L366.949,268 Z" id="tropical" fill="#6ec3e6"></path> <path d="M39.9311807,232.316155 L40,232.5 L39.5,237 L36.5,238 C33.9859429,237.420057 33.6668702,234.866893 33.9715388,232.690956 L34,232.5 L35.5,231 C37.0553667,230.688733 39.2153189,230.601733 39.9311807,232.316155 Z M44.5,209 L47,210.5 L48.5,214 L51,215.5 C51.3306,217.595733 51.4247856,220.310069 49.6864321,221.845447 L49.5,222 L40.5,223 C37.688,222.196154 37.5608337,219.10811 37.9668755,216.689498 L38,216.5 L42,213.5 L42.5,210 L44.5,209 Z M206.5,200 L209,200.5 L211,204.5 L208.5,205 C206.074,204.228 205.535,202.221 206.5,200 Z M381.5,176 L386,176.5 C386.69,179.606 385.045,184.202 380.984,181.766 C379.086,180.626 379.387,176.704 381.5,176 Z M389.5,154 L393,155.5 L393.5,158 L397,159.5 C397.523535,162.119628 397.666412,165.767699 394.716038,166.92185 L394.5,167 L391.5,166 L388.5,168 L384,164.5 C383.66,162.348286 383.897528,159.750214 386.283828,159.056232 L386.5,159 L389,158.5 L388,155.5 L389.5,154 Z M135.5,48 L140,49.5 L141.5,53 L143.5,52 L146,55.5 L142,57.5 L139.5,61 L137.5,62 L134,60.5 L132,51.5 L133.5,49 L135.5,48 Z M119.5,44 L124,45.5 L123.5,50 L120.5,51 L118,49.5 C117.588,47.645 117.32,44.872 119.5,44 Z" id="bullet1" fill="#307dcb"></path> <path d="M465,6.5 L476.5,20 C483.221,23.821 482.33,33.102 481,39.5 L479,48.5 C479.494,55.583 477.418,62.433 477.778,69.278 C477.977,73.069 477.386,77.29 473.5,79 L447.5,100 L447,97.5 L458,88.5 L458.5,87 L474,74.5 L473,72.5 L475,65.5 L474,63.5 L474,61.5 L476,43.5 C474.295,37.41 480.923,28.663 473,24.5 L460.5,10 L446.5,9 C444.658,9.485 441.648,10.067 440.5,8 L438.5,8 C428.434667,9.732 420.768,9.06533333 415.5,6 C406.238667,13.7386667 395.905333,20.4053333 384.5,26 L384,24.5 C392.876,15.551 402.816,7.681 413.5,1 C430.77,0.536 448.316,1.777 465,6.5 Z M413.5,13 C423.749333,15.084 435.082667,16.084 447.5,16 C453.933333,15.2333333 458.1,16.7333333 460,20.5 C467.407333,23.7593333 470.074,31.7593333 468,44.5 C466.121333,49.288 465.454667,55.288 466,62.5 C466.633333,70.1333333 464.466667,74.9666667 459.5,77 L447.5,86 L449.5,83 L463,71.5 L464,65.5 L464,63.5 C463.602,54.144 464.016,44.674 466,35.5 L466,33.5 C464.3,27.2 460.8,22.7 455.5,20 C452.5,18 447.833333,17.6666667 441.5,19 C440.666667,17.5 438.666667,17.1666667 435.5,18 L414.5,16 L399.5,27 L401,24.5 L401.5,23 L413.5,13 Z" id="virgin" fill="#6ec3e6"></path> <path d="M28,256.5 L24,259.5 L23.5,261 L18,265.5 L17.5,267 L15,268.5 L14.5,270 L12,271.5 L8.5,276 L7,276.5 L5,282.5 C7.067,283.648 6.485,286.658 6,288.5 L6,290.5 C1.95,306.883333 3.45,317.716667 10.5,323 C15.2193333,332.947333 26.886,335.947333 45.5,332 L121.5,332 C130.857,322.248 141.284,313.538 152.5,306 L152,307.5 L146.5,315 L145,315.5 L125,336.5 L116,337.5 L41.5,337 L38.5,338 C19.9833333,340.183333 8.81666667,335.016667 5,322.5 C0.286,318.547333 -0.714,310.880667 2,299.5 L2,297.5 C0.305,289.506 -0.907,277.817 7.5,273 L9,272.5 L9.5,271 L13,268.5 L13.5,267 L28,256.5 Z M132.5,313 L124,322.5 L121.5,326 C108.976,328.476 94.3093333,328.809333 77.5,327 C76.0254237,325.19774 73.7455233,324.200804 70.6602988,324.009193 L70.4895614,324 L112.5,324 C114.551389,323.440972 117.912847,322.718422 119.379042,324.813456 L119.5,325 L132.5,313 Z M25.5,268 L26,290.5 C25.344,295.191 25.196,300.792 28.234,304.766 C34.7929762,313.342667 49.9426994,312.49968 59.1691198,311.052553 L59.5,311 L61.5,311 C65.4588,310.6982 69.4276,310.4578 73.401344,310.290176 L74.0905614,310.262 L73.9202112,310.295869 C71.6629882,310.741634 69.5176677,311.374423 67.7606118,311.919008 L67.5,312 L63.5,313 C46.6666667,315.833333 34.8333333,313.666667 28,306.5 C22.7426667,299.090667 20.9093333,288.257333 22.5,274 L14,283.5 L14,285.5 C11.22899,299.14418 10.4711054,318.126965 26.023702,323.831227 L26.5,324 L68.5025614,324 L68.2854065,324.011204 C65.5301637,324.167576 62.2683616,324.830508 58.5,326 L54.5,326 C49,325.166667 44.6666667,325.5 41.5,327 C40,324.833333 36.6666667,324.5 31.5,326 L29.5,326 L25.5,327 L15.5,317 C10.86625,315.315625 11.1442666,309.712062 11.9552617,305.716322 L12,305.5 L12,280.5 L25.5,268 Z M196,246.5 C199.704,248.129333 201.037333,252.129333 200,258.5 L200,279.5 L199,282.5 C200.230228,289.544684 199.880234,298.523457 191.814055,300.911423 L191.5,301 L173.5,316 L176.5,312 L178,311.5 L178.5,310 L184,305.5 L185.5,303 L187,302.5 L188.5,300 L190,299.5 L190.5,298 L192,297.5 L194.5,294 L196,293.5 C198.758049,289.29122 198.046734,283.526222 197.073438,278.848731 L197,278.5 L196,276.5 C200.25993,273.187158 198.364651,266.01247 197.068808,261.726788 L197,261.5 L197,259.5 L196,254.5 C197.880757,253.371351 196.562694,252.202942 195.120412,251.552954 L195,251.5 L193.5,249 L180.5,238 C179.326,239.956 176.684,239.608 174.813,239.313 C173.967375,239.1795 173.321016,238.840266 172.70243,238.471799 L172.292272,238.22376 C171.404356,237.685354 170.494875,237.167792 169.047,237.203 C164.542694,237.312861 162.466649,240.158177 157.897832,239.100382 L157.5,239 L153.5,238 L151.5,238 C147.319649,236.727719 140.129742,234.735384 136.68113,238.777639 L136.5,239 L132.5,238 C130.075,242.041 125.663,238.059 123.039,237.336 C120.698048,236.691238 118.130338,237.251918 115.841216,237.901963 L115.5,238 L112.5,239 L110.5,239 L105.5,238 L103.5,238 C98.3333333,236.5 95,236.833333 93.5,239 C91.6666667,236.5 87.6666667,236.166667 81.5,238 C71.8053333,247.972 61.1386667,256.972 49.5,265 L50,263.5 C57.403,251.576 67.08,241.167 78.5,233 L156.5,233 C178.5,228.666667 191.666667,233.166667 196,246.5 Z M119.524644,312.281797 L121,312.5 L106.5,313 L104.5,313 L99.5,312 C97.901,314.512575 94.0775375,313.70937 91.6814384,313.050351 L91.5,313 L89.5,312 L87.5,313 C86.2292,311.461692 84.5565633,310.565326 82.6835581,310.110262 L82.3765614,310.04 L83.8403906,310.024941 C95.7759656,309.930273 107.716221,310.580174 119.524644,312.281797 Z M82.3695698,310.03847 L82.3765614,310.04 L82.348478,310.040631 C79.8620305,310.073169 77.376033,310.137468 74.8917199,310.230751 L74.0905614,310.262 L74.2595994,310.230441 C76.9808662,309.718791 79.8433743,309.49627 82.3695698,310.03847 Z M190.846715,257.019889 L191,257.5 L191,281.5 C191.998964,289.73775 189.983991,298.284021 180.833843,299.943047 L180.5,300 L177.5,302 C180.128,284.038 177.794667,271.038 170.5,263 C163.25,259.25 153.25,258.25 140.5,260 L81,258.5 L161.5,258 C167.264,258.236 171.430667,260.069333 174,263.5 C179.896,270.604 181.729333,281.770667 179.5,297 C186.333333,295.833333 189.166667,290.666667 188,281.5 L188,258.5 C184,246.833333 172.166667,243 152.5,247 C127.194667,248.638667 103.861333,248.305333 82.5,246 L69.5,258 L82.5,244 L153.5,244 C167.30258,241.37056 185.654784,241.335445 190.846715,257.019889 Z" id="paradise" fill="#6ec3e6"></path> <g id="name-pools" transform="translate(58.000000, 48.000000)" fill="#cf0b7c" font-family="Inter-Regular, Inter" font-size="24" font-weight="normal"> <text id="Paradise"> <tspan x="0" y="243">Paradise</tspan> </text> <text id="Tropical"> <tspan x="274" y="176">Tropical</tspan> </text> <text id="Virgin"> <tspan x="326" y="34">Virgin</tspan> </text> </g> </g> </g> </svg>