<svg width="64" height="64" viewBox="0 0 64 64" fill="none" xmlns="http://www.w3.org/2000/svg">
<path fill-rule="evenodd" clip-rule="evenodd" d="M32.305 0.5C46.6402 0.5 58.7295 9.48948 62.4741 21.7672L62.5157 21.7676C62.5254 21.7912 62.5351 21.8148 62.5448 21.8384C63.0089 22.9666 63.4939 24.5727 64 26.6568C63.0371 26.0716 62.0545 25.8554 61.0522 26.008C58.2801 26.4302 54.9746 29.1423 53.4939 29.1027C50.8715 29.0325 48.3894 27.638 46.2621 27.638C46.1552 27.638 45.5292 27.838 45.4324 27.849C44.8308 27.9177 43.8246 28.5045 42.8252 29.1408L42.4516 29.3808C41.3365 30.1022 40.2952 30.8121 39.9134 30.8429C38.8189 30.9313 38.1286 30.4562 37.197 30.1675C36.9662 30.096 36.7328 30.0226 36.4987 29.9493L36.0301 29.8034C34.6251 29.37 33.2425 28.9898 32.3048 29.1027C29.5449 29.4349 26.2253 32.7845 24.8558 32.8952C24.4096 32.9312 24.1727 32.9457 24.0593 32.9478L24.0091 32.9477C23.9313 32.9454 23.9818 32.9303 24.0491 32.9144L24.0903 32.9049C24.2077 32.8783 24.3101 32.8559 23.8625 32.8952C23.7737 32.8417 22.7219 32.4174 21.6617 31.9955L21.3094 31.8554C20.3758 31.4849 19.5194 31.1489 19.4105 31.1095C18.8372 30.9019 18.0806 30.8591 17.6629 30.8429C17.584 30.8398 17.5199 30.8368 17.4663 30.8341L17.3328 30.8269C17.1852 30.819 17.1372 30.8193 16.9147 30.8429C16.1408 30.9249 15.3816 31.4307 14.7319 32.0583C13.9892 32.7758 12.0895 34.3371 10.7151 34.4812C8.19653 34.7451 5.6993 32.1468 3.91117 32.3005C1.73804 32.4873 1.23192 33.0247 0.493464 33.3684C0.261259 33.4764 0.09787 33.565 0.00329713 33.6342L0 33.6363L0.0272873 33.4053C0.690051 27.8834 1.38623 24.004 2.11582 21.767L2.13558 21.7665L2.25039 21.4005C6.12201 9.31089 18.1128 0.5 32.305 0.5Z" fill="#CF0B7C"/>
<path fill-rule="evenodd" clip-rule="evenodd" d="M31.6419 63.5C17.434 63.5 5.45211 54.6933 1.74073 42.6652L1.6996 42.6649C1.68996 42.6418 1.68031 42.6186 1.67067 42.5954C1.21077 41.4902 0.653877 39.7065 0 37.2444C1.39409 36.4632 2.58784 35.9978 3.58125 35.8482C6.32865 35.4346 8.53951 37.5589 10.007 37.5977C12.6062 37.6665 15.9506 34.1536 18.0589 34.1536C20.1673 34.1536 21.3968 34.984 21.4804 35.0107C22.9465 35.4789 24.1073 35.9087 24.8641 35.8482C25.1472 35.8256 25.9816 35.7148 26.4616 35.4789C27.8209 34.811 28.6696 34.5306 29.9415 33.7741C31.2134 33.0175 32.641 32.5627 33.2545 32.5627C33.8681 32.5627 34.3399 32.6658 34.9393 33.0175C36.2615 33.7935 38.3176 34.6427 39.0248 34.5736C39.7224 34.5054 41.5405 33.2396 41.9148 33.0175C43.8001 31.899 45.11 30.9679 46.1538 30.8776C46.236 30.9265 47.9496 31.0494 49.4849 31.4541C51.2363 31.9157 52.8685 32.6587 53.5566 32.5834C55.7245 32.3461 59.0908 30.1789 60.0901 29.6635C60.9151 29.2381 62.2184 29.6428 64 30.8776C63.4471 36.3239 62.6343 40.2299 61.5614 42.5954L61.5306 42.6647L61.5432 42.6646C57.832 54.693 45.85 63.5 31.6419 63.5Z" fill="#89CDE9"/>
<path d="M21.7296 18.871C21.5703 20.4014 20.9785 21.7938 19.9541 23.048C19.2035 23.9619 18.2341 24.7698 17.0458 25.4716C15.79 26.2172 14.6556 26.6255 13.6424 26.6963C11.8733 26.82 11.1112 25.7769 11.3561 23.567C11.4019 23.1017 11.4881 22.5984 11.6147 22.057C11.7491 21.515 11.9197 20.9314 12.1266 20.306C12.3161 19.7681 12.5058 19.234 12.6959 18.7038C12.8937 18.1731 13.0907 17.6307 13.2869 17.0766C13.4089 16.6922 13.532 16.4369 13.6563 16.3107C13.8136 16.0961 14.0506 15.9581 14.3674 15.8968L14.5817 16.105L14.5689 16.2586C14.5565 16.4161 14.3697 16.9931 14.0086 17.9894C13.2836 20.0528 12.8655 21.6327 12.7542 22.7291C12.5717 24.4883 13.1001 25.3246 14.3393 25.2379C15.6096 25.1491 16.936 24.4611 18.3183 23.1741C19.3768 22.1838 19.975 20.9946 20.1129 19.6066C20.2444 18.3522 19.9873 17.1954 19.3416 16.1363C18.7114 15.0762 17.8308 14.3546 16.6998 13.9716C15.8747 13.7082 14.9517 13.6122 13.9307 13.6836C13.5722 13.7087 13.0542 13.8036 12.3765 13.9685C12.0296 14.0476 11.7326 14.1114 11.4854 14.16C11.2376 14.2008 11.0358 14.2267 10.8799 14.2376C10.498 14.2643 10.3285 14.1352 10.3712 13.8503C10.4204 13.3221 11.0584 12.8703 12.2852 12.4947C13.1506 12.2149 13.9808 12.0472 14.7757 11.9916C17.2073 11.8216 19.0621 12.475 20.3401 13.952C21.4841 15.3052 21.9473 16.9448 21.7296 18.871ZM25.0734 23.3478C25.1085 22.9538 24.9733 22.5873 24.6676 22.2485C24.362 21.9096 24.026 21.7529 23.6597 21.7786C23.1064 21.8172 22.7699 22.3812 22.6503 23.4703C22.5846 24.211 22.844 24.561 23.4285 24.5201C23.7559 24.4972 24.0883 24.38 24.426 24.1684C24.8165 23.9297 25.0323 23.6561 25.0734 23.3478ZM26.7763 22.5004C26.6804 23.3686 26.1963 24.1739 25.3241 24.9162C24.4435 25.6513 23.5746 26.0488 22.7173 26.1087C22.1328 26.1496 21.7078 26.007 21.4422 25.681C21.1766 25.355 21.0785 24.9037 21.1478 24.3272C21.241 23.42 21.6053 22.5252 22.2406 21.6428C22.9645 20.6838 23.7512 20.1745 24.6007 20.1151C25.232 20.071 25.7726 20.2994 26.2228 20.8005C26.6645 21.2943 26.849 21.861 26.7763 22.5004ZM33.0126 23.9909C32.9895 24.2196 32.8385 24.469 32.5598 24.7391C32.2883 25.0009 32.0396 25.1397 31.8136 25.1555C31.5408 25.1746 31.2051 24.6851 30.8064 23.687C29.9183 24.9865 28.995 25.6698 28.0364 25.7368C27.4908 25.775 27.0845 25.5645 26.8175 25.1054C26.6082 24.6893 26.538 24.1891 26.6068 23.6048C26.6537 23.1551 26.9253 22.4469 27.4215 21.4803C27.9887 20.4068 28.4515 19.8576 28.81 19.8325C29.0749 19.814 29.19 19.9469 29.155 20.2313C29.1302 20.4367 28.9632 20.8477 28.6539 21.4646C28.5032 21.7727 28.3853 22.0472 28.3003 22.2881C28.2148 22.5212 28.1619 22.7168 28.1417 22.8748C28.1234 23.1737 28.1697 23.4446 28.2807 23.6874C28.4122 23.9993 28.6026 24.1466 28.852 24.1291C29.265 24.1002 29.6343 23.5575 29.9599 22.501C30.3473 21.3227 30.7511 20.6013 31.1712 20.337C31.3428 20.2154 31.491 20.1502 31.6157 20.1415C31.8027 20.1284 31.9387 20.2246 32.0235 20.4301C32.0507 20.483 32.1498 20.8912 32.3206 21.6546C32.4037 21.9464 32.505 22.276 32.6247 22.6436C32.7439 23.0033 32.8816 23.4049 33.0379 23.8482L33.0126 23.9909ZM38.2331 20.8652C38.2072 21.055 38.1125 21.2691 37.9491 21.5077C37.7846 21.7306 37.6166 21.8481 37.4451 21.8601C37.2892 21.871 37.0997 21.6806 36.8765 21.289C36.6534 20.8974 36.343 20.7154 35.9456 20.7432C35.135 20.7999 34.6931 21.1989 34.6196 21.9402C34.5627 22.3593 34.6601 22.744 34.9118 23.0945C35.1634 23.445 35.484 23.6066 35.8737 23.5794C36.1153 23.5625 36.3843 23.434 36.6808 23.194C36.9845 22.9457 37.2143 22.816 37.3702 22.8051C37.6975 22.7822 37.8412 22.9327 37.8012 23.2566C37.7882 23.4063 37.6874 23.5896 37.499 23.8064C36.7239 24.7064 35.8961 25.1872 35.0154 25.2488C34.3452 25.2957 33.812 25.0627 33.4159 24.5501C33.0582 24.0269 32.9188 23.4336 32.9978 22.7702C33.0913 21.9805 33.4765 21.2174 34.1534 20.4809C34.838 19.7438 35.5739 19.3478 36.361 19.2928C36.9066 19.2546 37.357 19.368 37.7123 19.6329C38.1025 19.9502 38.2761 20.361 38.2331 20.8652ZM41.5336 20.8576C41.5432 20.7708 41.5054 20.6795 41.4204 20.5836C41.3427 20.4794 41.2648 20.43 41.1869 20.4355C40.8985 20.4556 40.5494 20.7267 40.1395 21.2488C39.7876 21.7041 39.5568 22.1001 39.4472 22.4367C40.8144 21.6049 41.5099 21.0786 41.5336 20.8576ZM43.3813 23.0896C43.3282 23.5632 42.7832 24.0008 41.7462 24.4022C40.9442 24.6932 40.2276 24.8608 39.5963 24.905C38.2948 24.996 37.7036 24.493 37.8227 23.3961C37.9001 22.5997 38.4022 21.66 39.3289 20.5771C40.2484 19.5026 41.1056 18.9375 41.9005 18.8819C42.2435 18.8579 42.5333 18.9708 42.77 19.2205C43.0151 19.4775 43.1149 19.7838 43.0692 20.1394C42.9788 21.0855 41.9319 22.1298 39.9286 23.2723C40.0716 23.3015 40.2327 23.3098 40.412 23.2973C40.7471 23.2738 41.2017 23.1676 41.7759 22.9787C42.4274 22.7765 42.8311 22.67 42.987 22.6591C43.2831 22.6384 43.4146 22.7819 43.3813 23.0896ZM49.5192 22.8366C49.496 23.0654 49.3451 23.3148 49.0664 23.5849C48.7949 23.8467 48.5462 23.9854 48.3202 24.0012C48.0474 24.0203 47.7117 23.5308 47.3129 22.5328C46.4249 23.8323 45.5015 24.5155 44.5429 24.5826C43.9974 24.6207 43.5911 24.4103 43.324 23.9512C43.1148 23.5351 43.0446 23.0349 43.1134 22.4505C43.1602 22.0008 43.4318 21.2927 43.9281 20.326C44.4952 19.2526 44.958 18.7033 45.3165 18.6783C45.5815 18.6597 45.6965 18.7927 45.6616 19.077C45.6368 19.2824 45.4698 19.6935 45.1605 20.3103C45.0097 20.6185 44.8919 20.893 44.8069 21.1339C44.7214 21.367 44.6685 21.5625 44.6482 21.7206C44.63 22.0195 44.6763 22.2903 44.7873 22.5332C44.9187 22.8451 45.1092 22.9923 45.3585 22.9749C45.7716 22.946 46.1409 22.4033 46.4664 21.3467C46.8539 20.1684 47.2577 19.4471 47.6778 19.1828C47.8494 19.0611 47.9976 18.9959 48.1223 18.9872C48.3093 18.9741 48.4453 19.0704 48.5301 19.2759C48.5573 19.3288 48.6563 19.7369 48.8272 20.5003C48.9102 20.7921 49.0116 21.1218 49.1313 21.4893C49.2504 21.8491 49.3882 22.2506 49.5445 22.6939L49.5192 22.8366ZM55.2345 19.8996C55.2113 20.1283 55.064 20.3735 54.7925 20.6353C54.5283 20.8887 54.2832 21.0233 54.0572 21.0391C53.8935 21.0506 53.6795 20.8463 53.4152 20.4262C53.1504 19.9983 52.8465 19.7964 52.5036 19.8203C51.8957 19.8628 51.4498 20.2621 51.1659 21.0181C51.0802 21.3609 50.9945 21.7036 50.9089 22.0464C50.8226 22.3813 50.7372 22.728 50.6527 23.0863C50.4139 23.8157 50.0178 24.1997 49.4645 24.2384C49.1917 24.2575 49.0725 24.1209 49.1069 23.8288C49.1317 23.6234 49.2036 23.1955 49.3226 22.545C49.4494 21.8939 49.6374 20.9997 49.8868 19.8623C50.0859 18.9008 50.3841 18.4061 50.7816 18.3783C50.9375 18.3674 51.0553 18.6529 51.1352 19.2347C51.9166 18.5378 52.6814 18.1633 53.4295 18.111C53.9517 18.0744 54.3973 18.2312 54.7664 18.5813C55.1355 18.9315 55.2915 19.3709 55.2345 19.8996Z" fill="white"/>
<path d="M14.0389 55.5532L14.0256 55.4015L14.0389 55.5532ZM26.3615 45.0575C26.2347 46.5214 25.6163 47.7564 24.5064 48.7626C23.4127 49.7588 22.1238 50.3219 20.6399 50.4517C19.0717 50.5889 17.9021 50.3301 17.1312 49.6754C17.0211 49.5831 16.976 49.4554 16.9957 49.2922C17.0073 49.0363 17.1615 48.7595 17.4583 48.4616C17.755 48.1638 18.0341 48.0035 18.2955 47.9806C18.3124 47.9791 18.3943 47.9932 18.5413 48.0228C19.7543 48.4859 20.7612 48.6824 21.5622 48.6123C23.3749 48.4538 24.3518 47.5782 24.4929 45.9856C24.5982 44.7615 24.2693 43.673 23.5063 42.7203C22.6981 41.7375 21.6954 41.2985 20.4982 41.4032C17.9688 41.6245 16.4222 44.9713 15.8585 51.4435C15.8028 52.0685 15.7512 52.5956 15.7038 53.0245C15.6563 53.4534 15.6092 53.7889 15.5624 54.0309C15.2995 55.3962 14.9025 56.1021 14.3714 56.1486C14.1521 56.1678 14.0413 55.9693 14.0389 55.5532L14.1817 54.1262C14.1915 53.9469 14.2057 53.7205 14.2242 53.447C14.2428 53.1736 14.2657 52.853 14.293 52.4852C14.3272 52.0999 14.354 51.7747 14.3733 51.5097C14.3919 51.2362 14.4103 51.0094 14.4285 50.8294C14.5695 49.2369 14.762 47.9414 15.006 46.943C15.4644 45.0933 16.1766 43.523 17.1426 42.232C18.3358 40.6239 19.7291 39.7501 21.3226 39.6107C22.7981 39.4816 24.0397 39.9804 25.0473 41.1072C26.0557 42.2424 26.4937 43.5591 26.3615 45.0575ZM28.8178 46.0405C28.7791 46.3752 28.6424 46.7058 28.4076 47.0322C28.1643 47.3593 27.8741 47.5376 27.5368 47.5671C26.9635 47.6173 26.6976 47.3942 26.7391 46.8978C26.773 46.606 26.9496 46.2932 27.2687 45.9594C27.5787 45.6179 27.8812 45.4343 28.1763 45.4085C28.64 45.3679 28.8539 45.5786 28.8178 46.0405ZM27.7836 49.3679C27.7806 49.3342 27.6177 50.0451 27.2947 51.5007C27.2023 52.095 27.051 52.9875 26.8408 54.1783C26.8087 54.3936 26.6581 54.6149 26.3892 54.8423C26.111 55.062 25.8708 55.1808 25.6684 55.1985C25.4239 55.2199 25.3224 54.8847 25.3638 54.1929C25.4138 53.6957 25.5825 52.8569 25.8701 51.6763C26.1861 50.4337 26.439 49.6342 26.6287 49.2778C26.8408 48.8854 27.1028 48.6756 27.4148 48.6483C27.7099 48.6225 27.8328 48.8624 27.7836 49.3679ZM33.6964 48.9271C33.6858 49.0979 33.5776 49.2688 33.3716 49.4397C33.1657 49.6107 32.9784 49.7035 32.8098 49.7183C32.7255 49.7257 32.6243 49.7345 32.5063 49.7448C32.3959 49.746 32.2603 49.7494 32.0993 49.755C31.7936 49.7562 31.5606 49.7639 31.4004 49.7779C30.9536 49.817 30.5436 49.9378 30.1705 50.1404C30.4037 50.2814 30.6412 50.422 30.8829 50.5623C31.1238 50.6941 31.3689 50.8256 31.6183 50.9567C32.1082 51.3132 32.3284 51.7909 32.2789 52.39C32.2159 53.1261 31.7931 53.7323 31.0107 54.2086C30.3474 54.5895 29.6236 54.8142 28.8395 54.8828C28.6878 54.8961 28.3833 54.8632 27.9261 54.7843C27.4788 54.7215 27.2584 54.6303 27.265 54.5108C27.2711 54.2894 27.3945 54.0492 27.6352 53.7902C27.8759 53.5313 28.1075 53.3624 28.33 53.2834C28.5049 53.2426 28.7146 53.2116 28.9591 53.1902L29.6926 53.126C29.7769 53.1186 29.9014 53.1332 30.066 53.1698C30.2306 53.2064 30.3551 53.221 30.4394 53.2136C30.4984 53.2084 30.5356 53.1967 30.551 53.1783C30.5761 52.7853 30.1847 52.3905 29.3769 51.9939C28.5599 51.5896 28.1708 51.2201 28.2094 50.8854C28.2619 50.3201 28.7923 49.7299 29.8004 49.115C30.7225 48.584 31.4871 48.292 32.0941 48.2389C32.2965 48.2212 32.6116 48.2786 33.0395 48.4111C33.4865 48.5674 33.7054 48.7394 33.6964 48.9271ZM38.4896 49.5272C38.4651 49.7333 38.3666 49.967 38.1941 50.2285C38.0201 50.4731 37.8403 50.6035 37.6548 50.6198C37.4862 50.6345 37.2773 50.4319 37.0282 50.0119C36.7791 49.5919 36.4395 49.4007 36.0095 49.4384C35.1326 49.5151 34.6614 49.9556 34.5959 50.76C34.5422 51.2149 34.655 51.6299 34.9341 52.0047C35.2133 52.3796 35.5637 52.5486 35.9853 52.5117C36.2466 52.4889 36.5356 52.3446 36.8522 52.0791C37.1765 51.8043 37.423 51.6596 37.5916 51.6448C37.9457 51.6138 38.1042 51.7741 38.067 52.1257C38.0557 52.2881 37.95 52.4885 37.75 52.7269C36.9275 53.7164 36.0399 54.2529 35.0871 54.3362C34.3621 54.3996 33.7801 54.1574 33.3414 53.6096C32.9441 53.0497 32.7819 52.4097 32.8548 51.6896C32.9413 50.8325 33.3441 49.9986 34.0633 49.1881C34.7909 48.3768 35.5805 47.9339 36.4321 47.8594C37.0223 47.8077 37.5123 47.9221 37.9021 48.2023C38.3308 48.5386 38.5267 48.9802 38.4896 49.5272ZM41.5407 44.9274C41.502 45.2621 41.3653 45.5927 41.1304 45.9191C40.8872 46.2462 40.597 46.4245 40.2597 46.454C39.6864 46.5042 39.4205 46.2811 39.462 45.7847C39.4959 45.4929 39.6725 45.18 39.9916 44.8463C40.3016 44.5048 40.6041 44.3212 40.8992 44.2954C41.3629 44.2548 41.5767 44.4655 41.5407 44.9274ZM40.5065 48.2548C40.5035 48.2211 40.3406 48.932 40.0176 50.3876C39.9252 50.9819 39.7739 51.8744 39.5637 53.0652C39.5316 53.2804 39.381 53.5018 39.1121 53.7292C38.8339 53.9489 38.5937 54.0677 38.3913 54.0854C38.1468 54.1068 38.0453 53.7716 38.0867 53.0798C38.1367 52.5826 38.3054 51.7438 38.5929 50.5632C38.909 49.3206 39.1619 48.5211 39.3516 48.1647C39.5637 47.7723 39.8257 47.5625 40.1376 47.5352C40.4327 47.5094 40.5557 47.7492 40.5065 48.2548ZM45.0453 49.2978C45.0052 49.811 44.9153 50.3371 44.7756 50.8761C44.6358 51.4151 44.4473 51.9795 44.2101 52.5695C43.919 53.2237 43.5121 53.5736 42.9893 53.6194C42.6774 53.6467 42.5327 53.4979 42.5552 53.1731C42.5829 52.9073 42.6557 52.5738 42.7735 52.1727C42.9825 51.5512 43.0848 51.2152 43.0804 51.1646C43.1294 50.9479 43.1766 50.7101 43.2219 50.4513C43.2672 50.1925 43.3061 49.9087 43.3386 49.6C43.3614 49.1817 43.3265 48.9766 43.2338 48.9847C42.8375 49.0194 42.368 49.6254 41.8253 50.8029C41.372 51.8365 41.1219 52.6188 41.0749 53.1497C41.0643 53.3205 40.9645 53.4907 40.7755 53.6601C40.5886 53.8549 40.4151 53.9593 40.2549 53.9733C40.1368 53.9836 40.0358 53.848 39.9517 53.5665C39.8606 53.3026 39.8226 53.1106 39.8375 52.9903C39.8753 52.2564 40.1848 51.3754 40.766 50.3476C41.3502 49.3534 41.9574 48.5739 42.5877 48.009C43.1802 47.4984 43.6704 47.2261 44.0582 47.1922C44.4208 47.1605 44.698 47.4166 44.8901 47.9605C45.0318 48.4154 45.0835 48.8611 45.0453 49.2978ZM48.5649 48.8879C48.5737 48.7937 48.5311 48.6954 48.4372 48.5932C48.351 48.4818 48.2657 48.4298 48.1814 48.4372C47.8695 48.4645 47.4964 48.7647 47.0623 49.3379C46.6898 49.8378 46.4473 50.2711 46.3349 50.6377C47.8001 49.7109 48.5434 49.1276 48.5649 48.8879ZM50.6085 51.2706C50.56 51.7846 49.9779 52.2688 48.8623 52.7232C47.9991 53.0536 47.2261 53.2487 46.5431 53.3085C45.1351 53.4316 44.4852 52.898 44.5934 51.7076C44.6623 50.8435 45.1883 49.8162 46.1717 48.6257C47.1473 47.4444 48.0651 46.8161 48.9251 46.7409C49.2961 46.7084 49.6121 46.8252 49.8733 47.0912C50.1436 47.3649 50.2574 47.6948 50.2148 48.0809C50.1346 49.1074 49.0204 50.2583 46.8721 51.5338C47.0276 51.5626 47.2023 51.5686 47.3962 51.5516C47.7587 51.5199 48.2492 51.3963 48.8675 51.1808C49.5694 50.9495 50.0047 50.8264 50.1733 50.8117C50.4937 50.7836 50.6388 50.9366 50.6085 51.2706Z" fill="white"/>
</svg>
