<svg width="260" height="155" viewBox="0 0 260 155" fill="none" xmlns="http://www.w3.org/2000/svg">
<path fill-rule="evenodd" clip-rule="evenodd" d="M129.476 0.196655C151.87 0.196655 170.754 14.1451 176.604 33.1958L176.669 33.1963C176.684 33.2329 176.699 33.2696 176.714 33.3063C177.439 35.0569 178.197 37.549 178.987 40.7827C177.483 39.8747 175.948 39.5391 174.383 39.776C170.052 40.4312 164.889 44.6393 162.576 44.5778C158.479 44.4689 154.602 42.3051 151.279 42.3051C151.112 42.3051 150.134 42.6155 149.983 42.6326C149.043 42.7391 147.471 43.6497 145.91 44.6369L145.327 45.0093C143.585 46.1287 141.958 47.2302 141.362 47.278C139.652 47.4152 138.574 46.6779 137.118 46.23C136.758 46.1191 136.393 46.0052 136.027 45.8914L135.295 45.6651C133.101 44.9926 130.941 44.4026 129.476 44.5778C125.165 45.0933 119.979 50.2907 117.84 50.4624C117.143 50.5183 116.773 50.5408 116.596 50.544L116.518 50.5439C116.396 50.5403 116.475 50.5169 116.58 50.4922L116.644 50.4775C116.828 50.4362 116.988 50.4016 116.288 50.4624C116.15 50.3794 114.507 49.7211 112.851 49.0664L112.3 48.8491C110.842 48.2742 109.504 47.7528 109.334 47.6917C108.438 47.3695 107.256 47.3031 106.604 47.278C106.481 47.2733 106.381 47.2686 106.297 47.2643L106.088 47.2532C105.858 47.241 105.783 47.2414 105.435 47.278C104.226 47.4053 103.04 48.19 102.026 49.1639C100.865 50.2772 97.8978 52.6998 95.7508 52.9233C91.8165 53.3329 87.9156 49.3012 85.1223 49.5397C81.7277 49.8296 80.9371 50.6634 79.7835 51.1967C79.4208 51.3643 79.1656 51.5018 79.0178 51.6091L79.0127 51.6124L79.0553 51.254C80.0906 42.686 81.1781 36.6664 82.3178 33.1954L82.3487 33.1947L82.528 32.6268C88.5759 13.868 107.307 0.196655 129.476 0.196655Z" fill="#CF0B7C"/>
<path fill-rule="evenodd" clip-rule="evenodd" d="M128.436 101.803C106.042 101.803 87.1576 87.8549 81.3081 68.8042L81.2433 68.8037C81.2281 68.7671 81.2129 68.7304 81.1977 68.6937C80.4728 66.9431 79.5951 64.1181 78.5645 60.2184C80.7617 58.9811 82.6432 58.244 84.2089 58.0071C88.5392 57.352 92.0237 60.7166 94.3367 60.7781C98.4332 60.887 103.704 55.3231 107.027 55.3231C110.35 55.3231 112.288 56.6384 112.42 56.6807C114.731 57.4222 116.56 58.1029 117.753 58.0071C118.199 57.9713 119.514 57.7958 120.271 57.4222C122.413 56.3643 123.751 55.9202 125.756 54.722C127.76 53.5237 130.01 52.8033 130.977 52.8033C131.944 52.8033 132.688 52.9666 133.633 53.5237C135.717 54.7528 138.957 56.0978 140.072 55.9883C141.171 55.8803 144.037 53.8754 144.627 53.5237C147.598 51.7521 149.663 50.2775 151.308 50.1344C151.438 50.2119 154.138 50.4065 156.558 51.0474C159.319 51.7786 161.891 52.9554 162.976 52.8361C166.392 52.4603 171.698 49.0278 173.273 48.2115C174.573 47.5377 176.628 48.1786 179.436 50.1344C178.564 58.7606 177.283 64.947 175.592 68.6937L175.544 68.8033L175.563 68.8032C169.714 87.8544 150.829 101.803 128.436 101.803Z" fill="#89CDE9"/>
<path d="M112.981 26.3476C112.729 28.7709 111.792 30.9754 110.17 32.9612C108.981 34.4083 107.446 35.6874 105.565 36.7986C103.577 37.9792 101.78 38.6256 100.176 38.7378C97.3752 38.9337 96.1685 37.2821 96.5562 33.7829C96.6287 33.0463 96.7652 32.2493 96.9656 31.3921C97.1784 30.534 97.4486 29.6099 97.7762 28.6198C98.0762 27.7681 98.3767 26.9224 98.6776 26.083C98.9908 25.2427 99.3028 24.3839 99.6134 23.5066C99.8064 22.8979 100.001 22.4936 100.198 22.2939C100.447 21.9541 100.823 21.7356 101.324 21.6385L101.663 21.9682L101.643 22.2114C101.623 22.4608 101.328 23.3743 100.756 24.9519C99.6081 28.2189 98.9461 30.7204 98.7698 32.4564C98.481 35.2417 99.3176 36.5658 101.28 36.4287C103.291 36.288 105.391 35.1988 107.58 33.1609C109.256 31.5929 110.203 29.7101 110.421 27.5124C110.629 25.5262 110.222 23.6947 109.2 22.0178C108.202 20.3392 106.808 19.1967 105.017 18.5903C103.711 18.1733 102.249 18.0213 100.633 18.1343C100.065 18.174 99.2448 18.3243 98.1719 18.5854C97.6226 18.7106 97.1523 18.8117 96.7609 18.8886C96.3686 18.9533 96.0491 18.9942 95.8023 19.0115C95.1976 19.0537 94.9291 18.8493 94.9968 18.3982C95.0747 17.5619 96.0849 16.8465 98.0273 16.2519C99.3975 15.8089 100.712 15.5433 101.971 15.4553C105.821 15.1861 108.757 16.2208 110.781 18.5593C112.592 20.7018 113.326 23.2979 112.981 26.3476ZM118.275 33.436C118.331 32.8121 118.117 32.2319 117.633 31.6953C117.149 31.1588 116.617 30.9108 116.037 30.9513C115.161 31.0126 114.628 31.9054 114.439 33.6299C114.335 34.8028 114.745 35.3568 115.671 35.2921C116.189 35.2559 116.716 35.0703 117.25 34.7353C117.869 34.3572 118.21 33.9241 118.275 33.436ZM120.972 32.0943C120.82 33.4689 120.053 34.7439 118.672 35.9192C117.278 37.0831 115.902 37.7125 114.545 37.8075C113.619 37.8722 112.946 37.6464 112.526 37.1302C112.105 36.614 111.95 35.8995 112.06 34.9866C112.207 33.5503 112.784 32.1336 113.79 30.7364C114.936 29.2179 116.182 28.4116 117.527 28.3175C118.526 28.2476 119.382 28.6094 120.095 29.4027C120.795 30.1846 121.087 31.0818 120.972 32.0943ZM130.846 34.4542C130.809 34.8164 130.57 35.2113 130.129 35.6389C129.699 36.0534 129.305 36.2731 128.947 36.2981C128.515 36.3283 127.984 35.5533 127.352 33.9731C125.946 36.0306 124.484 37.1124 122.967 37.2185C122.103 37.2789 121.46 36.9457 121.037 36.2189C120.705 35.5601 120.594 34.768 120.703 33.8428C120.777 33.1308 121.207 32.0096 121.993 30.479C122.891 28.7794 123.624 27.9098 124.192 27.8701C124.611 27.8408 124.793 28.0512 124.738 28.5015C124.699 28.8266 124.434 29.4775 123.944 30.4542C123.706 30.9421 123.519 31.3767 123.385 31.7581C123.249 32.1272 123.165 32.4368 123.133 32.6871C123.104 33.1603 123.178 33.5892 123.354 33.9737C123.562 34.4675 123.863 34.7007 124.258 34.673C124.912 34.6273 125.497 33.768 126.012 32.0952C126.626 30.2295 127.265 29.0874 127.93 28.6689C128.202 28.4763 128.437 28.3731 128.634 28.3593C128.93 28.3385 129.145 28.4909 129.28 28.8163C129.323 28.9001 129.48 29.5463 129.75 30.755C129.882 31.217 130.042 31.739 130.232 32.3209C130.42 32.8905 130.638 33.5263 130.886 34.2282L130.846 34.4542ZM139.111 29.5052C139.07 29.8057 138.921 30.1447 138.662 30.5224C138.401 30.8755 138.135 31.0615 137.864 31.0804C137.617 31.0977 137.317 30.7963 136.964 30.1762C136.61 29.5561 136.119 29.2681 135.49 29.3121C134.206 29.4018 133.506 30.0335 133.39 31.2073C133.3 31.8708 133.454 32.48 133.853 33.0349C134.251 33.5899 134.759 33.8458 135.376 33.8026C135.758 33.7759 136.184 33.5725 136.654 33.1925C137.135 32.7992 137.498 32.594 137.745 32.5767C138.264 32.5405 138.491 32.7788 138.428 33.2916C138.407 33.5287 138.248 33.8188 137.949 34.1621C136.722 35.5871 135.411 36.3483 134.017 36.4458C132.956 36.5201 132.111 36.1513 131.484 35.3395C130.918 34.5111 130.697 33.5718 130.822 32.5214C130.97 31.2711 131.58 30.0628 132.652 28.8967C133.736 27.7297 134.901 27.1026 136.147 27.0155C137.011 26.9551 137.724 27.1346 138.287 27.5541C138.905 28.0564 139.18 28.7068 139.111 29.5052ZM144.337 29.4932C144.352 29.3557 144.293 29.2111 144.158 29.0593C144.035 28.8943 143.912 28.8161 143.788 28.8248C143.332 28.8567 142.779 29.2859 142.13 30.1125C141.573 30.8335 141.207 31.4604 141.034 31.9934C143.199 30.6764 144.3 29.843 144.337 29.4932ZM147.263 33.0272C147.179 33.7771 146.316 34.4698 144.674 35.1054C143.404 35.5662 142.269 35.8316 141.27 35.9015C139.209 36.0456 138.273 35.2492 138.462 33.5124C138.584 32.2515 139.379 30.7637 140.847 29.0491C142.302 27.3477 143.66 26.453 144.918 26.3649C145.461 26.327 145.92 26.5057 146.295 26.9011C146.683 27.3079 146.841 27.7929 146.769 28.3559C146.625 29.854 144.968 31.5075 141.796 33.3165C142.022 33.3626 142.278 33.3758 142.561 33.356C143.092 33.3188 143.812 33.1507 144.721 32.8515C145.752 32.5314 146.392 32.3627 146.638 32.3455C147.107 32.3127 147.315 32.5399 147.263 33.0272ZM156.981 32.6266C156.944 32.9888 156.705 33.3837 156.264 33.8114C155.834 34.2258 155.441 34.4456 155.083 34.4706C154.651 34.5008 154.119 33.7257 153.488 32.1455C152.082 34.203 150.62 35.2848 149.102 35.391C148.238 35.4514 147.595 35.1182 147.172 34.3913C146.841 33.7325 146.73 32.9405 146.839 32.0153C146.913 31.3033 147.343 30.182 148.129 28.6515C149.027 26.9519 149.759 26.0822 150.327 26.0425C150.746 26.0132 150.929 26.2237 150.873 26.6739C150.834 26.9991 150.57 27.65 150.08 28.6266C149.841 29.1145 149.655 29.5491 149.52 29.9306C149.385 30.2996 149.301 30.6093 149.269 30.8595C149.24 31.3327 149.313 31.7616 149.489 32.1461C149.697 32.64 149.999 32.8731 150.393 32.8455C151.047 32.7997 151.632 31.9405 152.148 30.2676C152.761 28.4019 153.4 27.2598 154.066 26.8413C154.337 26.6487 154.572 26.5455 154.769 26.5317C155.065 26.511 155.281 26.6633 155.415 26.9887C155.458 27.0725 155.615 27.7188 155.885 28.9274C156.017 29.3894 156.177 29.9114 156.367 30.4934C156.556 31.063 156.774 31.6987 157.021 32.4006L156.981 32.6266ZM166.03 27.9762C165.994 28.3384 165.76 28.7267 165.331 29.1412C164.912 29.5424 164.524 29.7556 164.166 29.7806C163.907 29.7987 163.568 29.4752 163.15 28.8101C162.73 28.1326 162.249 27.8128 161.706 27.8508C160.744 27.9181 160.038 28.5503 159.588 29.7473C159.453 30.29 159.317 30.8327 159.181 31.3754C159.045 31.9057 158.91 32.4546 158.776 33.0219C158.398 34.1768 157.771 34.7848 156.895 34.8461C156.463 34.8763 156.274 34.6601 156.328 34.1975C156.368 33.8723 156.481 33.1948 156.67 32.1648C156.871 31.134 157.168 29.7181 157.563 27.9173C157.878 26.3949 158.351 25.6117 158.98 25.5677C159.227 25.5504 159.413 26.0023 159.54 26.9235C160.777 25.8202 161.988 25.2271 163.173 25.1443C163.999 25.0865 164.705 25.3347 165.289 25.8891C165.874 26.4434 166.121 27.1391 166.03 27.9762Z" fill="white"/>
<path d="M101.927 89.0574L101.906 88.8239L101.927 89.0574ZM120.885 72.9101C120.689 75.1622 119.738 77.0622 118.031 78.6102C116.348 80.1429 114.365 81.0091 112.082 81.2088C109.669 81.4199 107.87 81.0218 106.684 80.0146C106.515 79.8725 106.445 79.676 106.476 79.425C106.494 79.0314 106.731 78.6054 107.187 78.1472C107.644 77.689 108.073 77.4423 108.475 77.4071C108.501 77.4049 108.627 77.4265 108.854 77.4721C110.72 78.1845 112.269 78.4869 113.501 78.3791C116.29 78.1351 117.793 76.788 118.01 74.3379C118.172 72.4547 117.666 70.7801 116.492 69.3144C115.249 67.8024 113.706 67.127 111.864 67.2881C107.973 67.6286 105.593 72.7774 104.726 82.7346C104.64 83.6963 104.561 84.5071 104.488 85.167C104.415 85.8269 104.343 86.343 104.271 86.7153C103.866 88.8158 103.255 89.9018 102.438 89.9733C102.101 90.0028 101.931 89.6975 101.927 89.0574L102.146 86.8619C102.162 86.5861 102.183 86.2378 102.212 85.8171C102.24 85.3963 102.276 84.9031 102.318 84.3374C102.37 83.7446 102.412 83.2443 102.441 82.8365C102.47 82.4158 102.498 82.0669 102.526 81.79C102.743 79.3399 103.039 77.3468 103.415 75.8109C104.12 72.9652 105.216 70.5493 106.702 68.5632C108.537 66.0891 110.681 64.7448 113.133 64.5304C115.403 64.3318 117.313 65.0992 118.863 66.8327C120.414 68.5791 121.088 70.6049 120.885 72.9101ZM124.664 74.4224C124.604 74.9373 124.394 75.4459 124.032 75.948C123.658 76.4513 123.212 76.7257 122.693 76.7711C121.811 76.8482 121.402 76.505 121.466 75.7413C121.518 75.2923 121.789 74.8111 122.28 74.2976C122.757 73.7723 123.223 73.4897 123.677 73.45C124.39 73.3876 124.719 73.7117 124.664 74.4224ZM123.072 79.5415C123.068 79.4896 122.817 80.5833 122.32 82.8226C122.178 83.7369 121.945 85.1101 121.622 86.9421C121.573 87.2732 121.341 87.6137 120.927 87.9636C120.499 88.3017 120.13 88.4843 119.818 88.5116C119.442 88.5445 119.286 88.0288 119.35 86.9645C119.427 86.1997 119.686 84.9091 120.129 83.0928C120.615 81.1812 121.004 79.9512 121.296 79.4028C121.622 78.7992 122.025 78.4764 122.505 78.4344C122.959 78.3947 123.148 78.7637 123.072 79.5415ZM132.169 78.8633C132.153 79.1261 131.986 79.389 131.669 79.652C131.353 79.915 131.064 80.0578 130.805 80.0805C130.675 80.0919 130.52 80.1055 130.338 80.1214C130.168 80.1232 129.96 80.1283 129.712 80.1369C129.242 80.1389 128.883 80.1506 128.637 80.1722C127.949 80.2323 127.319 80.4182 126.745 80.7299C127.103 80.9468 127.469 81.1632 127.841 81.379C128.211 81.5818 128.588 81.7841 128.972 81.9858C129.726 82.5342 130.065 83.2692 129.988 84.1908C129.891 85.3233 129.241 86.256 128.037 86.9887C127.017 87.5746 125.903 87.9204 124.697 88.0259C124.463 88.0464 123.995 87.9958 123.292 87.8744C122.604 87.7777 122.265 87.6375 122.275 87.4536C122.284 87.113 122.474 86.7434 122.844 86.3451C123.215 85.9467 123.571 85.6868 123.913 85.5653C124.182 85.5026 124.505 85.4548 124.881 85.4219L126.009 85.3231C126.139 85.3118 126.331 85.3342 126.584 85.3905C126.837 85.4468 127.029 85.4692 127.158 85.4579C127.249 85.4499 127.306 85.4319 127.33 85.4037C127.369 84.799 126.766 84.1916 125.524 83.5815C124.267 82.9595 123.668 82.391 123.728 81.8761C123.808 81.0064 124.624 80.0985 126.175 79.1524C127.594 78.3355 128.77 77.8862 129.704 77.8045C130.015 77.7773 130.5 77.8656 131.158 78.0694C131.846 78.3099 132.183 78.5745 132.169 78.8633ZM139.543 79.7866C139.506 80.1036 139.354 80.4632 139.089 80.8655C138.821 81.2418 138.544 81.4424 138.259 81.4674C138 81.4901 137.678 81.1784 137.295 80.5322C136.912 79.8861 136.389 79.592 135.728 79.6499C134.379 79.7679 133.654 80.4456 133.553 81.6831C133.47 82.383 133.644 83.0214 134.073 83.5981C134.503 84.1749 135.042 84.4349 135.69 84.3781C136.093 84.3429 136.537 84.1211 137.024 83.7125C137.523 83.2898 137.902 83.0671 138.162 83.0444C138.706 82.9967 138.95 83.2433 138.893 83.7842C138.876 84.0341 138.713 84.3424 138.405 84.7092C137.14 86.2315 135.774 87.0568 134.309 87.185C133.193 87.2826 132.298 86.91 131.623 86.0672C131.012 85.2057 130.762 84.2211 130.874 83.1134C131.007 81.7947 131.627 80.5118 132.734 79.2648C133.853 78.0167 135.068 77.3353 136.378 77.2207C137.286 77.1412 138.04 77.3171 138.639 77.7482C139.299 78.2656 139.6 78.9451 139.543 79.7866ZM144.237 72.7099C144.178 73.2249 143.967 73.7334 143.606 74.2356C143.232 74.7389 142.785 75.0132 142.266 75.0586C141.384 75.1358 140.975 74.7925 141.039 74.0288C141.091 73.5798 141.363 73.0986 141.854 72.5851C142.331 72.0598 142.796 71.7773 143.25 71.7375C143.964 71.6751 144.293 71.9992 144.237 72.7099ZM142.646 77.829C142.642 77.7771 142.391 78.8708 141.894 81.1102C141.752 82.0245 141.519 83.3976 141.196 85.2297C141.146 85.5608 140.915 85.9013 140.501 86.2511C140.073 86.5892 139.703 86.7719 139.392 86.7991C139.016 86.832 138.86 86.3163 138.923 85.252C139 84.4872 139.26 83.1966 139.702 81.3803C140.188 79.4687 140.578 78.2387 140.869 77.6904C141.196 77.0867 141.599 76.7639 142.079 76.7219C142.533 76.6822 142.722 77.0512 142.646 77.829ZM149.629 79.4335C149.567 80.2232 149.429 81.0326 149.214 81.8618C148.999 82.691 148.709 83.5594 148.344 84.467C147.896 85.4734 147.27 86.0118 146.466 86.0822C145.986 86.1242 145.763 85.8953 145.798 85.3956C145.841 84.9867 145.953 84.4737 146.134 83.8566C146.455 82.9004 146.613 82.3834 146.606 82.3056C146.681 81.9722 146.754 81.6064 146.824 81.2082C146.893 80.81 146.953 80.3735 147.003 79.8985C147.038 79.255 146.985 78.9395 146.842 78.952C146.232 79.0053 145.51 79.9377 144.675 81.7491C143.978 83.3394 143.593 84.5429 143.521 85.3596C143.504 85.6224 143.351 85.8842 143.06 86.1449C142.772 86.4445 142.505 86.6051 142.259 86.6267C142.077 86.6426 141.922 86.434 141.793 86.0009C141.652 85.5949 141.594 85.2994 141.617 85.1144C141.675 83.9852 142.151 82.63 143.045 81.0486C143.944 79.5192 144.878 78.3199 145.848 77.4508C146.76 76.6653 147.514 76.2464 148.11 76.1942C148.668 76.1454 149.095 76.5394 149.39 77.3762C149.608 78.076 149.688 78.7618 149.629 79.4335ZM155.044 78.803C155.057 78.658 154.992 78.5069 154.847 78.3496C154.715 78.1782 154.583 78.0982 154.454 78.1096C153.974 78.1516 153.4 78.6135 152.732 79.4954C152.159 80.2644 151.786 80.9309 151.613 81.495C153.867 80.0692 155.011 79.1718 155.044 78.803ZM158.188 82.4687C158.113 83.2594 157.218 84.0044 155.501 84.7035C154.173 85.2118 152.984 85.5119 151.933 85.6038C149.767 85.7934 148.767 84.9724 148.934 83.1411C149.04 81.8117 149.849 80.2312 151.362 78.3997C152.863 76.5823 154.275 75.6157 155.598 75.4999C156.169 75.45 156.655 75.6296 157.057 76.0389C157.473 76.46 157.648 76.9675 157.582 77.5614C157.459 79.1406 155.745 80.9114 152.439 82.8736C152.679 82.918 152.947 82.9272 153.246 82.9011C153.803 82.8523 154.558 82.6621 155.509 82.3305C156.589 81.9746 157.259 81.7853 157.518 81.7626C158.011 81.7195 158.234 81.9549 158.188 82.4687Z" fill="white"/>
<path d="M33.0625 125.125C32.3542 129.167 30.5208 132.76 27.5625 135.906C25.3958 138.198 22.6667 140.167 19.375 141.812C15.8958 143.562 12.8021 144.438 10.0938 144.438C5.36458 144.438 3.53125 141.521 4.59375 135.688C4.80208 134.458 5.125 133.135 5.5625 131.719C6.02083 130.302 6.58333 128.781 7.25 127.156C7.85417 125.76 8.45833 124.375 9.0625 123C9.6875 121.625 10.3125 120.219 10.9375 118.781C11.3333 117.781 11.7083 117.125 12.0625 116.812C12.5208 116.271 13.1771 115.948 14.0312 115.844L14.5625 116.438L14.5 116.844C14.4375 117.26 13.8333 118.76 12.6875 121.344C10.375 126.698 8.96875 130.823 8.46875 133.719C7.65625 138.365 8.90625 140.688 12.2188 140.688C15.6146 140.688 19.2708 139.104 23.1875 135.938C26.1875 133.5 28 130.448 28.625 126.781C29.2083 123.469 28.7396 120.344 27.2188 117.406C25.7396 114.469 23.5312 112.385 20.5938 111.156C18.4479 110.302 16.0104 109.875 13.2812 109.875C12.3229 109.875 10.9271 110.031 9.09375 110.344C8.15625 110.49 7.35417 110.604 6.6875 110.688C6.02083 110.75 5.47917 110.781 5.0625 110.781C4.04167 110.781 3.61458 110.406 3.78125 109.656C4.01042 108.26 5.79167 107.177 9.125 106.406C11.4792 105.823 13.7188 105.531 15.8438 105.531C22.3438 105.531 27.1562 107.615 30.2812 111.781C33.0729 115.594 34 120.042 33.0625 125.125ZM43.045 137.656C43.2117 136.615 42.92 135.615 42.17 134.656C41.42 133.698 40.5554 133.219 39.5763 133.219C38.0971 133.219 37.0971 134.656 36.5763 137.531C36.2638 139.49 36.8888 140.469 38.4513 140.469C39.3263 140.469 40.2325 140.219 41.17 139.719C42.2533 139.156 42.8783 138.469 43.045 137.656ZM47.7325 135.719C47.3158 138.01 45.8783 140.062 43.42 141.875C40.9408 143.667 38.5554 144.562 36.2638 144.562C34.7013 144.562 33.5971 144.104 32.9513 143.188C32.3054 142.271 32.1283 141.052 32.42 139.531C32.8367 137.135 33.9721 134.823 35.8263 132.594C37.9304 130.177 40.1179 128.969 42.3888 128.969C44.0763 128.969 45.4721 129.677 46.5763 131.094C47.6596 132.49 48.045 134.031 47.7325 135.719ZM65.965 140.844C65.8608 141.448 65.4129 142.083 64.6213 142.75C63.8504 143.396 63.1629 143.719 62.5588 143.719C61.8296 143.719 61.0275 142.354 60.1525 139.625C57.5483 142.917 54.965 144.562 52.4025 144.562C50.9442 144.562 49.9025 143.927 49.2775 142.656C48.7983 141.51 48.7046 140.167 48.9963 138.625C49.2046 137.438 50.0588 135.604 51.5588 133.125C53.2671 130.375 54.6004 129 55.5588 129C56.2671 129 56.5483 129.375 56.4025 130.125C56.2983 130.667 55.7775 131.729 54.84 133.312C54.3817 134.104 54.0171 134.812 53.7463 135.438C53.4754 136.042 53.2983 136.552 53.215 136.969C53.1108 137.76 53.1838 138.49 53.4338 139.156C53.7254 140.01 54.2046 140.438 54.8713 140.438C55.9754 140.438 57.0588 139.062 58.1213 136.312C59.3713 133.25 60.5796 131.406 61.7463 130.781C62.2254 130.49 62.6317 130.344 62.965 130.344C63.465 130.344 63.8088 130.625 63.9963 131.188C64.0588 131.333 64.2463 132.438 64.5588 134.5C64.7254 135.292 64.9338 136.188 65.1838 137.188C65.4338 138.167 65.7254 139.26 66.0588 140.469L65.965 140.844ZM82.3538 133.5C82.2496 134 81.9579 134.552 81.4788 135.156C80.9996 135.719 80.5308 136 80.0725 136C79.6558 136 79.1871 135.458 78.6663 134.375C78.1454 133.292 77.3538 132.75 76.2913 132.75C74.1246 132.75 72.8746 133.729 72.5413 135.688C72.3121 136.792 72.4996 137.833 73.1038 138.812C73.7079 139.792 74.5308 140.281 75.5725 140.281C76.2183 140.281 76.9579 139.99 77.7913 139.406C78.6454 138.802 79.2808 138.5 79.6975 138.5C80.5725 138.5 80.9267 138.927 80.76 139.781C80.6975 140.177 80.3954 140.646 79.8538 141.188C77.6246 143.438 75.3329 144.562 72.9788 144.562C71.1871 144.562 69.8121 143.844 68.8538 142.406C67.9996 140.948 67.7392 139.344 68.0725 137.594C68.4683 135.51 69.635 133.552 71.5725 131.719C73.5308 129.885 75.5621 128.969 77.6663 128.969C79.1246 128.969 80.3017 129.354 81.1975 130.125C82.1767 131.042 82.5621 132.167 82.3538 133.5ZM93.055 134.094C93.0967 133.865 93.0133 133.615 92.805 133.344C92.6175 133.052 92.4196 132.906 92.2113 132.906C91.4404 132.906 90.4613 133.562 89.2738 134.875C88.2529 136.021 87.5654 137.031 87.2113 137.906C91.0029 135.948 92.9508 134.677 93.055 134.094ZM97.555 140.375C97.3258 141.625 95.7946 142.688 92.9613 143.562C90.7738 144.188 88.8363 144.5 87.1488 144.5C83.6696 144.5 82.1904 143.052 82.7113 140.156C83.0654 138.052 84.5758 135.646 87.2425 132.938C89.8883 130.25 92.2738 128.906 94.3988 128.906C95.3154 128.906 96.0654 129.26 96.6488 129.969C97.2529 130.698 97.4613 131.531 97.2738 132.469C96.8571 134.969 93.8779 137.552 88.3363 140.219C88.7113 140.323 89.1383 140.375 89.6175 140.375C90.5133 140.375 91.7425 140.177 93.305 139.781C95.0758 139.365 96.1696 139.156 96.5863 139.156C97.3779 139.156 97.7008 139.562 97.555 140.375ZM115.85 140.844C115.746 141.448 115.298 142.083 114.506 142.75C113.735 143.396 113.048 143.719 112.444 143.719C111.715 143.719 110.912 142.354 110.037 139.625C107.433 142.917 104.85 144.562 102.287 144.562C100.829 144.562 99.7875 143.927 99.1625 142.656C98.6833 141.51 98.5896 140.167 98.8812 138.625C99.0896 137.438 99.9437 135.604 101.444 133.125C103.152 130.375 104.485 129 105.444 129C106.152 129 106.433 129.375 106.287 130.125C106.183 130.667 105.662 131.729 104.725 133.312C104.267 134.104 103.902 134.812 103.631 135.438C103.36 136.042 103.183 136.552 103.1 136.969C102.996 137.76 103.069 138.49 103.319 139.156C103.61 140.01 104.09 140.438 104.756 140.438C105.86 140.438 106.944 139.062 108.006 136.312C109.256 133.25 110.465 131.406 111.631 130.781C112.11 130.49 112.517 130.344 112.85 130.344C113.35 130.344 113.694 130.625 113.881 131.188C113.944 131.333 114.131 132.438 114.444 134.5C114.61 135.292 114.819 136.188 115.069 137.188C115.319 138.167 115.61 139.26 115.944 140.469L115.85 140.844ZM133.52 134.094C133.416 134.698 132.978 135.323 132.207 135.969C131.457 136.594 130.78 136.906 130.176 136.906C129.739 136.906 129.207 136.323 128.582 135.156C127.957 133.969 127.187 133.375 126.27 133.375C124.645 133.375 123.385 134.354 122.489 136.312C122.197 137.208 121.905 138.104 121.614 139C121.322 139.875 121.03 140.781 120.739 141.719C119.968 143.615 118.843 144.562 117.364 144.562C116.635 144.562 116.343 144.177 116.489 143.406C116.593 142.865 116.864 141.74 117.301 140.031C117.76 138.323 118.426 135.979 119.301 133C120.01 130.479 120.895 129.219 121.957 129.219C122.374 129.219 122.635 130 122.739 131.562C124.947 129.854 127.051 129 129.051 129C130.447 129 131.603 129.5 132.52 130.5C133.437 131.5 133.77 132.698 133.52 134.094Z" fill="url(#paint0_linear_1013_292)"/>
<path d="M157.016 143.031V142.656V143.031ZM189.485 119.938C188.86 123.5 187.079 126.396 184.141 128.625C181.245 130.833 177.964 131.938 174.298 131.938C170.423 131.938 167.61 131.052 165.86 129.281C165.61 129.031 165.527 128.708 165.61 128.312C165.693 127.688 166.131 127.042 166.923 126.375C167.714 125.708 168.433 125.375 169.079 125.375C169.12 125.375 169.318 125.427 169.673 125.531C172.548 126.927 174.975 127.625 176.954 127.625C181.433 127.625 184.016 125.688 184.704 121.812C185.225 118.833 184.652 116.094 182.985 113.594C181.214 111.01 178.85 109.719 175.891 109.719C169.641 109.719 165.131 117.594 162.36 133.344C162.089 134.865 161.85 136.146 161.641 137.188C161.433 138.229 161.245 139.042 161.079 139.625C160.141 142.917 159.016 144.562 157.704 144.562C157.162 144.562 156.933 144.052 157.016 143.031L157.673 139.562C157.735 139.125 157.818 138.573 157.923 137.906C158.027 137.24 158.152 136.458 158.298 135.562C158.464 134.625 158.6 133.833 158.704 133.188C158.808 132.521 158.902 131.969 158.985 131.531C159.673 127.656 160.423 124.521 161.235 122.125C162.756 117.688 164.839 113.99 167.485 111.031C170.756 107.344 174.36 105.5 178.298 105.5C181.943 105.5 184.881 106.99 187.11 109.969C189.339 112.969 190.131 116.292 189.485 119.938ZM197.217 122.875C197.051 123.688 196.645 124.469 195.999 125.219C195.332 125.969 194.582 126.344 193.749 126.344C192.332 126.344 191.728 125.74 191.936 124.531C192.082 123.823 192.582 123.094 193.436 122.344C194.27 121.573 195.051 121.188 195.78 121.188C196.926 121.188 197.405 121.75 197.217 122.875ZM193.967 130.812C193.967 130.729 193.415 132.438 192.311 135.938C191.957 137.375 191.395 139.531 190.624 142.406C190.499 142.927 190.082 143.438 189.374 143.938C188.645 144.417 188.03 144.656 187.53 144.656C186.926 144.656 186.749 143.812 186.999 142.125C187.228 140.917 187.822 138.896 188.78 136.062C189.822 133.083 190.613 131.177 191.155 130.344C191.759 129.427 192.447 128.969 193.217 128.969C193.947 128.969 194.197 129.583 193.967 130.812ZM210.481 131C210.419 131.417 210.117 131.812 209.575 132.188C209.033 132.562 208.554 132.75 208.137 132.75C207.929 132.75 207.679 132.75 207.387 132.75C207.117 132.729 206.783 132.708 206.387 132.688C205.637 132.625 205.065 132.594 204.669 132.594C203.565 132.594 202.533 132.802 201.575 133.219C202.117 133.615 202.669 134.01 203.231 134.406C203.794 134.781 204.367 135.156 204.95 135.531C206.075 136.51 206.512 137.729 206.262 139.188C205.95 140.979 204.783 142.375 202.762 143.375C201.054 144.167 199.231 144.562 197.294 144.562C196.919 144.562 196.179 144.417 195.075 144.125C193.992 143.875 193.471 143.604 193.512 143.312C193.575 142.771 193.929 142.208 194.575 141.625C195.221 141.042 195.825 140.677 196.387 140.531C196.825 140.469 197.346 140.438 197.95 140.438H199.762C199.971 140.438 200.273 140.5 200.669 140.625C201.065 140.75 201.367 140.812 201.575 140.812C201.721 140.812 201.815 140.792 201.856 140.75C202.002 139.792 201.127 138.74 199.231 137.594C197.315 136.427 196.44 135.438 196.606 134.625C196.856 133.25 198.283 131.917 200.887 130.625C203.262 129.521 205.2 128.969 206.7 128.969C207.2 128.969 207.96 129.177 208.981 129.594C210.044 130.073 210.544 130.542 210.481 131ZM224.026 133.5C223.922 134 223.63 134.552 223.151 135.156C222.672 135.719 222.203 136 221.745 136C221.328 136 220.86 135.458 220.339 134.375C219.818 133.292 219.026 132.75 217.964 132.75C215.797 132.75 214.547 133.729 214.214 135.688C213.985 136.792 214.172 137.833 214.776 138.812C215.38 139.792 216.203 140.281 217.245 140.281C217.891 140.281 218.63 139.99 219.464 139.406C220.318 138.802 220.953 138.5 221.37 138.5C222.245 138.5 222.599 138.927 222.432 139.781C222.37 140.177 222.068 140.646 221.526 141.188C219.297 143.438 217.005 144.562 214.651 144.562C212.86 144.562 211.485 143.844 210.526 142.406C209.672 140.948 209.412 139.344 209.745 137.594C210.141 135.51 211.307 133.552 213.245 131.719C215.203 129.885 217.235 128.969 219.339 128.969C220.797 128.969 221.974 129.354 222.87 130.125C223.849 131.042 224.235 132.167 224.026 133.5ZM234.415 122.875C234.248 123.688 233.842 124.469 233.196 125.219C232.53 125.969 231.78 126.344 230.946 126.344C229.53 126.344 228.925 125.74 229.134 124.531C229.28 123.823 229.78 123.094 230.634 122.344C231.467 121.573 232.248 121.188 232.977 121.188C234.123 121.188 234.602 121.75 234.415 122.875ZM231.165 130.812C231.165 130.729 230.613 132.438 229.509 135.938C229.155 137.375 228.592 139.531 227.821 142.406C227.696 142.927 227.28 143.438 226.571 143.938C225.842 144.417 225.227 144.656 224.727 144.656C224.123 144.656 223.946 143.812 224.196 142.125C224.425 140.917 225.019 138.896 225.977 136.062C227.019 133.083 227.811 131.177 228.352 130.344C228.957 129.427 229.644 128.969 230.415 128.969C231.144 128.969 231.394 129.583 231.165 130.812ZM243.991 134.344C243.783 135.594 243.45 136.865 242.991 138.156C242.533 139.448 241.95 140.792 241.241 142.188C240.387 143.729 239.314 144.5 238.023 144.5C237.252 144.5 236.929 144.104 237.054 143.312C237.179 142.667 237.429 141.865 237.804 140.906C238.45 139.427 238.773 138.625 238.773 138.5C238.939 137.979 239.106 137.406 239.273 136.781C239.439 136.156 239.595 135.469 239.741 134.719C239.887 133.698 239.845 133.188 239.616 133.188C238.637 133.188 237.356 134.573 235.773 137.344C234.439 139.781 233.658 141.646 233.429 142.938C233.366 143.354 233.085 143.75 232.585 144.125C232.085 144.562 231.637 144.781 231.241 144.781C230.95 144.781 230.731 144.427 230.585 143.719C230.418 143.052 230.366 142.573 230.429 142.281C230.679 140.49 231.627 138.396 233.273 136C234.918 133.688 236.575 131.906 238.241 130.656C239.804 129.531 241.064 128.969 242.023 128.969C242.918 128.969 243.543 129.656 243.898 131.031C244.148 132.177 244.179 133.281 243.991 134.344ZM254.63 134.094C254.672 133.865 254.588 133.615 254.38 133.344C254.193 133.052 253.995 132.906 253.786 132.906C253.015 132.906 252.036 133.562 250.849 134.875C249.828 136.021 249.14 137.031 248.786 137.906C252.578 135.948 254.526 134.677 254.63 134.094ZM259.13 140.375C258.901 141.625 257.37 142.688 254.536 143.562C252.349 144.188 250.411 144.5 248.724 144.5C245.245 144.5 243.765 143.052 244.286 140.156C244.64 138.052 246.151 135.646 248.818 132.938C251.463 130.25 253.849 128.906 255.974 128.906C256.89 128.906 257.64 129.26 258.224 129.969C258.828 130.698 259.036 131.531 258.849 132.469C258.432 134.969 255.453 137.552 249.911 140.219C250.286 140.323 250.713 140.375 251.193 140.375C252.088 140.375 253.318 140.177 254.88 139.781C256.651 139.365 257.745 139.156 258.161 139.156C258.953 139.156 259.276 139.562 259.13 140.375Z" fill="url(#paint1_linear_1013_292)"/>
<defs>
<linearGradient id="paint0_linear_1013_292" x1="7" y1="130" x2="268.5" y2="130" gradientUnits="userSpaceOnUse">
<stop offset="0.463542" stop-color="#F20089"/>
<stop offset="0.578125" stop-color="#38BDF8"/>
<stop offset="1" stop-color="#89CEE9"/>
</linearGradient>
<linearGradient id="paint1_linear_1013_292" x1="7" y1="130" x2="268.5" y2="130" gradientUnits="userSpaceOnUse">
<stop offset="0.463542" stop-color="#F20089"/>
<stop offset="0.578125" stop-color="#38BDF8"/>
</linearGradient>
</defs>
</svg>
