<svg width="325" height="102" viewBox="0 0 325 102" fill="none" xmlns="http://www.w3.org/2000/svg">
<path d="M238.132 65.1826V64.8662V65.1826ZM265.527 45.6973C265 48.7031 263.497 51.1465 261.019 53.0273C258.575 54.8906 255.807 55.8223 252.713 55.8223C249.443 55.8223 247.07 55.0752 245.594 53.5811C245.383 53.3701 245.312 53.0977 245.383 52.7637C245.453 52.2363 245.822 51.6914 246.49 51.1289C247.158 50.5664 247.765 50.2852 248.31 50.2852C248.345 50.2852 248.512 50.3291 248.811 50.417C251.236 51.5947 253.284 52.1836 254.954 52.1836C258.733 52.1836 260.913 50.5488 261.493 47.2793C261.933 44.7656 261.449 42.4541 260.043 40.3447C258.549 38.165 256.554 37.0752 254.058 37.0752C248.784 37.0752 244.979 43.7197 242.641 57.0088C242.412 58.292 242.21 59.373 242.034 60.252C241.858 61.1309 241.7 61.8164 241.56 62.3086C240.769 65.0859 239.819 66.4746 238.712 66.4746C238.255 66.4746 238.062 66.0439 238.132 65.1826L238.686 62.2559C238.738 61.8867 238.809 61.4209 238.896 60.8584C238.984 60.2959 239.09 59.6367 239.213 58.8809C239.354 58.0898 239.468 57.4219 239.556 56.877C239.644 56.3145 239.723 55.8486 239.793 55.4795C240.373 52.21 241.006 49.5645 241.691 47.543C242.975 43.7988 244.732 40.6787 246.965 38.1826C249.725 35.0713 252.766 33.5156 256.088 33.5156C259.164 33.5156 261.643 34.7725 263.523 37.2861C265.404 39.8174 266.072 42.6211 265.527 45.6973ZM272.052 48.1758C271.911 48.8613 271.568 49.5205 271.023 50.1533C270.461 50.7861 269.828 51.1025 269.125 51.1025C267.93 51.1025 267.42 50.5928 267.596 49.5732C267.719 48.9756 268.141 48.3604 268.861 47.7275C269.564 47.0771 270.224 46.752 270.839 46.752C271.806 46.752 272.21 47.2266 272.052 48.1758ZM269.309 54.873C269.309 54.8027 268.844 56.2441 267.912 59.1973C267.613 60.4102 267.139 62.2295 266.488 64.6553C266.383 65.0947 266.031 65.5254 265.433 65.9473C264.818 66.3516 264.3 66.5537 263.878 66.5537C263.368 66.5537 263.219 65.8418 263.43 64.418C263.623 63.3984 264.124 61.6934 264.933 59.3027C265.811 56.7891 266.479 55.1807 266.936 54.4775C267.446 53.7041 268.026 53.3174 268.677 53.3174C269.292 53.3174 269.503 53.8359 269.309 54.873ZM283.243 55.0312C283.19 55.3828 282.935 55.7168 282.478 56.0332C282.021 56.3496 281.617 56.5078 281.265 56.5078C281.09 56.5078 280.879 56.5078 280.633 56.5078C280.404 56.4902 280.123 56.4727 279.789 56.4551C279.156 56.4023 278.673 56.376 278.339 56.376C277.407 56.376 276.537 56.5518 275.728 56.9033C276.185 57.2373 276.651 57.5713 277.126 57.9053C277.6 58.2217 278.084 58.5381 278.576 58.8545C279.525 59.6807 279.894 60.709 279.683 61.9395C279.42 63.4512 278.435 64.6289 276.73 65.4727C275.289 66.1406 273.751 66.4746 272.116 66.4746C271.8 66.4746 271.176 66.3516 270.244 66.1055C269.33 65.8945 268.89 65.666 268.926 65.4199C268.978 64.9629 269.277 64.4883 269.822 63.9961C270.367 63.5039 270.877 63.1963 271.351 63.0732C271.72 63.0205 272.16 62.9941 272.67 62.9941H274.199C274.375 62.9941 274.63 63.0469 274.964 63.1523C275.298 63.2578 275.552 63.3105 275.728 63.3105C275.851 63.3105 275.93 63.293 275.966 63.2578C276.089 62.4492 275.35 61.5615 273.751 60.5947C272.134 59.6104 271.395 58.7754 271.536 58.0898C271.747 56.9297 272.951 55.8047 275.148 54.7148C277.152 53.7832 278.787 53.3174 280.052 53.3174C280.474 53.3174 281.116 53.4932 281.977 53.8447C282.874 54.249 283.296 54.6445 283.243 55.0312ZM294.672 57.1406C294.584 57.5625 294.338 58.0283 293.933 58.5381C293.529 59.0127 293.133 59.25 292.747 59.25C292.395 59.25 292 58.793 291.56 57.8789C291.121 56.9648 290.453 56.5078 289.556 56.5078C287.728 56.5078 286.673 57.334 286.392 58.9863C286.199 59.918 286.357 60.7969 286.867 61.623C287.377 62.4492 288.071 62.8623 288.95 62.8623C289.495 62.8623 290.119 62.6162 290.822 62.124C291.543 61.6143 292.079 61.3594 292.43 61.3594C293.169 61.3594 293.467 61.7197 293.327 62.4404C293.274 62.7744 293.019 63.1699 292.562 63.627C290.681 65.5254 288.748 66.4746 286.761 66.4746C285.25 66.4746 284.089 65.8682 283.281 64.6553C282.56 63.4248 282.34 62.0713 282.622 60.5947C282.956 58.8369 283.94 57.1846 285.575 55.6377C287.227 54.0908 288.941 53.3174 290.716 53.3174C291.947 53.3174 292.94 53.6426 293.696 54.293C294.522 55.0664 294.847 56.0156 294.672 57.1406ZM303.437 48.1758C303.296 48.8613 302.954 49.5205 302.409 50.1533C301.846 50.7861 301.213 51.1025 300.51 51.1025C299.315 51.1025 298.805 50.5928 298.981 49.5732C299.104 48.9756 299.526 48.3604 300.247 47.7275C300.95 47.0771 301.609 46.752 302.224 46.752C303.191 46.752 303.595 47.2266 303.437 48.1758ZM300.695 54.873C300.695 54.8027 300.229 56.2441 299.297 59.1973C298.999 60.4102 298.524 62.2295 297.874 64.6553C297.768 65.0947 297.417 65.5254 296.819 65.9473C296.204 66.3516 295.685 66.5537 295.263 66.5537C294.753 66.5537 294.604 65.8418 294.815 64.418C295.008 63.3984 295.509 61.6934 296.318 59.3027C297.197 56.7891 297.865 55.1807 298.322 54.4775C298.832 53.7041 299.412 53.3174 300.062 53.3174C300.677 53.3174 300.888 53.8359 300.695 54.873ZM311.517 57.8525C311.341 58.9072 311.06 59.9795 310.673 61.0693C310.287 62.1592 309.794 63.293 309.197 64.4707C308.476 65.7715 307.571 66.4219 306.481 66.4219C305.83 66.4219 305.558 66.0879 305.663 65.4199C305.769 64.875 305.98 64.1982 306.296 63.3896C306.841 62.1416 307.114 61.4648 307.114 61.3594C307.254 60.9199 307.395 60.4365 307.536 59.9092C307.676 59.3818 307.808 58.8018 307.931 58.1689C308.054 57.3076 308.019 56.877 307.826 56.877C306.999 56.877 305.918 58.0459 304.582 60.3838C303.457 62.4404 302.798 64.0137 302.605 65.1035C302.552 65.4551 302.315 65.7891 301.893 66.1055C301.471 66.4746 301.093 66.6592 300.759 66.6592C300.513 66.6592 300.329 66.3604 300.205 65.7627C300.065 65.2002 300.021 64.7959 300.074 64.5498C300.285 63.0381 301.084 61.2715 302.473 59.25C303.862 57.2988 305.259 55.7959 306.665 54.7412C307.984 53.792 309.047 53.3174 309.856 53.3174C310.612 53.3174 311.139 53.8975 311.438 55.0576C311.649 56.0244 311.675 56.9561 311.517 57.8525ZM320.493 57.6416C320.529 57.4482 320.458 57.2373 320.283 57.0088C320.124 56.7627 319.957 56.6396 319.782 56.6396C319.131 56.6396 318.305 57.1934 317.303 58.3008C316.442 59.2676 315.862 60.1201 315.563 60.8584C318.762 59.2061 320.406 58.1338 320.493 57.6416ZM324.29 62.9414C324.097 63.9961 322.805 64.8926 320.414 65.6309C318.569 66.1582 316.934 66.4219 315.51 66.4219C312.574 66.4219 311.326 65.2002 311.766 62.7568C312.065 60.9814 313.339 58.9512 315.589 56.666C317.822 54.3984 319.834 53.2646 321.627 53.2646C322.401 53.2646 323.033 53.5635 323.526 54.1611C324.035 54.7764 324.211 55.4795 324.053 56.2705C323.701 58.3799 321.188 60.5596 316.512 62.8096C316.828 62.8975 317.189 62.9414 317.593 62.9414C318.349 62.9414 319.386 62.7744 320.704 62.4404C322.199 62.0889 323.121 61.9131 323.473 61.9131C324.141 61.9131 324.413 62.2559 324.29 62.9414Z" fill="#6FD1FA"/>
<path d="M141.896 50.0742C141.299 53.4844 139.752 56.5166 137.256 59.1709C135.428 61.1045 133.125 62.7656 130.348 64.1543C127.412 65.6309 124.802 66.3691 122.517 66.3691C118.526 66.3691 116.979 63.9082 117.876 58.9863C118.052 57.9492 118.324 56.833 118.693 55.6377C119.08 54.4424 119.555 53.1592 120.117 51.7881C120.627 50.6104 121.137 49.4414 121.646 48.2812C122.174 47.1211 122.701 45.9346 123.229 44.7217C123.562 43.8779 123.879 43.3242 124.178 43.0605C124.564 42.6035 125.118 42.3311 125.839 42.2432L126.287 42.7441L126.234 43.0869C126.182 43.4385 125.672 44.7041 124.705 46.8838C122.754 51.4014 121.567 54.8818 121.146 57.3252C120.46 61.2451 121.515 63.2051 124.31 63.2051C127.175 63.2051 130.26 61.8691 133.564 59.1973C136.096 57.1406 137.625 54.5654 138.152 51.4717C138.645 48.6768 138.249 46.04 136.966 43.5615C135.718 41.083 133.854 39.3252 131.376 38.2881C129.565 37.5674 127.509 37.207 125.206 37.207C124.397 37.207 123.22 37.3389 121.673 37.6025C120.882 37.7256 120.205 37.8223 119.643 37.8926C119.08 37.9453 118.623 37.9717 118.271 37.9717C117.41 37.9717 117.05 37.6553 117.19 37.0225C117.384 35.8447 118.887 34.9307 121.699 34.2803C123.686 33.7881 125.575 33.542 127.368 33.542C132.853 33.542 136.913 35.2998 139.55 38.8154C141.905 42.0322 142.688 45.7852 141.896 50.0742ZM150.319 60.6475C150.46 59.7686 150.214 58.9248 149.581 58.1162C148.948 57.3076 148.219 56.9033 147.392 56.9033C146.144 56.9033 145.301 58.1162 144.861 60.542C144.598 62.1943 145.125 63.0205 146.443 63.0205C147.182 63.0205 147.946 62.8096 148.737 62.3877C149.651 61.9131 150.179 61.333 150.319 60.6475ZM154.274 59.0127C153.923 60.9463 152.71 62.6777 150.636 64.207C148.544 65.7188 146.531 66.4746 144.598 66.4746C143.279 66.4746 142.348 66.0879 141.803 65.3145C141.258 64.541 141.108 63.5127 141.354 62.2295C141.706 60.208 142.664 58.2568 144.228 56.376C146.004 54.3369 147.849 53.3174 149.766 53.3174C151.189 53.3174 152.367 53.915 153.299 55.1104C154.213 56.2881 154.538 57.5889 154.274 59.0127ZM169.658 63.3369C169.57 63.8467 169.192 64.3828 168.524 64.9453C167.874 65.4902 167.294 65.7627 166.784 65.7627C166.169 65.7627 165.492 64.6113 164.754 62.3086C162.556 65.0859 160.377 66.4746 158.215 66.4746C156.984 66.4746 156.105 65.9385 155.578 64.8662C155.174 63.8994 155.094 62.7656 155.341 61.4648C155.516 60.4629 156.237 58.916 157.503 56.8242C158.944 54.5039 160.069 53.3438 160.878 53.3438C161.475 53.3438 161.713 53.6602 161.59 54.293C161.502 54.75 161.062 55.6465 160.271 56.9824C159.885 57.6504 159.577 58.248 159.348 58.7754C159.12 59.2852 158.97 59.7158 158.9 60.0674C158.812 60.7354 158.874 61.3506 159.085 61.9131C159.331 62.6338 159.735 62.9941 160.298 62.9941C161.229 62.9941 162.143 61.834 163.04 59.5137C164.094 56.9297 165.114 55.374 166.098 54.8467C166.503 54.6006 166.845 54.4775 167.127 54.4775C167.549 54.4775 167.839 54.7148 167.997 55.1895C168.05 55.3125 168.208 56.2441 168.471 57.9844C168.612 58.6523 168.788 59.4082 168.999 60.252C169.21 61.0781 169.456 62.001 169.737 63.0205L169.658 63.3369ZM183.486 57.1406C183.398 57.5625 183.152 58.0283 182.748 58.5381C182.343 59.0127 181.948 59.25 181.561 59.25C181.21 59.25 180.814 58.793 180.375 57.8789C179.935 56.9648 179.267 56.5078 178.371 56.5078C176.543 56.5078 175.488 57.334 175.207 58.9863C175.013 59.918 175.172 60.7969 175.681 61.623C176.191 62.4492 176.885 62.8623 177.764 62.8623C178.309 62.8623 178.933 62.6162 179.636 62.124C180.357 61.6143 180.893 61.3594 181.245 61.3594C181.983 61.3594 182.282 61.7197 182.141 62.4404C182.089 62.7744 181.834 63.1699 181.377 63.627C179.496 65.5254 177.562 66.4746 175.576 66.4746C174.064 66.4746 172.904 65.8682 172.095 64.6553C171.375 63.4248 171.155 62.0713 171.436 60.5947C171.77 58.8369 172.755 57.1846 174.389 55.6377C176.042 54.0908 177.756 53.3174 179.531 53.3174C180.761 53.3174 181.755 53.6426 182.51 54.293C183.337 55.0664 183.662 56.0156 183.486 57.1406ZM192.515 57.6416C192.55 57.4482 192.48 57.2373 192.304 57.0088C192.146 56.7627 191.979 56.6396 191.803 56.6396C191.153 56.6396 190.327 57.1934 189.325 58.3008C188.463 59.2676 187.883 60.1201 187.584 60.8584C190.784 59.2061 192.427 58.1338 192.515 57.6416ZM196.312 62.9414C196.119 63.9961 194.827 64.8926 192.436 65.6309C190.59 66.1582 188.956 66.4219 187.532 66.4219C184.596 66.4219 183.348 65.2002 183.788 62.7568C184.086 60.9814 185.361 58.9512 187.611 56.666C189.843 54.3984 191.856 53.2646 193.649 53.2646C194.422 53.2646 195.055 53.5635 195.547 54.1611C196.057 54.7764 196.233 55.4795 196.075 56.2705C195.723 58.3799 193.209 60.5596 188.534 62.8096C188.85 62.8975 189.21 62.9414 189.615 62.9414C190.371 62.9414 191.408 62.7744 192.726 62.4404C194.22 62.0889 195.143 61.9131 195.495 61.9131C196.163 61.9131 196.435 62.2559 196.312 62.9414ZM211.748 63.3369C211.661 63.8467 211.283 64.3828 210.615 64.9453C209.964 65.4902 209.384 65.7627 208.874 65.7627C208.259 65.7627 207.582 64.6113 206.844 62.3086C204.647 65.0859 202.467 66.4746 200.305 66.4746C199.075 66.4746 198.196 65.9385 197.668 64.8662C197.264 63.8994 197.185 62.7656 197.431 61.4648C197.607 60.4629 198.328 58.916 199.593 56.8242C201.035 54.5039 202.16 53.3438 202.968 53.3438C203.566 53.3438 203.803 53.6602 203.68 54.293C203.592 54.75 203.153 55.6465 202.362 56.9824C201.975 57.6504 201.667 58.248 201.439 58.7754C201.21 59.2852 201.061 59.7158 200.991 60.0674C200.903 60.7354 200.964 61.3506 201.175 61.9131C201.421 62.6338 201.826 62.9941 202.388 62.9941C203.32 62.9941 204.234 61.834 205.13 59.5137C206.185 56.9297 207.204 55.374 208.189 54.8467C208.593 54.6006 208.936 54.4775 209.217 54.4775C209.639 54.4775 209.929 54.7148 210.087 55.1895C210.14 55.3125 210.298 56.2441 210.562 57.9844C210.703 58.6523 210.878 59.4082 211.089 60.252C211.3 61.0781 211.546 62.001 211.828 63.0205L211.748 63.3369ZM226.658 57.6416C226.57 58.1514 226.2 58.6787 225.55 59.2236C224.917 59.751 224.346 60.0146 223.836 60.0146C223.467 60.0146 223.019 59.5225 222.491 58.5381C221.964 57.5361 221.314 57.0352 220.54 57.0352C219.169 57.0352 218.106 57.8613 217.35 59.5137C217.104 60.2695 216.858 61.0254 216.612 61.7812C216.366 62.5195 216.119 63.2842 215.873 64.0752C215.223 65.6748 214.274 66.4746 213.026 66.4746C212.41 66.4746 212.164 66.1494 212.287 65.499C212.375 65.042 212.604 64.0928 212.973 62.6514C213.36 61.21 213.922 59.2324 214.66 56.7188C215.258 54.5918 216.005 53.5283 216.902 53.5283C217.253 53.5283 217.473 54.1875 217.561 55.5059C219.424 54.0645 221.199 53.3438 222.887 53.3438C224.065 53.3438 225.04 53.7656 225.814 54.6094C226.587 55.4531 226.868 56.4639 226.658 57.6416Z" fill="#F20088"/>
<path fill-rule="evenodd" clip-rule="evenodd" d="M51.4764 0.196655C73.8696 0.196655 92.7543 14.1451 98.6039 33.1958L98.6687 33.1963C98.6839 33.2329 98.6991 33.2696 98.7143 33.3063C99.4392 35.0569 100.197 37.549 100.987 40.7827C99.4833 39.8747 97.9483 39.5391 96.3826 39.776C92.0524 40.4312 86.8888 44.6393 84.5759 44.5778C80.4794 44.4689 76.602 42.3051 73.279 42.3051C73.112 42.3051 72.1341 42.6155 71.983 42.6326C71.0431 42.7391 69.4713 43.6497 67.9102 44.6369L67.3266 45.0093C65.5847 46.1287 63.958 47.2302 63.3616 47.278C61.6519 47.4152 60.5736 46.6779 59.1183 46.23C58.7578 46.1191 58.3932 46.0052 58.0274 45.8914L57.2955 45.6651C55.1008 44.9926 52.941 44.4026 51.4761 44.5778C47.1649 45.0933 41.9794 50.2907 39.8401 50.4624C39.1431 50.5183 38.773 50.5408 38.5958 50.544L38.5175 50.5439C38.3959 50.5403 38.4748 50.5169 38.5799 50.4922L38.6443 50.4775C38.8277 50.4362 38.9876 50.4016 38.2884 50.4624C38.1497 50.3794 36.5067 49.7211 34.8506 49.0664L34.3002 48.8491C32.8418 48.2742 31.504 47.7528 31.3339 47.6917C30.4384 47.3695 29.2564 47.3031 28.604 47.278C28.4808 47.2733 28.3807 47.2686 28.297 47.2643L28.0883 47.2532C27.8578 47.241 27.7828 47.2414 27.4353 47.278C26.2264 47.4053 25.0404 48.19 24.0255 49.1639C22.8653 50.2772 19.8978 52.6998 17.7508 52.9233C13.8165 53.3329 9.91561 49.3012 7.12235 49.5397C3.7277 49.8296 2.93708 50.6634 1.78354 51.1967C1.42081 51.3643 1.16558 51.5018 1.01785 51.6091L1.0127 51.6124L1.05532 51.254C2.09063 42.686 3.17813 36.6664 4.31783 33.1954L4.3487 33.1947L4.52804 32.6268C10.5759 13.868 29.3068 0.196655 51.4764 0.196655Z" fill="#CF0B7C"/>
<path fill-rule="evenodd" clip-rule="evenodd" d="M50.4355 101.803C28.0424 101.803 9.15763 87.8549 3.30808 68.8042L3.24326 68.8037C3.22806 68.7671 3.21286 68.7304 3.19765 68.6937C2.4728 66.9431 1.59508 64.1181 0.564499 60.2184C2.76175 58.9811 4.64323 58.244 6.20894 58.0071C10.5392 57.352 14.0237 60.7166 16.3367 60.7781C20.4332 60.887 25.7044 55.3231 29.0274 55.3231C32.3503 55.3231 34.2882 56.6384 34.42 56.6807C36.7307 57.4222 38.5603 58.1029 39.7531 58.0071C40.1992 57.9713 41.5144 57.7958 42.2709 57.4222C44.4133 56.3643 45.751 55.9202 47.7556 54.722C49.7603 53.5237 52.0103 52.8033 52.9773 52.8033C53.9444 52.8033 54.6879 52.9666 55.6326 53.5237C57.7165 54.7528 60.9573 56.0978 62.0718 55.9883C63.1713 55.8803 66.0369 53.8754 66.6268 53.5237C69.5982 51.7521 71.6628 50.2775 73.308 50.1344C73.4376 50.2119 76.1384 50.4065 78.5582 51.0474C81.3186 51.7786 83.8911 52.9554 84.9756 52.8361C88.3924 52.4603 93.6981 49.0278 95.2732 48.2115C96.5734 47.5377 98.6276 48.1786 101.436 50.1344C100.564 58.7606 99.283 64.947 97.5921 68.6937L97.5435 68.8033L97.5633 68.8032C91.7141 87.8544 72.8291 101.803 50.4355 101.803Z" fill="#89CDE9"/>
<path d="M34.9809 26.3476C34.7287 28.7709 33.7917 30.9754 32.1697 32.9612C30.9813 34.4083 29.4464 35.6874 27.5649 36.7986C25.5766 37.9792 23.7804 38.6256 22.1763 38.7378C19.3752 38.9337 18.1685 37.2821 18.5562 33.7829C18.6287 33.0463 18.7652 32.2493 18.9656 31.3921C19.1784 30.534 19.4486 29.6099 19.7762 28.6198C20.0762 27.7681 20.3767 26.9224 20.6776 26.083C20.9908 25.2427 21.3028 24.3839 21.6134 23.5066C21.8064 22.8979 22.0014 22.4936 22.1982 22.2939C22.4472 21.9541 22.8226 21.7356 23.3242 21.6385L23.6634 21.9682L23.6432 22.2114C23.6235 22.4608 23.3278 23.3743 22.7561 24.9519C21.6081 28.2189 20.9461 30.7204 20.7698 32.4564C20.481 35.2417 21.3176 36.5658 23.2796 36.4287C25.291 36.288 27.391 35.1988 29.5797 33.1609C31.2557 31.5929 32.2028 29.7101 32.4211 27.5124C32.6294 25.5262 32.2224 23.6947 31.1999 22.0178C30.2021 20.3392 28.8078 19.1967 27.017 18.5903C25.7107 18.1733 24.2492 18.0213 22.6327 18.1343C22.0651 18.174 21.2448 18.3243 20.1719 18.5854C19.6226 18.7106 19.1523 18.8117 18.7609 18.8886C18.3686 18.9533 18.0491 18.9942 17.8023 19.0115C17.1976 19.0537 16.9291 18.8493 16.9968 18.3982C17.0747 17.5619 18.0849 16.8465 20.0273 16.2519C21.3975 15.8089 22.712 15.5433 23.9706 15.4553C27.8206 15.1861 30.7573 16.2208 32.7809 18.5593C34.5923 20.7018 35.3256 23.2979 34.9809 26.3476ZM40.2753 33.436C40.3309 32.8121 40.1167 32.2319 39.6328 31.6953C39.1489 31.1588 38.617 30.9108 38.037 30.9513C37.1609 31.0126 36.6281 31.9054 36.4387 33.6299C36.3347 34.8028 36.7455 35.3568 37.6709 35.2921C38.1892 35.2559 38.7156 35.0703 39.2502 34.7353C39.8686 34.3572 40.2103 33.9241 40.2753 33.436ZM42.9715 32.0943C42.8196 33.4689 42.0532 34.7439 40.6722 35.9192C39.278 37.0831 37.9022 37.7125 36.5448 37.8075C35.6193 37.8722 34.9464 37.6464 34.5259 37.1302C34.1054 36.614 33.95 35.8995 34.0598 34.9866C34.2073 33.5503 34.7841 32.1336 35.79 30.7364C36.9362 29.2179 38.1818 28.4116 39.5268 28.3175C40.5263 28.2476 41.3824 28.6094 42.0951 29.4027C42.7946 30.1846 43.0867 31.0818 42.9715 32.0943ZM52.8457 34.4542C52.8091 34.8164 52.5701 35.2113 52.1288 35.6389C51.699 36.0534 51.3051 36.2731 50.9473 36.2981C50.5154 36.3283 49.9838 35.5533 49.3525 33.9731C47.9464 36.0306 46.4844 37.1124 44.9666 37.2185C44.1029 37.2789 43.4596 36.9457 43.0367 36.2189C42.7055 35.5601 42.5943 34.768 42.7032 33.8428C42.7774 33.1308 43.2074 32.0096 43.9932 30.479C44.8911 28.7794 45.6239 27.9098 46.1915 27.8701C46.6111 27.8408 46.7932 28.0512 46.7379 28.5015C46.6986 28.8266 46.4341 29.4775 45.9444 30.4542C45.7057 30.9421 45.5191 31.3767 45.3846 31.7581C45.2492 32.1272 45.1655 32.4368 45.1334 32.6871C45.1045 33.1603 45.1778 33.5892 45.3535 33.9737C45.5617 34.4675 45.8632 34.7007 46.258 34.673C46.912 34.6273 47.4968 33.768 48.0122 32.0952C48.6257 30.2295 49.2651 29.0874 49.9302 28.6689C50.2019 28.4763 50.4365 28.3731 50.6339 28.3593C50.9301 28.3385 51.1453 28.4909 51.2797 28.8163C51.3228 28.9001 51.4795 29.5463 51.7501 30.755C51.8816 31.217 52.0421 31.739 52.2316 32.3209C52.4202 32.8905 52.6382 33.5263 52.8857 34.2282L52.8457 34.4542ZM61.1115 29.5052C61.0705 29.8057 60.9206 30.1447 60.6618 30.5224C60.4013 30.8755 60.1353 31.0615 59.8638 31.0804C59.617 31.0977 59.3169 30.7963 58.9636 30.1762C58.6102 29.5561 58.1189 29.2681 57.4896 29.3121C56.2062 29.4018 55.5064 30.0335 55.3901 31.2073C55.3001 31.8708 55.4543 32.48 55.8527 33.0349C56.2511 33.5899 56.7588 33.8458 57.3758 33.8026C57.7583 33.7759 58.1843 33.5725 58.6537 33.1925C59.1346 32.7992 59.4985 32.594 59.7452 32.5767C60.2635 32.5405 60.491 32.7788 60.4276 33.2916C60.407 33.5287 60.2475 33.8188 59.9491 34.1621C58.722 35.5871 57.4112 36.3483 56.0168 36.4458C54.9556 36.5201 54.1114 36.1513 53.4842 35.3395C52.9179 34.5111 52.6972 33.5718 52.8222 32.5214C52.9703 31.2711 53.5803 30.0628 54.6519 28.8967C55.7359 27.7297 56.9011 27.1026 58.1474 27.0155C59.0111 26.9551 59.7243 27.1346 60.2868 27.5541C60.9048 28.0564 61.1796 28.7068 61.1115 29.5052ZM66.3372 29.4932C66.3524 29.3557 66.2927 29.2111 66.1581 29.0593C66.0349 28.8943 65.9117 28.8161 65.7883 28.8248C65.3317 28.8567 64.7789 29.2859 64.1299 30.1125C63.5727 30.8335 63.2074 31.4604 63.0339 31.9934C65.1986 30.6764 66.2997 29.843 66.3372 29.4932ZM69.2627 33.0272C69.1788 33.7771 68.3158 34.4698 66.6739 35.1054C65.4041 35.5662 64.2694 35.8316 63.2699 35.9015C61.2092 36.0456 60.2731 35.2492 60.4617 33.5124C60.5843 32.2515 61.3793 30.7637 62.8466 29.0491C64.3024 27.3477 65.6596 26.453 66.9183 26.3649C67.4612 26.327 67.9201 26.5057 68.295 26.9011C68.683 27.3079 68.8409 27.7929 68.7687 28.3559C68.6255 29.854 66.9679 31.5075 63.796 33.3165C64.0224 33.3626 64.2775 33.3758 64.5613 33.356C65.0919 33.3188 65.8118 33.1507 66.7209 32.8515C67.7525 32.5314 68.3917 32.3627 68.6385 32.3455C69.1074 32.3127 69.3155 32.5399 69.2627 33.0272ZM78.9811 32.6266C78.9445 32.9888 78.7055 33.3837 78.2642 33.8114C77.8344 34.2258 77.4405 34.4456 77.0827 34.4706C76.6508 34.5008 76.1192 33.7257 75.4879 32.1455C74.0818 34.203 72.6198 35.2848 71.102 35.391C70.2383 35.4514 69.595 35.1182 69.1721 34.3913C68.8409 33.7325 68.7297 32.9405 68.8386 32.0153C68.9128 31.3033 69.3428 30.182 70.1286 28.6515C71.0265 26.9519 71.7593 26.0822 72.3269 26.0425C72.7465 26.0132 72.9286 26.2237 72.8733 26.6739C72.834 26.9991 72.5695 27.65 72.0798 28.6266C71.8411 29.1145 71.6545 29.5491 71.52 29.9306C71.3846 30.2996 71.3009 30.6093 71.2688 30.8595C71.2399 31.3327 71.3132 31.7616 71.4889 32.1461C71.6971 32.64 71.9986 32.8731 72.3934 32.8455C73.0474 32.7997 73.6322 31.9405 74.1476 30.2676C74.7611 28.4019 75.4005 27.2598 76.0656 26.8413C76.3373 26.6487 76.5719 26.5455 76.7693 26.5317C77.0655 26.511 77.2807 26.6633 77.4151 26.9887C77.4582 27.0725 77.6149 27.7188 77.8855 28.9274C78.017 29.3894 78.1775 29.9114 78.367 30.4934C78.5556 31.063 78.7736 31.6987 79.0211 32.4006L78.9811 32.6266ZM88.0303 27.9762C87.9937 28.3384 87.7604 28.7267 87.3306 29.1412C86.9123 29.5424 86.5242 29.7556 86.1663 29.7806C85.9072 29.7987 85.5684 29.4752 85.1499 28.8101C84.7305 28.1326 84.2493 27.8128 83.7064 27.8508C82.7439 27.9181 82.0379 28.5503 81.5884 29.7473C81.4527 30.29 81.3171 30.8327 81.1814 31.3754C81.0449 31.9057 80.9097 32.4546 80.7758 33.0219C80.3977 34.1768 79.7706 34.7848 78.8945 34.8461C78.4626 34.8763 78.2739 34.6601 78.3284 34.1975C78.3676 33.8723 78.4815 33.1948 78.6698 32.1648C78.8706 31.134 79.1684 29.7181 79.5632 27.9173C79.8784 26.3949 80.3506 25.6117 80.9799 25.5677C81.2267 25.5504 81.4133 26.0023 81.5397 26.9235C82.777 25.8202 83.9879 25.2271 85.1725 25.1443C85.9993 25.0865 86.7048 25.3347 87.2892 25.8891C87.8736 26.4434 88.1206 27.1391 88.0303 27.9762Z" fill="white"/>
<path d="M23.9268 89.0574L23.9064 88.8239L23.9268 89.0574ZM42.8846 72.9101C42.6895 75.1622 41.7382 77.0622 40.0307 78.6102C38.3479 80.1429 36.3651 81.0091 34.0822 81.2088C31.6695 81.4199 29.8701 81.0218 28.6841 80.0146C28.5148 79.8725 28.4453 79.676 28.4757 79.425C28.4935 79.0314 28.7307 78.6054 29.1873 78.1472C29.6439 77.689 30.0733 77.4423 30.4754 77.4071C30.5013 77.4049 30.6274 77.4265 30.8536 77.4721C32.7196 78.1845 34.2688 78.4869 35.5011 78.3791C38.2899 78.1351 39.7928 76.788 40.0098 74.3379C40.1718 72.4547 39.6658 70.7801 38.492 69.3144C37.2487 67.8024 35.7061 67.127 33.8642 67.2881C29.9728 67.6286 27.5935 72.7774 26.7262 82.7346C26.6404 83.6963 26.5611 84.5071 26.4881 85.167C26.4151 85.8269 26.3426 86.343 26.2706 86.7153C25.8662 88.8158 25.2554 89.9018 24.4382 89.9733C24.101 90.0028 23.9305 89.6975 23.9268 89.0574L24.1464 86.8619C24.1615 86.5861 24.1833 86.2378 24.2119 85.8171C24.2404 85.3963 24.2757 84.9031 24.3177 84.3374C24.3704 83.7446 24.4116 83.2443 24.4412 82.8365C24.4698 82.4158 24.4981 82.0669 24.5261 81.79C24.7431 79.3399 25.0393 77.3468 25.4147 75.8109C26.1198 72.9652 27.2155 70.5493 28.7017 68.5632C30.5374 66.0891 32.681 64.7448 35.1325 64.5304C37.4025 64.3318 39.3126 65.0992 40.8628 66.8327C42.4142 68.5791 43.0881 70.6049 42.8846 72.9101ZM46.6636 74.4224C46.604 74.9373 46.3937 75.4459 46.0324 75.948C45.6582 76.4513 45.2116 76.7257 44.6928 76.7711C43.8107 76.8482 43.4017 76.505 43.4656 75.7413C43.5178 75.2923 43.7894 74.8111 44.2803 74.2976C44.7572 73.7723 45.2226 73.4897 45.6766 73.45C46.39 73.3876 46.719 73.7117 46.6636 74.4224ZM45.0724 79.5415C45.0679 79.4896 44.8172 80.5833 44.3204 82.8226C44.1782 83.7369 43.9454 85.1101 43.6221 86.9421C43.5726 87.2732 43.341 87.6137 42.9272 87.9636C42.4993 88.3017 42.1297 88.4843 41.8184 88.5116C41.4422 88.5445 41.286 88.0288 41.3497 86.9645C41.4266 86.1997 41.6862 84.9091 42.1285 83.0928C42.6148 81.1812 43.0039 79.9512 43.2958 79.4028C43.622 78.7992 44.0251 78.4764 44.505 78.4344C44.959 78.3947 45.1481 78.7637 45.0724 79.5415ZM54.169 78.8633C54.1528 79.1261 53.9863 79.389 53.6694 79.652C53.3526 79.915 53.0645 80.0578 52.8051 80.0805C52.6754 80.0919 52.5197 80.1055 52.3381 80.1214C52.1683 80.1232 51.9597 80.1283 51.7121 80.1369C51.2417 80.1389 50.8833 80.1506 50.6368 80.1722C49.9494 80.2323 49.3186 80.4182 48.7446 80.7299C49.1035 80.9468 49.4688 81.1632 49.8406 81.379C50.2112 81.5818 50.5883 81.7841 50.972 81.9858C51.7257 82.5342 52.0645 83.2692 51.9883 84.1908C51.8913 85.3233 51.241 86.256 50.0372 86.9887C49.0167 87.5746 47.9033 87.9204 46.697 88.0259C46.4635 88.0464 45.9951 87.9958 45.2917 87.8744C44.6036 87.7777 44.2645 87.6375 44.2746 87.4536C44.284 87.113 44.4739 86.7434 44.8442 86.3451C45.2145 85.9467 45.5708 85.6868 45.9131 85.5653C46.1821 85.5026 46.5047 85.4548 46.8809 85.4219L48.0094 85.3231C48.1391 85.3118 48.3306 85.3342 48.5838 85.3905C48.8371 85.4468 49.0286 85.4692 49.1583 85.4579C49.2491 85.4499 49.3063 85.4319 49.33 85.4037C49.3686 84.799 48.7665 84.1916 47.5237 83.5815C46.2668 82.9595 45.6681 82.391 45.7276 81.8761C45.8084 81.0064 46.6243 80.0985 48.1753 79.1524C49.5939 78.3355 50.7701 77.8862 51.7041 77.8045C52.0154 77.7773 52.5002 77.8656 53.1585 78.0694C53.8461 78.3099 54.183 78.5745 54.169 78.8633ZM61.5432 79.7866C61.5055 80.1036 61.354 80.4632 61.0886 80.8655C60.8209 81.2418 60.5444 81.4424 60.259 81.4674C59.9996 81.4901 59.6782 81.1784 59.2949 80.5322C58.9116 79.8861 58.3892 79.592 57.7277 79.6499C56.3787 79.7679 55.6537 80.4456 55.5529 81.6831C55.4703 82.383 55.6438 83.0214 56.0733 83.5981C56.5028 84.1749 57.0418 84.4349 57.6904 84.3781C58.0925 84.3429 58.5371 84.1211 59.0242 83.7125C59.5231 83.2898 59.9023 83.0671 60.1617 83.0444C60.7065 82.9967 60.9503 83.2433 60.893 83.7842C60.8757 84.0341 60.7131 84.3424 60.4054 84.7092C59.14 86.2315 57.7744 87.0568 56.3087 87.185C55.1932 87.2826 54.2979 86.91 53.6229 86.0672C53.0117 85.2057 52.7621 84.2211 52.8743 83.1134C53.0073 81.7947 53.627 80.5118 54.7335 79.2648C55.8529 78.0167 57.0677 77.3353 58.3778 77.2207C59.2858 77.1412 60.0397 77.3171 60.6394 77.7482C61.299 78.2656 61.6003 78.9451 61.5432 79.7866ZM66.2372 72.7099C66.1777 73.2249 65.9673 73.7334 65.6061 74.2356C65.2319 74.7389 64.7853 75.0132 64.2665 75.0586C63.3844 75.1358 62.9753 74.7925 63.0392 74.0288C63.0914 73.5798 63.363 73.0986 63.854 72.5851C64.3309 72.0598 64.7963 71.7773 65.2503 71.7375C65.9637 71.6751 66.2927 71.9992 66.2372 72.7099ZM64.6461 77.829C64.6415 77.7771 64.3909 78.8708 63.894 81.1102C63.7518 82.0245 63.5191 83.3976 63.1957 85.2297C63.1463 85.5608 62.9147 85.9013 62.5009 86.2511C62.073 86.5892 61.7034 86.7719 61.3921 86.7991C61.0159 86.832 60.8597 86.3163 60.9234 85.252C61.0003 84.4872 61.2599 83.1966 61.7022 81.3803C62.1885 79.4687 62.5776 78.2387 62.8694 77.6904C63.1957 77.0867 63.5987 76.7639 64.0787 76.7219C64.5327 76.6822 64.7218 77.0512 64.6461 77.829ZM71.6289 79.4335C71.5673 80.2232 71.429 81.0326 71.214 81.8618C70.999 82.691 70.709 83.5594 70.344 84.467C69.8961 85.4734 69.2701 86.0118 68.4659 86.0822C67.9859 86.1242 67.7633 85.8953 67.798 85.3956C67.8407 84.9867 67.9526 84.4737 68.1339 83.8566C68.4554 82.9004 68.6128 82.3834 68.606 82.3056C68.6814 81.9722 68.754 81.6064 68.8237 81.2082C68.8934 80.81 68.9532 80.3735 69.0032 79.8985C69.0384 79.255 68.9846 78.9395 68.842 78.952C68.2323 79.0053 67.51 79.9377 66.6752 81.7491C65.9778 83.3394 65.5929 84.5429 65.5206 85.3596C65.5044 85.6224 65.3508 85.8842 65.0599 86.1449C64.7725 86.4445 64.5055 86.6051 64.259 86.6267C64.0774 86.6426 63.9219 86.434 63.7926 86.0009C63.6525 85.5949 63.5939 85.2994 63.617 85.1144C63.675 83.9852 64.1512 82.63 65.0454 81.0486C65.9442 79.5192 66.8784 78.3199 67.848 77.4508C68.7595 76.6653 69.5137 76.2464 70.1103 76.1942C70.6681 76.1454 71.0947 76.5394 71.3901 77.3762C71.6082 78.076 71.6878 78.7618 71.6289 79.4335ZM77.0438 78.803C77.0572 78.658 76.9917 78.5069 76.8473 78.3496C76.7146 78.1782 76.5835 78.0982 76.4537 78.1096C75.9738 78.1516 75.3999 78.6135 74.732 79.4954C74.1589 80.2644 73.7858 80.9309 73.613 81.495C75.8671 80.0692 77.0107 79.1718 77.0438 78.803ZM80.1877 82.4687C80.1131 83.2594 79.2176 84.0044 77.5012 84.7035C76.1732 85.2118 74.9839 85.5119 73.9333 85.6038C71.7671 85.7934 70.7672 84.9724 70.9338 83.1411C71.0397 81.8117 71.849 80.2312 73.3618 78.3997C74.8628 76.5823 76.2748 75.6157 77.5978 75.4999C78.1686 75.45 78.6548 75.6296 79.0566 76.0389C79.4725 76.46 79.6476 76.9675 79.5819 77.5614C79.4587 79.1406 77.7445 80.9114 74.4394 82.8736C74.6786 82.918 74.9473 82.9272 75.2457 82.9011C75.8034 82.8523 76.558 82.6621 77.5092 82.3305C78.5891 81.9746 79.2587 81.7853 79.5182 81.7626C80.0111 81.7195 80.2343 81.9549 80.1877 82.4687Z" fill="white"/>
</svg>
