<svg width="358" height="102" viewBox="0 0 358 102" fill="none" xmlns="http://www.w3.org/2000/svg">
<path d="M255.514 71.0312V70.6562V71.0312ZM287.983 47.9375C287.358 51.5 285.576 54.3958 282.639 56.625C279.743 58.8333 276.462 59.9375 272.795 59.9375C268.92 59.9375 266.108 59.0521 264.358 57.2812C264.108 57.0312 264.024 56.7083 264.108 56.3125C264.191 55.6875 264.628 55.0417 265.42 54.375C266.212 53.7083 266.93 53.375 267.576 53.375C267.618 53.375 267.816 53.4271 268.17 53.5312C271.045 54.9271 273.472 55.625 275.451 55.625C279.93 55.625 282.514 53.6875 283.201 49.8125C283.722 46.8333 283.149 44.0938 281.483 41.5938C279.712 39.0104 277.347 37.7188 274.389 37.7188C268.139 37.7188 263.628 45.5938 260.858 61.3438C260.587 62.8646 260.347 64.1458 260.139 65.1875C259.93 66.2292 259.743 67.0417 259.576 67.625C258.639 70.9167 257.514 72.5625 256.201 72.5625C255.66 72.5625 255.43 72.0521 255.514 71.0312L256.17 67.5625C256.233 67.125 256.316 66.5729 256.42 65.9062C256.524 65.2396 256.649 64.4583 256.795 63.5625C256.962 62.625 257.097 61.8333 257.201 61.1875C257.305 60.5208 257.399 59.9688 257.483 59.5312C258.17 55.6562 258.92 52.5208 259.733 50.125C261.253 45.6875 263.337 41.9896 265.983 39.0312C269.253 35.3438 272.858 33.5 276.795 33.5C280.441 33.5 283.378 34.9896 285.608 37.9688C287.837 40.9688 288.628 44.2917 287.983 47.9375ZM295.715 50.875C295.548 51.6875 295.142 52.4688 294.496 53.2188C293.83 53.9688 293.08 54.3438 292.246 54.3438C290.83 54.3438 290.225 53.7396 290.434 52.5312C290.58 51.8229 291.08 51.0938 291.934 50.3438C292.767 49.5729 293.548 49.1875 294.278 49.1875C295.423 49.1875 295.903 49.75 295.715 50.875ZM292.465 58.8125C292.465 58.7292 291.913 60.4375 290.809 63.9375C290.455 65.375 289.892 67.5312 289.121 70.4062C288.996 70.9271 288.58 71.4375 287.871 71.9375C287.142 72.4167 286.528 72.6562 286.028 72.6562C285.423 72.6562 285.246 71.8125 285.496 70.125C285.725 68.9167 286.319 66.8958 287.278 64.0625C288.319 61.0833 289.111 59.1771 289.653 58.3438C290.257 57.4271 290.944 56.9688 291.715 56.9688C292.444 56.9688 292.694 57.5833 292.465 58.8125ZM308.979 59C308.916 59.4167 308.614 59.8125 308.072 60.1875C307.531 60.5625 307.052 60.75 306.635 60.75C306.427 60.75 306.177 60.75 305.885 60.75C305.614 60.7292 305.281 60.7083 304.885 60.6875C304.135 60.625 303.562 60.5938 303.166 60.5938C302.062 60.5938 301.031 60.8021 300.072 61.2188C300.614 61.6146 301.166 62.0104 301.729 62.4062C302.291 62.7812 302.864 63.1562 303.447 63.5312C304.572 64.5104 305.01 65.7292 304.76 67.1875C304.447 68.9792 303.281 70.375 301.26 71.375C299.552 72.1667 297.729 72.5625 295.791 72.5625C295.416 72.5625 294.677 72.4167 293.572 72.125C292.489 71.875 291.968 71.6042 292.01 71.3125C292.072 70.7708 292.427 70.2083 293.072 69.625C293.718 69.0417 294.322 68.6771 294.885 68.5312C295.322 68.4688 295.843 68.4375 296.447 68.4375H298.26C298.468 68.4375 298.77 68.5 299.166 68.625C299.562 68.75 299.864 68.8125 300.072 68.8125C300.218 68.8125 300.312 68.7917 300.354 68.75C300.5 67.7917 299.625 66.7396 297.729 65.5938C295.812 64.4271 294.937 63.4375 295.104 62.625C295.354 61.25 296.781 59.9167 299.385 58.625C301.76 57.5208 303.697 56.9688 305.197 56.9688C305.697 56.9688 306.458 57.1771 307.479 57.5938C308.541 58.0729 309.041 58.5417 308.979 59ZM322.524 61.5C322.42 62 322.128 62.5521 321.649 63.1562C321.17 63.7188 320.701 64 320.243 64C319.826 64 319.357 63.4583 318.836 62.375C318.315 61.2917 317.524 60.75 316.461 60.75C314.295 60.75 313.045 61.7292 312.711 63.6875C312.482 64.7917 312.67 65.8333 313.274 66.8125C313.878 67.7917 314.701 68.2812 315.743 68.2812C316.388 68.2812 317.128 67.9896 317.961 67.4062C318.815 66.8021 319.451 66.5 319.868 66.5C320.743 66.5 321.097 66.9271 320.93 67.7812C320.868 68.1771 320.565 68.6458 320.024 69.1875C317.795 71.4375 315.503 72.5625 313.149 72.5625C311.357 72.5625 309.982 71.8438 309.024 70.4062C308.17 68.9479 307.909 67.3438 308.243 65.5938C308.638 63.5104 309.805 61.5521 311.743 59.7188C313.701 57.8854 315.732 56.9688 317.836 56.9688C319.295 56.9688 320.472 57.3542 321.368 58.125C322.347 59.0417 322.732 60.1667 322.524 61.5ZM332.912 50.875C332.746 51.6875 332.34 52.4688 331.694 53.2188C331.027 53.9688 330.277 54.3438 329.444 54.3438C328.027 54.3438 327.423 53.7396 327.631 52.5312C327.777 51.8229 328.277 51.0938 329.131 50.3438C329.965 49.5729 330.746 49.1875 331.475 49.1875C332.621 49.1875 333.1 49.75 332.912 50.875ZM329.662 58.8125C329.662 58.7292 329.11 60.4375 328.006 63.9375C327.652 65.375 327.09 67.5312 326.319 70.4062C326.194 70.9271 325.777 71.4375 325.069 71.9375C324.34 72.4167 323.725 72.6562 323.225 72.6562C322.621 72.6562 322.444 71.8125 322.694 70.125C322.923 68.9167 323.517 66.8958 324.475 64.0625C325.517 61.0833 326.308 59.1771 326.85 58.3438C327.454 57.4271 328.142 56.9688 328.912 56.9688C329.642 56.9688 329.892 57.5833 329.662 58.8125ZM342.489 62.3438C342.28 63.5938 341.947 64.8646 341.489 66.1562C341.03 67.4479 340.447 68.7917 339.739 70.1875C338.885 71.7292 337.812 72.5 336.52 72.5C335.749 72.5 335.426 72.1042 335.551 71.3125C335.676 70.6667 335.926 69.8646 336.301 68.9062C336.947 67.4271 337.27 66.625 337.27 66.5C337.437 65.9792 337.603 65.4062 337.77 64.7812C337.937 64.1562 338.093 63.4688 338.239 62.7188C338.385 61.6979 338.343 61.1875 338.114 61.1875C337.135 61.1875 335.853 62.5729 334.27 65.3438C332.937 67.7812 332.155 69.6458 331.926 70.9375C331.864 71.3542 331.582 71.75 331.082 72.125C330.582 72.5625 330.135 72.7812 329.739 72.7812C329.447 72.7812 329.228 72.4271 329.082 71.7188C328.916 71.0521 328.864 70.5729 328.926 70.2812C329.176 68.4896 330.124 66.3958 331.77 64C333.416 61.6875 335.072 59.9062 336.739 58.6562C338.301 57.5312 339.562 56.9688 340.52 56.9688C341.416 56.9688 342.041 57.6562 342.395 59.0312C342.645 60.1771 342.676 61.2812 342.489 62.3438ZM353.128 62.0938C353.169 61.8646 353.086 61.6146 352.878 61.3438C352.69 61.0521 352.492 60.9062 352.284 60.9062C351.513 60.9062 350.534 61.5625 349.346 62.875C348.325 64.0208 347.638 65.0312 347.284 65.9062C351.075 63.9479 353.023 62.6771 353.128 62.0938ZM357.628 68.375C357.398 69.625 355.867 70.6875 353.034 71.5625C350.846 72.1875 348.909 72.5 347.221 72.5C343.742 72.5 342.263 71.0521 342.784 68.1562C343.138 66.0521 344.648 63.6458 347.315 60.9375C349.961 58.25 352.346 56.9062 354.471 56.9062C355.388 56.9062 356.138 57.2604 356.721 57.9688C357.325 58.6979 357.534 59.5312 357.346 60.4688C356.93 62.9688 353.95 65.5521 348.409 68.2188C348.784 68.3229 349.211 68.375 349.69 68.375C350.586 68.375 351.815 68.1771 353.378 67.7812C355.148 67.3646 356.242 67.1562 356.659 67.1562C357.45 67.1562 357.773 67.5625 357.628 68.375Z" fill="#38BDF8"/>
<path d="M147.062 53.125C146.354 57.1667 144.521 60.7604 141.562 63.9062C139.396 66.1979 136.667 68.1667 133.375 69.8125C129.896 71.5625 126.802 72.4375 124.094 72.4375C119.365 72.4375 117.531 69.5208 118.594 63.6875C118.802 62.4583 119.125 61.1354 119.562 59.7188C120.021 58.3021 120.583 56.7812 121.25 55.1562C121.854 53.7604 122.458 52.375 123.062 51C123.688 49.625 124.312 48.2188 124.938 46.7812C125.333 45.7812 125.708 45.125 126.062 44.8125C126.521 44.2708 127.177 43.9479 128.031 43.8438L128.562 44.4375L128.5 44.8438C128.438 45.2604 127.833 46.7604 126.688 49.3438C124.375 54.6979 122.969 58.8229 122.469 61.7188C121.656 66.3646 122.906 68.6875 126.219 68.6875C129.615 68.6875 133.271 67.1042 137.188 63.9375C140.188 61.5 142 58.4479 142.625 54.7812C143.208 51.4688 142.74 48.3438 141.219 45.4062C139.74 42.4688 137.531 40.3854 134.594 39.1562C132.448 38.3021 130.01 37.875 127.281 37.875C126.323 37.875 124.927 38.0312 123.094 38.3438C122.156 38.4896 121.354 38.6042 120.688 38.6875C120.021 38.75 119.479 38.7812 119.062 38.7812C118.042 38.7812 117.615 38.4062 117.781 37.6562C118.01 36.2604 119.792 35.1771 123.125 34.4062C125.479 33.8229 127.719 33.5312 129.844 33.5312C136.344 33.5312 141.156 35.6146 144.281 39.7812C147.073 43.5938 148 48.0417 147.062 53.125ZM157.045 65.6562C157.212 64.6146 156.92 63.6146 156.17 62.6562C155.42 61.6979 154.555 61.2188 153.576 61.2188C152.097 61.2188 151.097 62.6562 150.576 65.5312C150.264 67.4896 150.889 68.4688 152.451 68.4688C153.326 68.4688 154.233 68.2188 155.17 67.7188C156.253 67.1562 156.878 66.4688 157.045 65.6562ZM161.733 63.7188C161.316 66.0104 159.878 68.0625 157.42 69.875C154.941 71.6667 152.555 72.5625 150.264 72.5625C148.701 72.5625 147.597 72.1042 146.951 71.1875C146.305 70.2708 146.128 69.0521 146.42 67.5312C146.837 65.1354 147.972 62.8229 149.826 60.5938C151.93 58.1771 154.118 56.9688 156.389 56.9688C158.076 56.9688 159.472 57.6771 160.576 59.0938C161.66 60.4896 162.045 62.0312 161.733 63.7188ZM179.965 68.8438C179.861 69.4479 179.413 70.0833 178.621 70.75C177.85 71.3958 177.163 71.7188 176.559 71.7188C175.83 71.7188 175.028 70.3542 174.153 67.625C171.548 70.9167 168.965 72.5625 166.403 72.5625C164.944 72.5625 163.903 71.9271 163.278 70.6562C162.798 69.5104 162.705 68.1667 162.996 66.625C163.205 65.4375 164.059 63.6042 165.559 61.125C167.267 58.375 168.6 57 169.559 57C170.267 57 170.548 57.375 170.403 58.125C170.298 58.6667 169.778 59.7292 168.84 61.3125C168.382 62.1042 168.017 62.8125 167.746 63.4375C167.475 64.0417 167.298 64.5521 167.215 64.9688C167.111 65.7604 167.184 66.4896 167.434 67.1562C167.725 68.0104 168.205 68.4375 168.871 68.4375C169.975 68.4375 171.059 67.0625 172.121 64.3125C173.371 61.25 174.58 59.4062 175.746 58.7812C176.225 58.4896 176.632 58.3438 176.965 58.3438C177.465 58.3438 177.809 58.625 177.996 59.1875C178.059 59.3333 178.246 60.4375 178.559 62.5C178.725 63.2917 178.934 64.1875 179.184 65.1875C179.434 66.1667 179.725 67.2604 180.059 68.4688L179.965 68.8438ZM196.354 61.5C196.25 62 195.958 62.5521 195.479 63.1562C195 63.7188 194.531 64 194.073 64C193.656 64 193.187 63.4583 192.666 62.375C192.145 61.2917 191.354 60.75 190.291 60.75C188.125 60.75 186.875 61.7292 186.541 63.6875C186.312 64.7917 186.5 65.8333 187.104 66.8125C187.708 67.7917 188.531 68.2812 189.573 68.2812C190.218 68.2812 190.958 67.9896 191.791 67.4062C192.645 66.8021 193.281 66.5 193.698 66.5C194.573 66.5 194.927 66.9271 194.76 67.7812C194.698 68.1771 194.395 68.6458 193.854 69.1875C191.625 71.4375 189.333 72.5625 186.979 72.5625C185.187 72.5625 183.812 71.8438 182.854 70.4062C182 68.9479 181.739 67.3438 182.073 65.5938C182.468 63.5104 183.635 61.5521 185.573 59.7188C187.531 57.8854 189.562 56.9688 191.666 56.9688C193.125 56.9688 194.302 57.3542 195.198 58.125C196.177 59.0417 196.562 60.1667 196.354 61.5ZM207.055 62.0938C207.097 61.8646 207.013 61.6146 206.805 61.3438C206.618 61.0521 206.42 60.9062 206.211 60.9062C205.44 60.9062 204.461 61.5625 203.274 62.875C202.253 64.0208 201.565 65.0312 201.211 65.9062C205.003 63.9479 206.951 62.6771 207.055 62.0938ZM211.555 68.375C211.326 69.625 209.795 70.6875 206.961 71.5625C204.774 72.1875 202.836 72.5 201.149 72.5C197.67 72.5 196.19 71.0521 196.711 68.1562C197.065 66.0521 198.576 63.6458 201.243 60.9375C203.888 58.25 206.274 56.9062 208.399 56.9062C209.315 56.9062 210.065 57.2604 210.649 57.9688C211.253 58.6979 211.461 59.5312 211.274 60.4688C210.857 62.9688 207.878 65.5521 202.336 68.2188C202.711 68.3229 203.138 68.375 203.618 68.375C204.513 68.375 205.743 68.1771 207.305 67.7812C209.076 67.3646 210.17 67.1562 210.586 67.1562C211.378 67.1562 211.701 67.5625 211.555 68.375ZM229.85 68.8438C229.746 69.4479 229.298 70.0833 228.506 70.75C227.735 71.3958 227.048 71.7188 226.444 71.7188C225.715 71.7188 224.912 70.3542 224.037 67.625C221.433 70.9167 218.85 72.5625 216.287 72.5625C214.829 72.5625 213.787 71.9271 213.162 70.6562C212.683 69.5104 212.59 68.1667 212.881 66.625C213.09 65.4375 213.944 63.6042 215.444 61.125C217.152 58.375 218.485 57 219.444 57C220.152 57 220.433 57.375 220.287 58.125C220.183 58.6667 219.662 59.7292 218.725 61.3125C218.267 62.1042 217.902 62.8125 217.631 63.4375C217.36 64.0417 217.183 64.5521 217.1 64.9688C216.996 65.7604 217.069 66.4896 217.319 67.1562C217.61 68.0104 218.09 68.4375 218.756 68.4375C219.86 68.4375 220.944 67.0625 222.006 64.3125C223.256 61.25 224.465 59.4062 225.631 58.7812C226.11 58.4896 226.517 58.3438 226.85 58.3438C227.35 58.3438 227.694 58.625 227.881 59.1875C227.944 59.3333 228.131 60.4375 228.444 62.5C228.61 63.2917 228.819 64.1875 229.069 65.1875C229.319 66.1667 229.61 67.2604 229.944 68.4688L229.85 68.8438ZM247.52 62.0938C247.416 62.6979 246.978 63.3229 246.207 63.9688C245.457 64.5938 244.78 64.9062 244.176 64.9062C243.739 64.9062 243.207 64.3229 242.582 63.1562C241.957 61.9688 241.187 61.375 240.27 61.375C238.645 61.375 237.385 62.3542 236.489 64.3125C236.197 65.2083 235.905 66.1042 235.614 67C235.322 67.875 235.03 68.7812 234.739 69.7188C233.968 71.6146 232.843 72.5625 231.364 72.5625C230.635 72.5625 230.343 72.1771 230.489 71.4062C230.593 70.8646 230.864 69.7396 231.301 68.0312C231.76 66.3229 232.426 63.9792 233.301 61C234.01 58.4792 234.895 57.2188 235.957 57.2188C236.374 57.2188 236.635 58 236.739 59.5625C238.947 57.8542 241.051 57 243.051 57C244.447 57 245.603 57.5 246.52 58.5C247.437 59.5 247.77 60.6979 247.52 62.0938Z" fill="#F20088"/>
<path fill-rule="evenodd" clip-rule="evenodd" d="M51.4764 0.196655C73.8696 0.196655 92.7543 14.1451 98.6039 33.1958L98.6687 33.1963C98.6839 33.2329 98.6991 33.2696 98.7143 33.3063C99.4392 35.0569 100.197 37.549 100.987 40.7827C99.4833 39.8747 97.9483 39.5391 96.3826 39.776C92.0524 40.4312 86.8888 44.6393 84.5759 44.5778C80.4794 44.4689 76.602 42.3051 73.279 42.3051C73.112 42.3051 72.1341 42.6155 71.983 42.6326C71.0431 42.7391 69.4713 43.6497 67.9102 44.6369L67.3266 45.0093C65.5847 46.1287 63.958 47.2302 63.3616 47.278C61.6519 47.4152 60.5736 46.6779 59.1183 46.23C58.7578 46.1191 58.3932 46.0052 58.0274 45.8914L57.2955 45.6651C55.1008 44.9926 52.941 44.4026 51.4761 44.5778C47.1649 45.0933 41.9794 50.2907 39.8401 50.4624C39.1431 50.5183 38.773 50.5408 38.5958 50.544L38.5175 50.5439C38.3959 50.5403 38.4748 50.5169 38.5799 50.4922L38.6443 50.4775C38.8277 50.4362 38.9876 50.4016 38.2884 50.4624C38.1497 50.3794 36.5067 49.7211 34.8506 49.0664L34.3002 48.8491C32.8418 48.2742 31.504 47.7528 31.3339 47.6917C30.4384 47.3695 29.2564 47.3031 28.604 47.278C28.4808 47.2733 28.3807 47.2686 28.297 47.2643L28.0883 47.2532C27.8578 47.241 27.7828 47.2414 27.4353 47.278C26.2264 47.4053 25.0404 48.19 24.0255 49.1639C22.8653 50.2772 19.8978 52.6998 17.7508 52.9233C13.8165 53.3329 9.91561 49.3012 7.12235 49.5397C3.7277 49.8296 2.93708 50.6634 1.78354 51.1967C1.42081 51.3643 1.16558 51.5018 1.01785 51.6091L1.0127 51.6124L1.05532 51.254C2.09063 42.686 3.17813 36.6664 4.31783 33.1954L4.3487 33.1947L4.52804 32.6268C10.5759 13.868 29.3068 0.196655 51.4764 0.196655Z" fill="#CF0B7C"/>
<path fill-rule="evenodd" clip-rule="evenodd" d="M50.4355 101.803C28.0424 101.803 9.15763 87.8549 3.30808 68.8042L3.24326 68.8037C3.22806 68.7671 3.21286 68.7304 3.19765 68.6937C2.4728 66.9431 1.59508 64.1181 0.564499 60.2184C2.76175 58.9811 4.64323 58.244 6.20894 58.0071C10.5392 57.352 14.0237 60.7166 16.3367 60.7781C20.4332 60.887 25.7044 55.3231 29.0274 55.3231C32.3503 55.3231 34.2882 56.6384 34.42 56.6807C36.7307 57.4222 38.5603 58.1029 39.7531 58.0071C40.1992 57.9713 41.5144 57.7958 42.2709 57.4222C44.4133 56.3643 45.751 55.9202 47.7556 54.722C49.7603 53.5237 52.0103 52.8033 52.9773 52.8033C53.9444 52.8033 54.6879 52.9666 55.6326 53.5237C57.7165 54.7528 60.9573 56.0978 62.0718 55.9883C63.1713 55.8803 66.0369 53.8754 66.6268 53.5237C69.5982 51.7521 71.6628 50.2775 73.308 50.1344C73.4376 50.2119 76.1384 50.4065 78.5582 51.0474C81.3186 51.7786 83.8911 52.9554 84.9756 52.8361C88.3924 52.4603 93.6981 49.0278 95.2732 48.2115C96.5734 47.5377 98.6276 48.1786 101.436 50.1344C100.564 58.7606 99.283 64.947 97.5921 68.6937L97.5435 68.8033L97.5633 68.8032C91.7141 87.8544 72.8291 101.803 50.4355 101.803Z" fill="#89CDE9"/>
<path d="M34.9809 26.3476C34.7287 28.7709 33.7917 30.9754 32.1697 32.9612C30.9813 34.4083 29.4464 35.6874 27.5649 36.7986C25.5766 37.9792 23.7804 38.6256 22.1763 38.7378C19.3752 38.9337 18.1685 37.2821 18.5562 33.7829C18.6287 33.0463 18.7652 32.2493 18.9656 31.3921C19.1784 30.534 19.4486 29.6099 19.7762 28.6198C20.0762 27.7681 20.3767 26.9224 20.6776 26.083C20.9908 25.2427 21.3028 24.3839 21.6134 23.5066C21.8064 22.8979 22.0014 22.4936 22.1982 22.2939C22.4472 21.9541 22.8226 21.7356 23.3242 21.6385L23.6634 21.9682L23.6432 22.2114C23.6235 22.4608 23.3278 23.3743 22.7561 24.9519C21.6081 28.2189 20.9461 30.7204 20.7698 32.4564C20.481 35.2417 21.3176 36.5658 23.2796 36.4287C25.291 36.288 27.391 35.1988 29.5797 33.1609C31.2557 31.5929 32.2028 29.7101 32.4211 27.5124C32.6294 25.5262 32.2224 23.6947 31.1999 22.0178C30.2021 20.3392 28.8078 19.1967 27.017 18.5903C25.7107 18.1733 24.2492 18.0213 22.6327 18.1343C22.0651 18.174 21.2448 18.3243 20.1719 18.5854C19.6226 18.7106 19.1523 18.8117 18.7609 18.8886C18.3686 18.9533 18.0491 18.9942 17.8023 19.0115C17.1976 19.0537 16.9291 18.8493 16.9968 18.3982C17.0747 17.5619 18.0849 16.8465 20.0273 16.2519C21.3975 15.8089 22.712 15.5433 23.9706 15.4553C27.8206 15.1861 30.7573 16.2208 32.7809 18.5593C34.5923 20.7018 35.3256 23.2979 34.9809 26.3476ZM40.2753 33.436C40.3309 32.8121 40.1167 32.2319 39.6328 31.6953C39.1489 31.1588 38.617 30.9108 38.037 30.9513C37.1609 31.0126 36.6281 31.9054 36.4387 33.6299C36.3347 34.8028 36.7455 35.3568 37.6709 35.2921C38.1892 35.2559 38.7156 35.0703 39.2502 34.7353C39.8686 34.3572 40.2103 33.9241 40.2753 33.436ZM42.9715 32.0943C42.8196 33.4689 42.0532 34.7439 40.6722 35.9192C39.278 37.0831 37.9022 37.7125 36.5448 37.8075C35.6193 37.8722 34.9464 37.6464 34.5259 37.1302C34.1054 36.614 33.95 35.8995 34.0598 34.9866C34.2073 33.5503 34.7841 32.1336 35.79 30.7364C36.9362 29.2179 38.1818 28.4116 39.5268 28.3175C40.5263 28.2476 41.3824 28.6094 42.0951 29.4027C42.7946 30.1846 43.0867 31.0818 42.9715 32.0943ZM52.8457 34.4542C52.8091 34.8164 52.5701 35.2113 52.1288 35.6389C51.699 36.0534 51.3051 36.2731 50.9473 36.2981C50.5154 36.3283 49.9838 35.5533 49.3525 33.9731C47.9464 36.0306 46.4844 37.1124 44.9666 37.2185C44.1029 37.2789 43.4596 36.9457 43.0367 36.2189C42.7055 35.5601 42.5943 34.768 42.7032 33.8428C42.7774 33.1308 43.2074 32.0096 43.9932 30.479C44.8911 28.7794 45.6239 27.9098 46.1915 27.8701C46.6111 27.8408 46.7932 28.0512 46.7379 28.5015C46.6986 28.8266 46.4341 29.4775 45.9444 30.4542C45.7057 30.9421 45.5191 31.3767 45.3846 31.7581C45.2492 32.1272 45.1655 32.4368 45.1334 32.6871C45.1045 33.1603 45.1778 33.5892 45.3535 33.9737C45.5617 34.4675 45.8632 34.7007 46.258 34.673C46.912 34.6273 47.4968 33.768 48.0122 32.0952C48.6257 30.2295 49.2651 29.0874 49.9302 28.6689C50.2019 28.4763 50.4365 28.3731 50.6339 28.3593C50.9301 28.3385 51.1453 28.4909 51.2797 28.8163C51.3228 28.9001 51.4795 29.5463 51.7501 30.755C51.8816 31.217 52.0421 31.739 52.2316 32.3209C52.4202 32.8905 52.6382 33.5263 52.8857 34.2282L52.8457 34.4542ZM61.1115 29.5052C61.0705 29.8057 60.9206 30.1447 60.6618 30.5224C60.4013 30.8755 60.1353 31.0615 59.8638 31.0804C59.617 31.0977 59.3169 30.7963 58.9636 30.1762C58.6102 29.5561 58.1189 29.2681 57.4896 29.3121C56.2062 29.4018 55.5064 30.0335 55.3901 31.2073C55.3001 31.8708 55.4543 32.48 55.8527 33.0349C56.2511 33.5899 56.7588 33.8458 57.3758 33.8026C57.7583 33.7759 58.1843 33.5725 58.6537 33.1925C59.1346 32.7992 59.4985 32.594 59.7452 32.5767C60.2635 32.5405 60.491 32.7788 60.4276 33.2916C60.407 33.5287 60.2475 33.8188 59.9491 34.1621C58.722 35.5871 57.4112 36.3483 56.0168 36.4458C54.9556 36.5201 54.1114 36.1513 53.4842 35.3395C52.9179 34.5111 52.6972 33.5718 52.8222 32.5214C52.9703 31.2711 53.5803 30.0628 54.6519 28.8967C55.7359 27.7297 56.9011 27.1026 58.1474 27.0155C59.0111 26.9551 59.7243 27.1346 60.2868 27.5541C60.9048 28.0564 61.1796 28.7068 61.1115 29.5052ZM66.3372 29.4932C66.3524 29.3557 66.2927 29.2111 66.1581 29.0593C66.0349 28.8943 65.9117 28.8161 65.7883 28.8248C65.3317 28.8567 64.7789 29.2859 64.1299 30.1125C63.5727 30.8335 63.2074 31.4604 63.0339 31.9934C65.1986 30.6764 66.2997 29.843 66.3372 29.4932ZM69.2627 33.0272C69.1788 33.7771 68.3158 34.4698 66.6739 35.1054C65.4041 35.5662 64.2694 35.8316 63.2699 35.9015C61.2092 36.0456 60.2731 35.2492 60.4617 33.5124C60.5843 32.2515 61.3793 30.7637 62.8466 29.0491C64.3024 27.3477 65.6596 26.453 66.9183 26.3649C67.4612 26.327 67.9201 26.5057 68.295 26.9011C68.683 27.3079 68.8409 27.7929 68.7687 28.3559C68.6255 29.854 66.9679 31.5075 63.796 33.3165C64.0224 33.3626 64.2775 33.3758 64.5613 33.356C65.0919 33.3188 65.8118 33.1507 66.7209 32.8515C67.7525 32.5314 68.3917 32.3627 68.6385 32.3455C69.1074 32.3127 69.3155 32.5399 69.2627 33.0272ZM78.9811 32.6266C78.9445 32.9888 78.7055 33.3837 78.2642 33.8114C77.8344 34.2258 77.4405 34.4456 77.0827 34.4706C76.6508 34.5008 76.1192 33.7257 75.4879 32.1455C74.0818 34.203 72.6198 35.2848 71.102 35.391C70.2383 35.4514 69.595 35.1182 69.1721 34.3913C68.8409 33.7325 68.7297 32.9405 68.8386 32.0153C68.9128 31.3033 69.3428 30.182 70.1286 28.6515C71.0265 26.9519 71.7593 26.0822 72.3269 26.0425C72.7465 26.0132 72.9286 26.2237 72.8733 26.6739C72.834 26.9991 72.5695 27.65 72.0798 28.6266C71.8411 29.1145 71.6545 29.5491 71.52 29.9306C71.3846 30.2996 71.3009 30.6093 71.2688 30.8595C71.2399 31.3327 71.3132 31.7616 71.4889 32.1461C71.6971 32.64 71.9986 32.8731 72.3934 32.8455C73.0474 32.7997 73.6322 31.9405 74.1476 30.2676C74.7611 28.4019 75.4005 27.2598 76.0656 26.8413C76.3373 26.6487 76.5719 26.5455 76.7693 26.5317C77.0655 26.511 77.2807 26.6633 77.4151 26.9887C77.4582 27.0725 77.6149 27.7188 77.8855 28.9274C78.017 29.3894 78.1775 29.9114 78.367 30.4934C78.5556 31.063 78.7736 31.6987 79.0211 32.4006L78.9811 32.6266ZM88.0303 27.9762C87.9937 28.3384 87.7604 28.7267 87.3306 29.1412C86.9123 29.5424 86.5242 29.7556 86.1663 29.7806C85.9072 29.7987 85.5684 29.4752 85.1499 28.8101C84.7305 28.1326 84.2493 27.8128 83.7064 27.8508C82.7439 27.9181 82.0379 28.5503 81.5884 29.7473C81.4527 30.29 81.3171 30.8327 81.1814 31.3754C81.0449 31.9057 80.9097 32.4546 80.7758 33.0219C80.3977 34.1768 79.7706 34.7848 78.8945 34.8461C78.4626 34.8763 78.2739 34.6601 78.3284 34.1975C78.3676 33.8723 78.4815 33.1948 78.6698 32.1648C78.8706 31.134 79.1684 29.7181 79.5632 27.9173C79.8784 26.3949 80.3506 25.6117 80.9799 25.5677C81.2267 25.5504 81.4133 26.0023 81.5397 26.9235C82.777 25.8202 83.9879 25.2271 85.1725 25.1443C85.9993 25.0865 86.7048 25.3347 87.2892 25.8891C87.8736 26.4434 88.1206 27.1391 88.0303 27.9762Z" fill="white"/>
<path d="M23.9268 89.0574L23.9064 88.8239L23.9268 89.0574ZM42.8846 72.9101C42.6895 75.1622 41.7382 77.0622 40.0307 78.6102C38.3479 80.1429 36.3651 81.0091 34.0822 81.2088C31.6695 81.4199 29.8701 81.0218 28.6841 80.0146C28.5148 79.8725 28.4453 79.676 28.4757 79.425C28.4935 79.0314 28.7307 78.6054 29.1873 78.1472C29.6439 77.689 30.0733 77.4423 30.4754 77.4071C30.5013 77.4049 30.6274 77.4265 30.8536 77.4721C32.7196 78.1845 34.2688 78.4869 35.5011 78.3791C38.2899 78.1351 39.7928 76.788 40.0098 74.3379C40.1718 72.4547 39.6658 70.7801 38.492 69.3144C37.2487 67.8024 35.7061 67.127 33.8642 67.2881C29.9728 67.6286 27.5935 72.7774 26.7262 82.7346C26.6404 83.6963 26.5611 84.5071 26.4881 85.167C26.4151 85.8269 26.3426 86.343 26.2706 86.7153C25.8662 88.8158 25.2554 89.9018 24.4382 89.9733C24.101 90.0028 23.9305 89.6975 23.9268 89.0574L24.1464 86.8619C24.1615 86.5861 24.1833 86.2378 24.2119 85.8171C24.2404 85.3963 24.2757 84.9031 24.3177 84.3374C24.3704 83.7446 24.4116 83.2443 24.4412 82.8365C24.4698 82.4158 24.4981 82.0669 24.5261 81.79C24.7431 79.3399 25.0393 77.3468 25.4147 75.8109C26.1198 72.9652 27.2155 70.5493 28.7017 68.5632C30.5374 66.0891 32.681 64.7448 35.1325 64.5304C37.4025 64.3318 39.3126 65.0992 40.8628 66.8327C42.4142 68.5791 43.0881 70.6049 42.8846 72.9101ZM46.6636 74.4224C46.604 74.9373 46.3937 75.4459 46.0324 75.948C45.6582 76.4513 45.2116 76.7257 44.6928 76.7711C43.8107 76.8482 43.4017 76.505 43.4656 75.7413C43.5178 75.2923 43.7894 74.8111 44.2803 74.2976C44.7572 73.7723 45.2226 73.4897 45.6766 73.45C46.39 73.3876 46.719 73.7117 46.6636 74.4224ZM45.0724 79.5415C45.0679 79.4896 44.8172 80.5833 44.3204 82.8226C44.1782 83.7369 43.9454 85.1101 43.6221 86.9421C43.5726 87.2732 43.341 87.6137 42.9272 87.9636C42.4993 88.3017 42.1297 88.4843 41.8184 88.5116C41.4422 88.5445 41.286 88.0288 41.3497 86.9645C41.4266 86.1997 41.6862 84.9091 42.1285 83.0928C42.6148 81.1812 43.0039 79.9512 43.2958 79.4028C43.622 78.7992 44.0251 78.4764 44.505 78.4344C44.959 78.3947 45.1481 78.7637 45.0724 79.5415ZM54.169 78.8633C54.1528 79.1261 53.9863 79.389 53.6694 79.652C53.3526 79.915 53.0645 80.0578 52.8051 80.0805C52.6754 80.0919 52.5197 80.1055 52.3381 80.1214C52.1683 80.1232 51.9597 80.1283 51.7121 80.1369C51.2417 80.1389 50.8833 80.1506 50.6368 80.1722C49.9494 80.2323 49.3186 80.4182 48.7446 80.7299C49.1035 80.9468 49.4688 81.1632 49.8406 81.379C50.2112 81.5818 50.5883 81.7841 50.972 81.9858C51.7257 82.5342 52.0645 83.2692 51.9883 84.1908C51.8913 85.3233 51.241 86.256 50.0372 86.9887C49.0167 87.5746 47.9033 87.9204 46.697 88.0259C46.4635 88.0464 45.9951 87.9958 45.2917 87.8744C44.6036 87.7777 44.2645 87.6375 44.2746 87.4536C44.284 87.113 44.4739 86.7434 44.8442 86.3451C45.2145 85.9467 45.5708 85.6868 45.9131 85.5653C46.1821 85.5026 46.5047 85.4548 46.8809 85.4219L48.0094 85.3231C48.1391 85.3118 48.3306 85.3342 48.5838 85.3905C48.8371 85.4468 49.0286 85.4692 49.1583 85.4579C49.2491 85.4499 49.3063 85.4319 49.33 85.4037C49.3686 84.799 48.7665 84.1916 47.5237 83.5815C46.2668 82.9595 45.6681 82.391 45.7276 81.8761C45.8084 81.0064 46.6243 80.0985 48.1753 79.1524C49.5939 78.3355 50.7701 77.8862 51.7041 77.8045C52.0154 77.7773 52.5002 77.8656 53.1585 78.0694C53.8461 78.3099 54.183 78.5745 54.169 78.8633ZM61.5432 79.7866C61.5055 80.1036 61.354 80.4632 61.0886 80.8655C60.8209 81.2418 60.5444 81.4424 60.259 81.4674C59.9996 81.4901 59.6782 81.1784 59.2949 80.5322C58.9116 79.8861 58.3892 79.592 57.7277 79.6499C56.3787 79.7679 55.6537 80.4456 55.5529 81.6831C55.4703 82.383 55.6438 83.0214 56.0733 83.5981C56.5028 84.1749 57.0418 84.4349 57.6904 84.3781C58.0925 84.3429 58.5371 84.1211 59.0242 83.7125C59.5231 83.2898 59.9023 83.0671 60.1617 83.0444C60.7065 82.9967 60.9503 83.2433 60.893 83.7842C60.8757 84.0341 60.7131 84.3424 60.4054 84.7092C59.14 86.2315 57.7744 87.0568 56.3087 87.185C55.1932 87.2826 54.2979 86.91 53.6229 86.0672C53.0117 85.2057 52.7621 84.2211 52.8743 83.1134C53.0073 81.7947 53.627 80.5118 54.7335 79.2648C55.8529 78.0167 57.0677 77.3353 58.3778 77.2207C59.2858 77.1412 60.0397 77.3171 60.6394 77.7482C61.299 78.2656 61.6003 78.9451 61.5432 79.7866ZM66.2372 72.7099C66.1777 73.2249 65.9673 73.7334 65.6061 74.2356C65.2319 74.7389 64.7853 75.0132 64.2665 75.0586C63.3844 75.1358 62.9753 74.7925 63.0392 74.0288C63.0914 73.5798 63.363 73.0986 63.854 72.5851C64.3309 72.0598 64.7963 71.7773 65.2503 71.7375C65.9637 71.6751 66.2927 71.9992 66.2372 72.7099ZM64.6461 77.829C64.6415 77.7771 64.3909 78.8708 63.894 81.1102C63.7518 82.0245 63.5191 83.3976 63.1957 85.2297C63.1463 85.5608 62.9147 85.9013 62.5009 86.2511C62.073 86.5892 61.7034 86.7719 61.3921 86.7991C61.0159 86.832 60.8597 86.3163 60.9234 85.252C61.0003 84.4872 61.2599 83.1966 61.7022 81.3803C62.1885 79.4687 62.5776 78.2387 62.8694 77.6904C63.1957 77.0867 63.5987 76.7639 64.0787 76.7219C64.5327 76.6822 64.7218 77.0512 64.6461 77.829ZM71.6289 79.4335C71.5673 80.2232 71.429 81.0326 71.214 81.8618C70.999 82.691 70.709 83.5594 70.344 84.467C69.8961 85.4734 69.2701 86.0118 68.4659 86.0822C67.9859 86.1242 67.7633 85.8953 67.798 85.3956C67.8407 84.9867 67.9526 84.4737 68.1339 83.8566C68.4554 82.9004 68.6128 82.3834 68.606 82.3056C68.6814 81.9722 68.754 81.6064 68.8237 81.2082C68.8934 80.81 68.9532 80.3735 69.0032 79.8985C69.0384 79.255 68.9846 78.9395 68.842 78.952C68.2323 79.0053 67.51 79.9377 66.6752 81.7491C65.9778 83.3394 65.5929 84.5429 65.5206 85.3596C65.5044 85.6224 65.3508 85.8842 65.0599 86.1449C64.7725 86.4445 64.5055 86.6051 64.259 86.6267C64.0774 86.6426 63.9219 86.434 63.7926 86.0009C63.6525 85.5949 63.5939 85.2994 63.617 85.1144C63.675 83.9852 64.1512 82.63 65.0454 81.0486C65.9442 79.5192 66.8784 78.3199 67.848 77.4508C68.7595 76.6653 69.5137 76.2464 70.1103 76.1942C70.6681 76.1454 71.0947 76.5394 71.3901 77.3762C71.6082 78.076 71.6878 78.7618 71.6289 79.4335ZM77.0438 78.803C77.0572 78.658 76.9917 78.5069 76.8473 78.3496C76.7146 78.1782 76.5835 78.0982 76.4537 78.1096C75.9738 78.1516 75.3999 78.6135 74.732 79.4954C74.1589 80.2644 73.7858 80.9309 73.613 81.495C75.8671 80.0692 77.0107 79.1718 77.0438 78.803ZM80.1877 82.4687C80.1131 83.2594 79.2176 84.0044 77.5012 84.7035C76.1732 85.2118 74.9839 85.5119 73.9333 85.6038C71.7671 85.7934 70.7672 84.9724 70.9338 83.1411C71.0397 81.8117 71.849 80.2312 73.3618 78.3997C74.8628 76.5823 76.2748 75.6157 77.5978 75.4999C78.1686 75.45 78.6548 75.6296 79.0566 76.0389C79.4725 76.46 79.6476 76.9675 79.5819 77.5614C79.4587 79.1406 77.7445 80.9114 74.4394 82.8736C74.6786 82.918 74.9473 82.9272 75.2457 82.9011C75.8034 82.8523 76.558 82.6621 77.5092 82.3305C78.5891 81.9746 79.2587 81.7853 79.5182 81.7626C80.0111 81.7195 80.2343 81.9549 80.1877 82.4687Z" fill="white"/>
</svg>
