<svg width="64" height="64" viewBox="0 0 64 64" fill="none" xmlns="http://www.w3.org/2000/svg">
<path fill-rule="evenodd" clip-rule="evenodd" d="M32.305 0.5C46.6402 0.5 58.7295 9.48948 62.4741 21.7672L62.5157 21.7676C62.5254 21.7912 62.5351 21.8148 62.5448 21.8384C63.0089 22.9666 63.4939 24.5727 64 26.6568C63.0371 26.0716 62.0545 25.8554 61.0522 26.008C58.2801 26.4302 54.9746 29.1423 53.494 29.1027C50.8715 29.0325 48.3894 27.638 46.2621 27.638C46.1552 27.638 45.5292 27.838 45.4324 27.849C44.8308 27.9177 43.8246 28.5045 42.8252 29.1408L42.4516 29.3808C41.3365 30.1022 40.2952 30.8121 39.9134 30.8429C38.8189 30.9313 38.1286 30.4562 37.197 30.1675C36.9662 30.096 36.7328 30.0226 36.4987 29.9493L36.0301 29.8034C34.6251 29.37 33.2425 28.9898 32.3048 29.1027C29.5449 29.4349 26.2253 32.7845 24.8558 32.8952C24.4096 32.9312 24.1727 32.9457 24.0593 32.9478L24.0092 32.9477C23.9313 32.9454 23.9818 32.9303 24.0491 32.9144L24.0903 32.9049C24.2077 32.8783 24.3101 32.8559 23.8625 32.8952C23.7737 32.8417 22.7219 32.4174 21.6617 31.9955L21.3094 31.8554C20.3758 31.4849 19.5194 31.1489 19.4105 31.1095C18.8372 30.9019 18.0806 30.8591 17.6629 30.8429C17.584 30.8398 17.5199 30.8368 17.4663 30.8341L17.3328 30.8269C17.1852 30.819 17.1372 30.8193 16.9147 30.8429C16.1408 30.9249 15.3816 31.4307 14.7319 32.0583C13.9892 32.7758 12.0895 34.3371 10.7151 34.4812C8.19653 34.7451 5.6993 32.1468 3.91117 32.3005C1.73804 32.4873 1.23192 33.0247 0.493464 33.3684C0.261259 33.4764 0.09787 33.565 0.00329713 33.6342L0 33.6363L0.0272873 33.4053C0.690051 27.8834 1.38623 24.004 2.11582 21.767L2.13558 21.7665L2.25039 21.4005C6.12201 9.31089 18.1128 0.5 32.305 0.5Z" fill="#CF0B7C"/>
<path fill-rule="evenodd" clip-rule="evenodd" d="M31.6419 63.5C17.434 63.5 5.45211 54.6933 1.74073 42.6652L1.6996 42.6649C1.68996 42.6418 1.68031 42.6186 1.67067 42.5954C1.21077 41.4902 0.653877 39.7065 -1.11001e-06 37.2444C1.39409 36.4632 2.58785 35.9978 3.58125 35.8482C6.32865 35.4346 8.53951 37.5589 10.007 37.5977C12.6062 37.6665 15.9506 34.1536 18.0589 34.1536C20.1673 34.1536 21.3968 34.984 21.4804 35.0107C22.9465 35.4789 24.1073 35.9087 24.8641 35.8482C25.1472 35.8256 25.9816 35.7148 26.4616 35.4789C27.8209 34.811 28.6696 34.5306 29.9415 33.7741C31.2134 33.0175 32.641 32.5627 33.2545 32.5627C33.8681 32.5627 34.3399 32.6658 34.9393 33.0175C36.2615 33.7935 38.3176 34.6427 39.0248 34.5736C39.7224 34.5054 41.5405 33.2396 41.9148 33.0175C43.8001 31.899 45.11 30.9679 46.1538 30.8776C46.236 30.9265 47.9496 31.0494 49.4849 31.4541C51.2363 31.9157 52.8685 32.6587 53.5566 32.5834C55.7245 32.3461 59.0908 30.1789 60.0901 29.6635C60.9151 29.2381 62.2184 29.6428 64 30.8776C63.4471 36.3239 62.6343 40.2299 61.5614 42.5954L61.5306 42.6647L61.5432 42.6646C57.832 54.693 45.85 63.5 31.6419 63.5Z" fill="#89CDE9"/>
<path d="M21.3791 17.8955C21.2233 19.363 20.6658 20.6864 19.7066 21.8656C19.3375 22.2986 18.92 22.7115 18.4541 23.1044C17.9959 23.4967 17.4816 23.8694 16.9111 24.2225C15.6782 24.9588 14.5903 25.3599 13.6472 25.4258C12.0574 25.537 11.3756 24.5783 11.6018 22.5498C11.6358 22.1401 11.7105 21.6964 11.8259 21.2184C11.9491 20.7399 12.104 20.2122 12.2908 19.6352L13.3346 16.7546C13.3849 16.5788 13.4462 16.3905 13.5183 16.1897C13.5982 15.9883 13.6848 15.7708 13.7781 15.5371C13.8846 15.3809 14.0301 15.2767 14.2144 15.2247L14.2394 15.2464L14.2418 15.2815C14.2178 15.385 14.0335 15.9422 13.6891 16.953C12.9473 19.1116 12.5188 20.7118 12.4037 21.7536C12.1965 23.7182 12.8177 24.6498 14.2672 24.5484C15.6077 24.4547 17.014 23.7337 18.486 22.3856C19.573 21.3541 20.1972 20.0887 20.3586 18.5894C20.4914 17.2409 20.2222 16.0224 19.5508 14.9338C18.8779 13.8217 17.9561 13.0717 16.7856 12.6837C15.9605 12.4203 15.0024 12.3267 13.9113 12.403C13.6542 12.421 13.3633 12.4609 13.0387 12.5228C12.7135 12.5768 12.3505 12.6492 11.9496 12.7399C11.356 12.8754 10.9969 12.9475 10.8722 12.9562C10.6852 12.9693 10.6001 12.9282 10.6169 12.8331C10.6689 12.3439 11.2681 11.9535 12.4146 11.6619C12.7843 11.5734 13.1551 11.5004 13.527 11.4431C13.9062 11.3774 14.2984 11.3304 14.7037 11.3021C17.0729 11.1364 18.859 11.7594 20.0619 13.1711C21.1382 14.4508 21.5772 16.0255 21.3791 17.8955ZM25.3075 22.3315C25.3521 21.8506 25.2006 21.4187 24.8527 21.0358C24.4965 20.6456 24.0924 20.4664 23.6403 20.498C22.8766 20.5514 22.4297 21.217 22.2998 22.4948C22.275 22.7001 22.2803 22.8877 22.3157 23.0576C22.351 23.2274 22.4162 23.3755 22.5112 23.502C22.6057 23.6207 22.7218 23.7144 22.8598 23.7831C23.005 23.8434 23.1711 23.867 23.3581 23.854C23.779 23.8245 24.1986 23.666 24.6171 23.3783C25.0428 23.0822 25.2729 22.7333 25.3075 22.3315ZM26.4141 21.5257C26.3356 22.3066 25.89 23.0465 25.0774 23.7455C24.2643 24.4367 23.4719 24.8093 22.7004 24.8632C21.6872 24.9341 21.2438 24.4169 21.3701 23.3116C21.461 22.483 21.7995 21.6683 22.3857 20.8676C23.0355 19.9686 23.7501 19.4918 24.5295 19.4373C25.0672 19.3997 25.5356 19.6019 25.9346 20.0439C26.3236 20.4552 26.4834 20.9492 26.4141 21.5257ZM32.6738 23.0146C32.6603 23.1565 32.5476 23.3367 32.3357 23.5551C32.1311 23.7652 31.9509 23.8757 31.795 23.8866C31.4677 23.9095 31.1614 23.2809 30.8761 22.0008C30.5952 22.5765 30.197 23.0977 29.6815 23.5645C29.0878 24.1464 28.5377 24.4551 28.0311 24.4905C27.5791 24.5221 27.2437 24.3184 27.0251 23.8795C26.8347 23.509 26.7694 23.079 26.8291 22.5892C26.8688 22.1479 27.0977 21.5014 27.5158 20.6499C28.0121 19.6832 28.42 19.1887 28.7396 19.1664C28.8097 19.1615 28.8392 19.1907 28.8279 19.2542C28.8189 19.3488 28.6572 19.7243 28.3428 20.3806C28.0268 21.0136 27.8468 21.5195 27.8029 21.8985C27.7745 22.2764 27.8335 22.6169 27.98 22.9199C28.1543 23.2836 28.4206 23.453 28.7791 23.4279C29.3247 23.3898 29.7789 22.8294 30.1417 21.7467C30.5493 20.52 30.9181 19.8011 31.2479 19.5901C31.3677 19.5112 31.4665 19.4691 31.5445 19.4636C31.6224 19.4582 31.6722 19.4978 31.6937 19.5824C31.742 19.7122 31.7927 19.877 31.8458 20.0769C31.8989 20.2768 31.9545 20.5118 32.0126 20.7818C32.1858 21.4667 32.4126 22.191 32.6931 22.9545L32.6738 23.0146ZM37.906 19.8881C37.8508 20.3305 37.6985 20.5604 37.4491 20.5779C37.4335 20.579 37.2944 20.3812 37.0317 19.9845C36.7768 19.5872 36.4155 19.4049 35.9479 19.4376C34.9114 19.5101 34.3518 20.0191 34.2691 20.9647C34.2099 21.4622 34.335 21.9077 34.6445 22.3012C34.9567 22.7336 35.3505 22.9331 35.8259 22.8999C36.1298 22.8786 36.4336 22.7438 36.7374 22.4955C37.0411 22.2471 37.2319 22.1202 37.3099 22.1148C37.419 22.1072 37.4659 22.1626 37.4507 22.2811C37.44 22.3524 37.3739 22.4706 37.2523 22.6357C36.5291 23.4929 35.7778 23.9488 34.9985 24.0033C34.4295 24.0431 33.9676 23.8208 33.6126 23.3366C33.2838 22.8897 33.1529 22.3624 33.2201 21.7547C33.303 21.0362 33.6622 20.3493 34.2977 19.694C34.9477 19.022 35.6118 18.6623 36.2898 18.6149C36.7262 18.5844 37.1132 18.6866 37.4507 18.9214C37.7877 19.1484 37.9395 19.4707 37.906 19.8881ZM41.8027 19.8388C41.805 19.7603 41.7876 19.6793 41.7504 19.5958C41.7211 19.5117 41.6766 19.4365 41.6172 19.3701C41.5577 19.3038 41.4874 19.25 41.4062 19.2087C41.3328 19.1668 41.2571 19.1486 41.1792 19.1541C40.7739 19.1824 40.3343 19.5029 39.8602 20.1156C39.4012 20.7194 39.1438 21.2386 39.0881 21.6733C39.0807 21.7912 39.088 21.8965 39.1102 21.9889C39.3575 21.8306 39.6088 21.6721 39.864 21.5133C40.1186 21.3467 40.3771 21.1798 40.6395 21.0126C41.3811 20.53 41.7688 20.1388 41.8027 19.8388ZM43.0308 22.1141C42.9828 22.5482 42.4838 22.916 41.5338 23.2174C40.8454 23.4534 40.2012 23.5925 39.6011 23.6344C38.4867 23.7124 37.9758 23.2939 38.0684 22.3789C38.1435 21.661 38.6007 20.8067 39.4399 19.8161C40.3309 18.7826 41.1271 18.2414 41.8285 18.1924C42.0935 18.1738 42.3152 18.2641 42.4935 18.463C42.687 18.6531 42.762 18.8868 42.7188 19.1639C42.6505 19.756 42.1929 20.3793 41.3458 21.0337C40.958 21.3115 40.2675 21.7396 39.2741 22.3181C39.4625 22.5477 39.8139 22.6445 40.3282 22.6086C40.4997 22.5966 40.7357 22.5566 41.0364 22.4886C41.3443 22.4122 41.7286 22.307 42.1891 22.173C42.6335 22.0323 42.8752 21.9606 42.9141 21.9578C42.9999 21.9518 43.0387 22.0039 43.0308 22.1141ZM49.1804 21.8603C49.1668 22.0023 49.0541 22.1824 48.8423 22.4009C48.6377 22.611 48.4575 22.7215 48.3016 22.7324C47.9743 22.7552 47.668 22.1266 47.3827 20.8465C47.1018 21.4222 46.7036 21.9435 46.188 22.4103C45.5944 22.9921 45.0442 23.3008 44.5377 23.3362C44.0857 23.3678 43.7503 23.1642 43.5317 22.7252C43.3413 22.3548 43.276 21.9247 43.3357 21.435C43.3753 20.9936 43.6042 20.3472 44.0224 19.4956C44.5187 18.529 44.9266 18.0345 45.2461 18.0121C45.3163 18.0072 45.3457 18.0365 45.3345 18.0999C45.3255 18.1945 45.1638 18.57 44.8494 19.2263C44.5334 19.8593 44.3534 20.3653 44.3094 20.7443C44.281 21.1222 44.3401 21.4626 44.4866 21.7657C44.6608 22.1294 44.9272 22.2987 45.2857 22.2736C45.8312 22.2355 46.2854 21.6751 46.6483 20.5925C47.0559 19.3657 47.4246 18.6469 47.7545 18.4358C47.8742 18.357 47.9731 18.3148 48.051 18.3094C48.129 18.3039 48.1787 18.3435 48.2003 18.4282C48.2485 18.5579 48.2992 18.7228 48.3524 18.9227C48.4055 19.1226 48.4611 19.3575 48.5191 19.6276C48.6923 20.3125 48.9192 21.0367 49.1997 21.8002L49.1804 21.8603ZM54.884 18.9241C54.8621 19.0587 54.7525 19.2269 54.5551 19.4287C54.3416 19.6238 54.1765 19.7254 54.0596 19.7335C54.0284 19.7357 53.8689 19.5276 53.5812 19.1091C53.2935 18.6907 52.9354 18.4965 52.5067 18.5264C51.7975 18.576 51.2776 18.9805 50.9469 19.7398C50.8546 20.0986 50.7614 20.4458 50.6674 20.7813C50.5733 21.1168 50.484 21.4637 50.3995 21.8221C50.1857 22.5732 49.8684 22.9635 49.4476 22.9929C49.3618 22.9989 49.3263 22.9387 49.341 22.8124C49.3781 22.5592 49.6386 21.2448 50.1225 18.8694C50.2879 18.0981 50.4835 17.7046 50.7095 17.6888C50.8732 17.6774 50.9205 18.0735 50.8514 18.8771C51.6737 17.9816 52.5096 17.5042 53.3591 17.4448C53.7878 17.4148 54.1608 17.5415 54.4782 17.8247C54.7967 18.1235 54.932 18.49 54.884 18.9241Z" fill="white"/>
<path d="M26.02 44.0898C25.8942 45.4686 25.3118 46.6283 24.2726 47.5688C23.2411 48.5001 22.034 49.0263 20.6513 49.1473C20.1707 49.1893 19.5376 49.1385 18.7519 48.9949C17.7418 48.8114 17.2576 48.5691 17.2992 48.2681C17.312 48.1226 17.431 47.9295 17.6563 47.6889C17.874 47.4574 18.0755 47.3336 18.261 47.3174C18.3032 47.3137 18.3464 47.3227 18.3908 47.3443C19.6052 47.8242 20.6509 48.0259 21.5277 47.9491C23.5428 47.7728 24.6324 46.777 24.7964 44.9615C24.9097 43.6347 24.5478 42.46 23.7107 41.4372C22.8651 40.4152 21.8058 39.9599 20.5327 40.0713C18.7537 40.227 17.4338 41.6975 16.573 44.483C16.1229 45.9412 15.7724 48.0534 15.5216 50.8195C15.2789 53.4829 14.9046 54.8368 14.3987 54.881C14.3228 54.8877 14.3051 54.6853 14.3456 54.274C14.3566 54.2051 14.3664 54.1235 14.3752 54.0293C14.3832 53.9266 14.3989 53.8148 14.4223 53.6938L14.4726 53.1032C14.4908 52.9232 14.5092 52.6964 14.5277 52.4229C14.5463 52.1494 14.5692 51.8288 14.5965 51.4611C14.6223 51.0766 14.6449 50.7517 14.6642 50.4867C14.6827 50.2132 14.6969 49.9868 14.7067 49.8075C14.8599 48.2564 15.0623 46.977 15.314 45.9695C15.7636 44.214 16.4357 42.7194 17.3303 41.4857C18.4674 39.9164 19.7947 39.0654 21.3124 38.9326C22.7035 38.8109 23.8663 39.2827 24.8005 40.3479C25.7348 41.4131 26.1413 42.6604 26.02 44.0898ZM28.5016 45.0706C28.4724 45.3195 28.367 45.5709 28.1853 45.8247C28.0205 46.077 27.8158 46.2138 27.5713 46.2352C27.2003 46.2677 27.0241 46.1472 27.0426 45.8737C27.0671 45.6676 27.2077 45.4302 27.4646 45.1613C27.7383 44.891 27.9721 44.7474 28.166 44.7304C28.4105 44.709 28.5224 44.8224 28.5016 45.0706ZM27.4353 48.0313C27.4761 48.2061 27.4319 48.5753 27.3028 49.1388L26.9857 50.4664C26.8837 50.9511 26.7335 51.8563 26.5351 53.182C26.5278 53.2931 26.4177 53.4429 26.2048 53.6315C26.0004 53.8193 25.8476 53.9176 25.7464 53.9265C25.6789 53.9324 25.6419 53.8974 25.6353 53.8215C25.6179 53.5257 25.6441 53.1453 25.7138 52.6804C25.792 52.2148 25.9223 51.6639 26.1045 51.0278C26.1798 50.7238 26.2876 50.3533 26.4278 49.9163C26.5672 49.4708 26.7387 48.9545 26.9422 48.3675C27.0565 48.1196 27.1937 47.9887 27.3539 47.9747C27.3876 47.9717 27.4148 47.9906 27.4353 48.0313ZM33.3549 47.9594C33.3501 48.0023 33.3285 48.0467 33.2901 48.0925C33.2516 48.1383 33.2047 48.1849 33.1494 48.2322C33.1017 48.2704 33.0495 48.3047 32.9927 48.3352C32.9359 48.3656 32.8864 48.3827 32.8443 48.3864L32.5407 48.4129C32.3468 48.4299 32.1357 48.4441 31.9073 48.4556C31.6782 48.4587 31.513 48.4646 31.4118 48.4735C30.653 48.5399 30.0576 48.7746 29.6256 49.1777C29.6278 49.203 30.1245 49.4909 31.1157 50.0414C31.716 50.3967 31.9899 50.857 31.9374 51.4223C31.874 52.0565 31.4822 52.5793 30.762 52.9907C30.1647 53.3488 29.533 53.557 28.8669 53.6152C27.9732 53.6934 27.5319 53.6513 27.5432 53.4889C27.5637 53.3342 27.6677 53.1637 27.8553 52.9773C28.0245 52.7756 28.1924 52.6547 28.3588 52.6147C28.4233 52.5751 28.856 52.5202 29.657 52.4501C30.4327 52.3823 30.8277 52.284 30.8419 52.1553C30.8911 51.6498 30.5149 51.1857 29.7133 50.763C28.9033 50.3411 28.5116 50.0398 28.5383 49.8591C28.5783 49.3458 29.0559 48.8325 29.971 48.3192C30.7656 47.8843 31.4622 47.6407 32.0608 47.5883C32.2716 47.5699 32.5194 47.5865 32.8043 47.638C33.1841 47.7067 33.3676 47.8138 33.3549 47.9594ZM38.1734 48.5573C38.1219 49.0376 37.9613 49.2895 37.6915 49.3131C37.6747 49.3146 37.5202 49.103 37.2282 48.6783C36.9446 48.2528 36.5498 48.0622 36.044 48.1064C34.9226 48.2045 34.3261 48.7665 34.2544 49.7923C34.1997 50.3323 34.3436 50.8125 34.6863 51.2328C35.0326 51.6952 35.4629 51.904 35.9772 51.859C36.306 51.8302 36.6326 51.6784 36.9569 51.4037C37.2812 51.1289 37.4855 50.9879 37.5698 50.9805C37.6878 50.9702 37.7397 51.0293 37.7255 51.158C37.7153 51.2354 37.6459 51.3646 37.5173 51.5458C36.7501 52.488 35.945 52.996 35.1019 53.0697C34.4864 53.1236 33.9818 52.8916 33.5882 52.3738C33.2235 51.896 33.0718 51.3273 33.1331 50.6677C33.2093 49.888 33.5854 49.1371 34.2614 48.4153C34.9527 47.6752 35.6652 47.273 36.3987 47.2088C36.8709 47.1675 37.292 47.2709 37.662 47.5189C38.0313 47.7584 38.2017 48.1046 38.1734 48.5573ZM41.2245 43.9575C41.1953 44.2064 41.0899 44.4578 40.9082 44.7116C40.7433 44.9639 40.5387 45.1007 40.2942 45.1221C39.9232 45.1546 39.747 45.0341 39.7655 44.7606C39.79 44.5545 39.9306 44.3171 40.1875 44.0482C40.4612 43.7779 40.695 43.6343 40.8889 43.6173C41.1334 43.5959 41.2453 43.7093 41.2245 43.9575ZM40.1582 46.9181C40.199 47.093 40.1548 47.4622 40.0257 48.0257L39.7086 49.3533C39.6065 49.838 39.4563 50.7432 39.258 52.0689C39.2507 52.18 39.1406 52.3298 38.9277 52.5184C38.7233 52.7062 38.5705 52.8045 38.4693 52.8134C38.4018 52.8193 38.3648 52.7843 38.3581 52.7084C38.3408 52.4126 38.3669 52.0322 38.4367 51.5673C38.5149 51.1017 38.6451 50.5508 38.8274 49.9147C38.9027 49.6107 39.0105 49.2402 39.1507 48.8032C39.2901 48.3577 39.4616 47.8414 39.6651 47.2544C39.7794 47.0065 39.9166 46.8756 40.0768 46.8615C40.1105 46.8586 40.1376 46.8775 40.1582 46.9181ZM44.7038 48.3301C44.6101 49.2983 44.3418 50.3583 43.8988 51.51C43.7055 52.0197 43.4149 52.2915 43.0271 52.3254C42.9259 52.3343 42.8782 52.2747 42.884 52.1468C42.8953 51.9844 42.9633 51.6938 43.0881 51.2751C43.2378 50.7522 43.3519 50.3089 43.4306 49.9452C43.5176 49.5808 43.573 49.2913 43.5967 49.0769C43.6 49.0171 43.5994 48.9619 43.595 48.9114C43.5983 48.8516 43.5969 48.788 43.591 48.7205C43.5851 48.6531 43.5792 48.5856 43.5733 48.5182C43.5667 48.4423 43.5555 48.3626 43.5397 48.279C43.4782 47.8681 43.3843 47.6681 43.2578 47.6792C42.8025 47.719 42.2685 48.3647 41.6559 49.6162C41.078 50.7798 40.7705 51.635 40.7334 52.182C40.7272 52.208 40.7052 52.2482 40.6675 52.3025C40.6382 52.356 40.6005 52.4103 40.5543 52.4653C40.5158 52.5111 40.4686 52.5535 40.4125 52.5924C40.3648 52.6305 40.3242 52.6511 40.2904 52.654C40.1218 52.6688 40.0594 52.4406 40.1031 51.9695C40.1621 51.2847 40.4795 50.4456 41.0553 49.4521C41.6095 48.5031 42.187 47.7729 42.788 47.2615C43.309 46.8082 43.7213 46.5682 44.0249 46.5416C44.3284 46.5151 44.5345 46.7349 44.6433 47.2012C44.7087 47.5608 44.7289 47.9371 44.7038 48.3301ZM48.8938 47.8616C48.8948 47.7765 48.8744 47.6891 48.8326 47.5993C48.7992 47.5088 48.7497 47.4281 48.684 47.3574C48.6183 47.2867 48.5411 47.2297 48.4524 47.1865C48.3721 47.1426 48.2898 47.1243 48.2055 47.1317C47.767 47.17 47.2969 47.5255 46.795 48.1981C46.3092 48.8608 46.0403 49.4281 45.9881 49.8999C45.9823 50.0278 45.9923 50.1417 46.018 50.2414C46.2829 50.0653 46.5521 49.8888 46.8255 49.7119C47.0981 49.5267 47.375 49.341 47.6561 49.155C48.4502 48.6183 48.8628 48.1871 48.8938 47.8616ZM50.267 50.3029C50.2233 50.774 49.6898 51.1818 48.6664 51.5262C47.9253 51.7949 47.2301 51.9577 46.5809 52.0145C45.3752 52.12 44.8139 51.6763 44.897 50.6835C44.9647 49.9045 45.4438 48.9705 46.334 47.8816C47.2796 46.7454 48.1318 46.1441 48.8906 46.0777C49.1773 46.0526 49.4191 46.1462 49.6161 46.3583C49.8292 46.5606 49.9149 46.8122 49.8733 47.1132C49.8106 47.7559 49.3267 48.4396 48.4215 49.1645C48.0067 49.4727 47.2668 49.9494 46.2018 50.5949C46.4102 50.84 46.7926 50.9382 47.3491 50.8895C47.5346 50.8733 47.7895 50.8255 48.1139 50.7462C48.446 50.6576 48.8602 50.5364 49.3565 50.3826C49.8352 50.2218 50.0956 50.1395 50.1377 50.1358C50.2305 50.1277 50.2736 50.1834 50.267 50.3029Z" fill="white"/>
</svg>
