<svg width="101" height="102" viewBox="0 0 101 102" fill="none" xmlns="http://www.w3.org/2000/svg">
<path fill-rule="evenodd" clip-rule="evenodd" d="M50.9119 0C73.305 0 92.1898 13.9485 98.0393 32.9991L98.1042 32.9997C98.1194 33.0363 98.1345 33.0729 98.1497 33.1097C98.8746 34.8602 99.6323 37.3523 100.423 40.586C98.9187 39.678 97.3838 39.3425 95.8181 39.5794C91.4878 40.2345 86.3243 44.4426 84.0113 44.3811C79.9148 44.2722 76.0374 42.1085 72.7144 42.1085C72.5474 42.1085 71.5695 42.4188 71.4184 42.4359C70.4786 42.5425 68.9068 43.453 67.3457 44.4403L66.762 44.8126C65.0201 45.9321 63.3934 47.0335 62.797 47.0814C61.0873 47.2185 60.0091 46.4813 58.5538 46.0334C58.1932 45.9224 57.8286 45.8085 57.4629 45.6948L56.7309 45.4685C54.5362 44.7959 52.3764 44.206 50.9116 44.3811C46.6003 44.8966 41.4149 50.0941 39.2756 50.2657C38.5785 50.3217 38.2084 50.3441 38.0313 50.3474L37.9529 50.3473C37.8313 50.3437 37.9102 50.3203 38.0154 50.2956L38.0797 50.2808C38.2631 50.2395 38.423 50.2049 37.7239 50.2657C37.5851 50.1827 35.9422 49.5245 34.2861 48.8697L33.7356 48.6524C32.2772 48.0775 30.9394 47.5562 30.7693 47.495C29.8739 47.1729 28.6919 47.1065 28.0394 47.0814C27.9162 47.0766 27.8161 47.0719 27.7324 47.0677L27.5237 47.0565C27.2933 47.0443 27.2182 47.0448 26.8707 47.0814C25.6618 47.2087 24.4758 47.9934 23.4609 48.9672C22.3008 50.0806 19.3332 52.5032 17.1862 52.7267C13.252 53.1362 9.35103 49.1046 6.55777 49.3431C3.16313 49.6329 2.37251 50.4668 1.21896 51C0.856234 51.1677 0.601003 51.3052 0.453271 51.4124L0.44812 51.4157L0.490746 51.0574C1.52605 42.4893 2.61355 36.4698 3.75325 32.9987L3.78412 32.998L3.96347 32.4301C10.0113 13.6714 28.7422 0 50.9119 0Z" fill="#CF0B7C"/>
<path fill-rule="evenodd" clip-rule="evenodd" d="M49.8711 101.607C27.4779 101.607 8.59318 87.6582 2.74363 68.6076L2.6788 68.607C2.66361 68.5704 2.6484 68.5337 2.6332 68.497C1.90835 66.7465 1.03063 63.9214 4.57764e-05 60.0218C2.19729 58.7845 4.07878 58.0474 5.64449 57.8105C9.9747 57.1554 13.4593 60.52 15.7722 60.5815C19.8687 60.6904 25.14 55.1264 28.4629 55.1264C31.7859 55.1264 33.7237 56.4417 33.8555 56.484C36.1662 57.2256 37.9958 57.9062 39.1886 57.8105C39.6348 57.7747 40.9499 57.5991 41.7065 57.2256C43.8488 56.1677 45.1865 55.7236 47.1912 54.5253C49.1959 53.3271 51.4458 52.6067 52.4129 52.6067C53.3799 52.6067 54.1235 52.7699 55.0682 53.3271C57.1521 54.5561 60.3928 55.9012 61.5074 55.7917C62.6068 55.6836 65.4724 53.6788 66.0623 53.3271C69.0338 51.5555 71.0984 50.0809 72.7435 49.9377C72.8732 50.0152 75.574 50.2098 77.9937 50.8508C80.7541 51.582 83.3266 52.7587 84.4111 52.6394C87.828 52.2636 93.1337 48.8312 94.7087 48.0149C96.009 47.341 98.0631 47.982 100.871 49.9377C99.9997 58.5639 98.7185 64.7504 97.0276 68.497L96.9791 68.6067L96.9989 68.6066C91.1497 87.6577 72.2647 101.607 49.8711 101.607Z" fill="#89CDE9"/>
<path d="M33.9059 24.5677C33.6592 26.8914 32.7765 28.9867 31.2579 30.8537C30.6734 31.5394 30.0123 32.1932 29.2746 32.8152C28.5493 33.4363 27.7349 34.0265 26.8316 34.5856C24.8796 35.7513 23.157 36.3864 21.6639 36.4908C19.1466 36.6668 18.067 35.1489 18.4252 31.9371C18.4791 31.2885 18.5973 30.5858 18.78 29.8291C18.975 29.0714 19.2204 28.2359 19.5161 27.3224L21.1688 22.7614C21.2485 22.483 21.3455 22.1849 21.4597 21.8669C21.5862 21.548 21.7233 21.2036 21.871 20.8337C22.0397 20.5863 22.27 20.4214 22.5618 20.339L22.6014 20.3734L22.6053 20.429C22.5672 20.5928 22.2755 21.475 21.7302 23.0756C20.5556 26.4933 19.8771 29.0269 19.6949 30.6765C19.3668 33.787 20.3503 35.262 22.6455 35.1016C24.7679 34.9531 26.9945 33.8116 29.3253 31.6771C31.0463 30.0439 32.0346 28.0404 32.2902 25.6665C32.5005 23.5314 32.0741 21.602 31.0112 19.8784C29.9457 18.1177 28.4862 16.9301 26.6329 16.3157C25.3265 15.8987 23.8096 15.7506 22.082 15.8714C21.6748 15.8998 21.2142 15.963 20.7003 16.061C20.1855 16.1466 19.6107 16.2612 18.9759 16.4048C18.0361 16.6193 17.4675 16.7334 17.2701 16.7472C16.9739 16.768 16.8392 16.703 16.8658 16.5523C16.9481 15.7778 17.8968 15.1596 19.7122 14.6979C20.2976 14.5577 20.8847 14.4423 21.4735 14.3515C22.0739 14.2475 22.6949 14.1731 23.3365 14.1282C27.0878 13.8659 29.9158 14.8524 31.8205 17.0876C33.5245 19.1136 34.2197 21.607 33.9059 24.5677ZM40.1259 31.5914C40.1966 30.8301 39.9566 30.1462 39.4058 29.54C38.8418 28.9222 38.202 28.6383 37.4863 28.6884C36.277 28.7729 35.5695 29.8268 35.3637 31.85C35.3245 32.1752 35.3329 32.4722 35.3889 32.7411C35.4449 33.0099 35.5481 33.2445 35.6985 33.4448C35.848 33.6327 36.032 33.7811 36.2504 33.8898C36.4803 33.9853 36.7433 34.0227 37.0394 34.002C37.7058 33.9554 38.3702 33.7044 39.0328 33.2488C39.7068 32.7801 40.0711 32.2276 40.1259 31.5914ZM41.8781 30.3157C41.7537 31.552 41.0482 32.7235 39.7616 33.8303C38.4741 34.9247 37.2196 35.5146 35.998 35.6001C34.3938 35.7122 33.6918 34.8933 33.8918 33.1433C34.0356 31.8313 34.5716 30.5414 35.4998 29.2737C36.5286 27.8501 37.6601 27.0952 38.894 27.0089C39.7455 26.9494 40.487 27.2696 41.1188 27.9694C41.7347 28.6207 41.9878 29.4028 41.8781 30.3157ZM51.7893 32.673C51.7678 32.8977 51.5894 33.183 51.2539 33.5289C50.93 33.8615 50.6446 34.0365 50.3978 34.0537C49.8796 34.09 49.3946 33.0947 48.9428 31.0679C48.4982 31.9794 47.8677 32.8046 47.0514 33.5437C46.1114 34.4651 45.2404 34.9538 44.4383 35.0099C43.7226 35.0599 43.1917 34.7374 42.8455 34.0424C42.544 33.4559 42.4406 32.7749 42.5352 31.9995C42.5979 31.3007 42.9604 30.2772 43.6225 28.9289C44.4083 27.3984 45.0541 26.6154 45.56 26.58C45.6711 26.5722 45.7177 26.6186 45.6999 26.719C45.6856 26.8688 45.4296 27.4633 44.9319 28.5025C44.4315 29.5047 44.1466 30.3059 44.0769 30.9059C44.032 31.5043 44.1255 32.0433 44.3574 32.5231C44.6333 33.099 45.055 33.3671 45.6227 33.3274C46.4864 33.267 47.2056 32.3797 47.7801 30.6656C48.4255 28.7232 49.0093 27.585 49.5315 27.2509C49.7212 27.126 49.8777 27.0593 50.0011 27.0507C50.1245 27.042 50.2033 27.1047 50.2375 27.2387C50.3139 27.4442 50.3941 27.7052 50.4782 28.0217C50.5624 28.3382 50.6504 28.7103 50.7423 29.1378C51.0165 30.2223 51.3757 31.3689 51.8198 32.5779L51.7893 32.673ZM60.0735 27.7227C59.9861 28.4232 59.745 28.7873 59.3501 28.8149C59.3254 28.8166 59.1051 28.5034 58.6892 27.8753C58.2856 27.2464 57.7136 26.9577 56.9733 27.0095C55.3321 27.1243 54.446 27.9302 54.3151 29.4274C54.2214 30.2151 54.4195 30.9205 54.9095 31.5434C55.4038 32.2281 56.0273 32.5441 56.78 32.4914C57.2612 32.4578 57.7423 32.2443 58.2232 31.8511C58.7041 31.4579 59.0063 31.257 59.1297 31.2483C59.3024 31.2363 59.3768 31.3241 59.3527 31.5117C59.3358 31.6245 59.2311 31.8116 59.0385 32.0731C57.8935 33.4304 56.7039 34.1522 55.47 34.2384C54.5692 34.3014 53.8378 33.9496 53.2757 33.1829C52.7551 32.4753 52.5479 31.6404 52.6542 30.6781C52.7854 29.5406 53.3542 28.453 54.3604 27.4154C55.3896 26.3515 56.441 25.7819 57.5146 25.7069C58.2056 25.6585 58.8183 25.8203 59.3527 26.1921C59.8862 26.5516 60.1265 27.0618 60.0735 27.7227ZM66.2433 27.6447C66.247 27.5204 66.2194 27.3922 66.1606 27.2599C66.1141 27.1267 66.0437 27.0077 65.9496 26.9026C65.8554 26.7976 65.7441 26.7124 65.6155 26.647C65.4993 26.5807 65.3795 26.5519 65.2561 26.5605C64.6144 26.6054 63.9183 27.1129 63.1677 28.083C62.441 29.039 62.0335 29.8611 61.9452 30.5493C61.9334 30.7361 61.9451 30.9027 61.9801 31.049C62.3718 30.7984 62.7697 30.5474 63.1737 30.2959C63.5768 30.0322 63.9861 29.7679 64.4016 29.5033C65.5758 28.7392 66.1897 28.1196 66.2433 27.6447ZM68.1878 31.2473C68.1119 31.9346 67.3218 32.5169 65.8175 32.9941C64.7277 33.3679 63.7077 33.588 62.7575 33.6544C60.9929 33.7778 60.184 33.1152 60.3307 31.6665C60.4496 30.5298 61.1734 29.1772 62.5022 27.6087C63.9129 25.9725 65.1736 25.1155 66.2842 25.0378C66.7037 25.0085 67.0547 25.1514 67.3372 25.4664C67.6434 25.7674 67.7623 26.1373 67.6937 26.5761C67.5857 27.5136 66.8611 28.5005 65.52 29.5367C64.9059 29.9764 63.8125 30.6543 62.2398 31.5703C62.538 31.9338 63.0943 32.0871 63.9087 32.0301C64.1802 32.0112 64.554 31.9478 65.03 31.8401C65.5176 31.7192 66.1259 31.5527 66.8551 31.3405C67.5587 31.1177 67.9414 31.0042 68.0031 30.9998C68.1388 30.9903 68.2004 31.0728 68.1878 31.2473ZM77.9247 30.8455C77.9032 31.0702 77.7248 31.3554 77.3893 31.7013C77.0654 32.0339 76.78 32.2089 76.5332 32.2262C76.015 32.2624 75.53 31.2671 75.0782 29.2403C74.6336 30.1518 74.0031 30.9771 73.1868 31.7162C72.2468 32.6375 71.3758 33.1262 70.5737 33.1823C69.858 33.2323 69.3271 32.9099 68.9809 32.2149C68.6794 31.6283 68.576 30.9474 68.6706 30.172C68.7333 29.4732 69.0958 28.4496 69.7579 27.1013C70.5437 25.5708 71.1895 24.7878 71.6954 24.7524C71.8065 24.7447 71.8531 24.791 71.8353 24.8915C71.821 25.0413 71.565 25.6358 71.0673 26.675C70.5669 27.6772 70.282 28.4783 70.2123 29.0784C70.1674 29.6767 70.2609 30.2158 70.4928 30.6955C70.7687 31.2715 71.1904 31.5396 71.7581 31.4999C72.6218 31.4395 73.341 30.5522 73.9155 28.838C74.5609 26.8957 75.1447 25.7575 75.6669 25.4233C75.8566 25.2985 76.0131 25.2317 76.1365 25.2231C76.2599 25.2145 76.3387 25.2772 76.3729 25.4112C76.4493 25.6166 76.5295 25.8776 76.6136 26.1941C76.6978 26.5106 76.7858 26.8827 76.8777 27.3103C77.1519 28.3947 77.5111 29.5414 77.9552 30.7503L77.9247 30.8455ZM86.9554 26.1964C86.9207 26.4096 86.7471 26.6759 86.4347 26.9954C86.0967 27.3042 85.8351 27.4651 85.65 27.478C85.6007 27.4815 85.3482 27.152 84.8927 26.4894C84.4372 25.8269 83.8701 25.5193 83.1914 25.5668C82.0685 25.6453 81.2452 26.2857 80.7217 27.4879C80.5754 28.0561 80.4279 28.6058 80.279 29.137C80.1302 29.6682 79.9888 30.2175 79.8549 30.7849C79.5164 31.9741 79.014 32.5921 78.3477 32.6387C78.2119 32.6482 78.1557 32.5529 78.1789 32.3529C78.2377 31.952 78.6501 29.8709 79.4163 26.1097C79.6782 24.8886 79.988 24.2656 80.3458 24.2406C80.605 24.2224 80.6798 24.8496 80.5704 26.122C81.8725 24.7042 83.196 23.9483 84.541 23.8542C85.2197 23.8067 85.8103 24.0072 86.3129 24.4557C86.8172 24.9288 87.0313 25.5091 86.9554 26.1964Z" fill="white"/>
<path d="M41.7929 70.1436C41.5995 72.2649 40.7034 74.049 39.1047 75.496C37.5178 76.9288 35.6607 77.7382 33.5334 77.9244C32.794 77.989 31.82 77.9109 30.6112 77.6899C29.0573 77.4076 28.3123 77.0349 28.3764 76.5718C28.396 76.3479 28.5791 76.0508 28.9258 75.6807C29.2606 75.3246 29.5707 75.1341 29.8561 75.1091C29.9209 75.1035 29.9875 75.1173 30.0557 75.1505C31.9241 75.8889 33.5328 76.1991 34.8818 76.0811C37.9819 75.8099 39.6581 74.2777 39.9105 71.4847C40.0848 69.4435 39.528 67.6362 38.2402 66.0628C36.9393 64.4905 35.3096 63.79 33.3509 63.9614C30.614 64.2008 28.5834 66.4632 27.2591 70.7486C26.5666 72.992 26.0274 76.2414 25.6416 80.497C25.2682 84.5946 24.6923 86.6774 23.914 86.7455C23.7973 86.7557 23.7701 86.4444 23.8323 85.8116C23.8492 85.7056 23.8644 85.5801 23.8778 85.4351C23.8901 85.2772 23.9143 85.1052 23.9503 84.919L24.0276 84.0104C24.0557 83.7334 24.084 83.3846 24.1125 82.9638C24.1411 82.5431 24.1764 82.0499 24.2184 81.4841C24.2581 80.8925 24.2928 80.3928 24.3225 79.985C24.351 79.5642 24.3728 79.216 24.3879 78.9402C24.6235 76.5538 24.9349 74.5855 25.3221 73.0355C26.0139 70.3347 27.0479 68.0353 28.4241 66.1373C30.1735 63.7231 32.2156 62.4138 34.5504 62.2095C36.6907 62.0223 38.4795 62.748 39.9169 64.3868C41.3542 66.0256 41.9796 67.9445 41.7929 70.1436ZM45.6109 71.6526C45.5659 72.0355 45.4037 72.4222 45.1242 72.8127C44.8706 73.2008 44.5557 73.4114 44.1795 73.4443C43.6088 73.4942 43.3377 73.3088 43.3662 72.8881C43.4039 72.5711 43.6202 72.2058 44.0154 71.7921C44.4365 71.3763 44.7962 71.1553 45.0945 71.1292C45.4707 71.0963 45.6428 71.2707 45.6109 71.6526ZM43.9703 76.2074C44.0331 76.4764 43.9651 77.0444 43.7665 77.9113L43.2786 79.9538C43.1216 80.6995 42.8906 82.0921 42.5854 84.1317C42.5742 84.3026 42.4049 84.5331 42.0773 84.8231C41.7628 85.1121 41.5277 85.2634 41.372 85.277C41.2682 85.2861 41.2112 85.2322 41.201 85.1155C41.1743 84.6603 41.2146 84.0752 41.3219 83.36C41.4422 82.6436 41.6426 81.7961 41.9229 80.8175C42.0389 80.3498 42.2047 79.7798 42.4203 79.1074C42.6348 78.4221 42.8987 77.6278 43.2118 76.7247C43.3875 76.3434 43.5986 76.1419 43.8451 76.1203C43.897 76.1158 43.9387 76.1448 43.9703 76.2074ZM53.0774 76.0968C53.0701 76.1628 53.0369 76.2311 52.9777 76.3016C52.9185 76.3722 52.8463 76.4438 52.7612 76.5166C52.6879 76.5753 52.6076 76.6281 52.5202 76.675C52.4328 76.7218 52.3567 76.7481 52.2918 76.7538L51.8248 76.7946C51.5265 76.8207 51.2017 76.8426 50.8503 76.8603C50.4978 76.865 50.2437 76.8741 50.0881 76.8877C48.9207 76.9899 48.0046 77.351 47.34 77.9712C47.3434 78.0101 48.1076 78.453 49.6325 79.2999C50.5561 79.8465 50.9775 80.5546 50.8967 81.4244C50.7991 82.4001 50.1963 83.2044 49.0884 83.8372C48.1694 84.3882 47.1975 84.7085 46.1728 84.7981C44.7978 84.9184 44.119 84.8537 44.1364 84.6038C44.1678 84.3658 44.3279 84.1034 44.6165 83.8168C44.8769 83.5064 45.1351 83.3205 45.3911 83.2589C45.4903 83.1979 46.1561 83.1135 47.3884 83.0057C48.5817 82.9013 49.1893 82.7501 49.2112 82.5521C49.287 81.7743 48.7082 81.0603 47.475 80.4101C46.2288 79.7611 45.6262 79.2975 45.6672 79.0194C45.7288 78.2298 46.4636 77.4401 47.8714 76.6503C49.0938 75.9814 50.1655 75.6066 51.0865 75.526C51.4108 75.4976 51.792 75.5231 52.2303 75.6024C52.8146 75.7081 53.097 75.8729 53.0774 76.0968ZM60.4905 77.0168C60.4113 77.7556 60.1642 78.1432 59.7491 78.1795C59.7232 78.1818 59.4856 77.8562 59.0363 77.2028C58.6 76.5482 57.9927 76.255 57.2144 76.3231C55.4892 76.474 54.5715 77.3385 54.4612 78.9167C54.3771 79.7475 54.5985 80.4862 55.1257 81.1328C55.6584 81.8443 56.3205 82.1654 57.1117 82.0962C57.6176 82.0519 58.12 81.8185 58.6189 81.3958C59.1178 80.9731 59.4321 80.756 59.5618 80.7447C59.7434 80.7288 59.8233 80.8198 59.8014 81.0178C59.7857 81.1368 59.6789 81.3357 59.4811 81.6144C58.3008 83.0639 57.0622 83.8454 55.765 83.9589C54.8181 84.0418 54.0419 83.6849 53.4363 82.8883C52.8753 82.1531 52.6419 81.2782 52.7361 80.2635C52.8534 79.0639 53.432 77.9088 54.472 76.7983C55.5356 75.6596 56.6317 75.0409 57.7602 74.9421C58.4866 74.8786 59.1344 75.0376 59.7037 75.4191C60.2718 75.7876 60.5341 76.3202 60.4905 77.0168ZM65.1845 69.9401C65.1396 70.3231 64.9774 70.7098 64.6978 71.1002C64.4442 71.4884 64.1294 71.6989 63.7532 71.7318C63.1825 71.7817 62.9114 71.5963 62.9399 71.1756C62.9775 70.8586 63.1939 70.4933 63.5891 70.0797C64.0101 69.6638 64.3698 69.4428 64.6682 69.4167C65.0444 69.3838 65.2165 69.5582 65.1845 69.9401ZM63.544 74.4949C63.6068 74.7639 63.5388 75.3319 63.3402 76.1989L62.8523 78.2414C62.6953 78.987 62.4642 80.3797 62.1591 82.4192C62.1479 82.5901 61.9785 82.8206 61.651 83.1107C61.3364 83.3996 61.1013 83.5509 60.9457 83.5645C60.8419 83.5736 60.7849 83.5197 60.7747 83.403C60.748 82.9479 60.7883 82.3627 60.8956 81.6475C61.0159 80.9312 61.2163 80.0837 61.4966 79.105C61.6125 78.6374 61.7783 78.0674 61.994 77.395C62.2085 76.7096 62.4723 75.9154 62.7854 75.0122C62.9612 74.6309 63.1723 74.4294 63.4188 74.4079C63.4706 74.4033 63.5124 74.4323 63.544 74.4949ZM70.5373 76.6671C70.3931 78.1567 69.9803 79.7874 69.2988 81.5593C69.0014 82.3434 68.5544 82.7616 67.9577 82.8138C67.8021 82.8274 67.7287 82.7358 67.7376 82.539C67.755 82.2891 67.8596 81.8421 68.0516 81.1979C68.2819 80.3935 68.4575 79.7115 68.5784 79.152C68.7124 78.5913 68.7976 78.146 68.8341 77.816C68.8391 77.7241 68.8382 77.6392 68.8314 77.5614C68.8364 77.4695 68.8344 77.3716 68.8253 77.2678C68.8162 77.1641 68.8072 77.0603 68.7981 76.9565C68.7879 76.8398 68.7706 76.7171 68.7463 76.5886C68.6518 75.9564 68.5072 75.6488 68.3126 75.6658C67.6122 75.7271 66.7907 76.7204 65.8481 78.6458C64.9591 80.4359 64.486 81.7516 64.429 82.5932C64.4194 82.6332 64.3856 82.695 64.3275 82.7785C64.2825 82.8608 64.2244 82.9443 64.1534 83.029C64.0942 83.0995 64.0215 83.1647 63.9352 83.2245C63.8619 83.2832 63.7994 83.3148 63.7475 83.3194C63.4881 83.3421 63.392 82.991 63.4593 82.2663C63.5501 81.2127 64.0384 79.9217 64.9242 78.3934C65.7767 76.9333 66.6653 75.8099 67.5898 75.0232C68.3915 74.3257 69.0258 73.9565 69.4927 73.9157C69.9597 73.8748 70.2768 74.213 70.4442 74.9304C70.5448 75.4836 70.5759 76.0625 70.5373 76.6671ZM76.9834 75.9463C76.985 75.8155 76.9536 75.681 76.8892 75.5428C76.8379 75.4036 76.7616 75.2795 76.6606 75.1707C76.5596 75.0619 76.4409 74.9743 76.3043 74.9078C76.1808 74.8402 76.0541 74.8121 75.9244 74.8234C75.2499 74.8824 74.5266 75.4293 73.7545 76.4641C73.0072 77.4836 72.5934 78.3563 72.5131 79.0822C72.5042 79.2791 72.5195 79.4542 72.5591 79.6076C72.9667 79.3366 73.3808 79.0651 73.8014 78.7931C74.2209 78.508 74.6468 78.2224 75.0792 77.9363C76.301 77.1105 76.9357 76.4472 76.9834 75.9463ZM79.0961 79.7023C79.0288 80.427 78.208 81.0543 76.6336 81.5842C75.4934 81.9977 74.4239 82.2481 73.4251 82.3354C71.5702 82.4977 70.7067 81.8152 70.8344 80.2878C70.9387 79.0893 71.6757 77.6524 73.0453 75.9772C74.5 74.2291 75.8111 73.3041 76.9785 73.2019C77.4196 73.1633 77.7916 73.3072 78.0946 73.6336C78.4225 73.9448 78.5544 74.3319 78.4903 74.795C78.3938 75.7837 77.6493 76.8357 76.2569 77.9509C75.6187 78.425 74.4804 79.1585 72.8419 80.1514C73.1625 80.5285 73.7508 80.6797 74.6069 80.6048C74.8923 80.5798 75.2845 80.5063 75.7836 80.3842C76.2945 80.248 76.9317 80.0615 77.6952 79.8248C78.4316 79.5774 78.8323 79.4509 78.8972 79.4452C79.0398 79.4327 79.1062 79.5184 79.0961 79.7023Z" fill="white"/>
</svg>
